<svg width="70" height="81" viewBox="0 0 70 81" fill="none" xmlns="http://www.w3.org/2000/svg">
<path d="M34.6394 61.6978L34.644 57.8389L30.7922 57.8342H23.0978L23.0931 61.6978H34.6394Z" fill="#271D11"/>
<path d="M26.9443 57.839H34.6387V61.6955H23.0971V57.839H26.9443Z" fill="#271D11"/>
<path d="M42.3325 69.4107L42.3372 65.5518L46.1773 65.5542L46.182 61.6953L50.0245 61.6976L50.0269 57.8387V46.2714L46.1773 46.2667L46.1726 50.1256L42.3302 50.1233L42.3278 53.9822L38.4853 53.9798H19.2518L19.2541 50.128L15.4022 50.1256L15.3999 53.9845V65.5542L19.2518 65.5565L19.2471 69.4131H42.3325V69.4107ZM34.6335 61.6953L30.7933 61.6906H23.0989L23.1013 57.8411L26.9438 57.8434H34.6335V61.6953Z" fill="#997C5A"/>
<path d="M19.2518 50.1258V53.9824H42.3325V50.1258H46.1797V46.2716H50.0269V61.6955H46.1797V65.552H42.3325V69.4086H19.2494V65.552H15.4022V50.1258H19.2518ZM30.791 57.8389H23.0966V61.6955H34.6381V57.8389H30.791Z" fill="#997C5A"/>
<path d="M46.1799 30.8522L46.1846 26.991L42.3327 26.9886L42.3374 23.1344L38.4855 23.1321H34.6383L34.6337 26.991L30.7912 26.9886H26.944L26.9487 23.1344L30.7912 23.1414L30.7959 19.2802L26.944 19.2755H23.0968L23.0921 23.1344L19.252 23.1321L19.2449 26.991L15.4025 26.9886L15.3978 30.8522H46.1799Z" fill="#DBB07F"/>
<path d="M19.2528 26.9912V23.1346H23.0976V19.2804H30.7919V23.1346H26.9448V26.9912H34.6391V23.1346H42.3335V26.9912H46.1807V30.8477H15.4032V26.9912H19.2528Z" fill="#DBB07F"/>
<path d="M42.3325 53.9872L42.3372 50.1259L46.1773 50.1306L46.182 46.2717L50.0245 46.274L50.0269 42.4152L46.1773 42.4105L46.1797 38.5609V34.7044L42.3302 34.6997L42.3255 38.5609V42.4175L38.483 42.4128H34.6381L34.6428 38.5633V34.7067L30.791 34.7021H23.0966L23.0919 38.5633V42.4175L19.2518 42.4152H15.4022L15.3999 46.274V50.1306L19.2518 50.1353L19.2471 53.9895H42.3325V53.9872ZM30.7863 50.1259L26.9461 50.1236H23.0989L23.1013 46.2717L26.9438 46.2764H30.7863V50.1259Z" fill="#DBB07F"/>
<path d="M23.0966 42.415V34.7019H34.6381V42.415H42.3325V34.7019H46.1797V42.415H50.0269V46.2716H46.1797V50.1258H42.3325V53.9823H19.2494V50.1258H15.4022V42.415H23.0966ZM26.9438 50.1258H30.791V46.2716H23.0966V50.1258H26.9438Z" fill="#DBB07F"/>
<mask id="mask0_151_179" style="mask-type:luminance" maskUnits="userSpaceOnUse" x="38" y="61" width="13" height="20">
<path d="M50.083 61.1941H38.0869V80.9736H50.083V61.1941Z" fill="white"/>
</mask>
<g mask="url(#mask0_151_179)">
<path d="M50.0247 80.9782L50.0317 77.117V61.6955L46.1799 61.6908L46.1752 65.552L42.3327 65.545L42.328 69.4062L38.4855 69.4016L38.4808 73.2628V80.9782H50.0247Z" fill="#DBB07F"/>
<path d="M42.3329 65.5521H46.1801V61.6956H50.0249V80.9736H38.4857V69.4063H42.3329V65.5521Z" fill="#DBB07F"/>
</g>
<mask id="mask1_151_179" style="mask-type:luminance" maskUnits="userSpaceOnUse" x="0" y="0" width="70" height="81">
<path d="M69.2773 0H0V80.9735H69.2773V0Z" fill="white"/>
</mask>
<g mask="url(#mask1_151_179)">
<path d="M53.8736 80.9781L53.8759 77.1169V46.2715L57.7184 46.2738H61.5679L61.5703 42.4149V38.5584L65.4128 38.5631L65.4175 34.7018V30.8453L61.5679 30.8429L61.5703 26.9911L65.4128 26.9958H69.2623L69.2646 23.1345L65.4151 23.1322L65.4175 19.2803L61.5679 19.278L61.5703 15.4261L65.4128 15.4308L65.4175 11.5719V3.85645L61.5679 3.85177L61.5633 7.71066L57.7208 7.70832H53.8736L53.8783 3.85645V-9.84229e-05L50.0264 -0.00244141H46.1792L46.1769 3.85645L42.3344 3.85411H30.7929L30.7952 -9.84229e-05L26.9457 -0.00244141H11.557L11.5546 3.85645L15.4041 3.86114L15.4018 7.71066L11.5593 7.70832H7.70744L7.71212 3.85645L3.86025 3.85411H0.0130768L0.0107346 7.713L3.86025 7.71535L3.85791 11.5672L0.015419 11.5625L0.0107346 15.4238L3.86259 15.4261L3.85791 19.278V23.1345L7.70744 23.1415L7.70509 26.9911L3.86259 26.9887L3.85791 30.8476V34.7042L7.70744 34.7065L7.70509 38.5584V46.2715L11.5546 46.2738L11.5523 50.1257V65.5472L15.4018 65.5519L15.4065 61.6907V42.4149L19.249 42.4173H23.0962L23.0985 38.5584V34.7018L26.941 34.7065H34.6377L34.633 38.556V42.4126L38.4849 42.4173H42.332L42.3367 38.556V34.6995L46.1769 34.7042L46.1745 38.5537V42.4102L50.0241 42.4149L50.0217 46.2645V80.9734H53.8736V80.9781ZM61.5679 34.7065L61.5633 38.5584L57.7208 38.5537L57.7255 34.7042L61.5679 34.7065ZM46.1745 30.8476L42.332 30.8453H15.4018L15.4065 26.9934L19.249 26.9981L19.2513 23.1369L23.0938 23.1415L23.0985 19.2803L26.9386 19.285H30.7858L30.7835 23.1345L26.941 23.1322L26.9386 26.9911L30.7882 26.9958H34.6377L34.6424 23.1345L38.4825 23.1392H42.3297L42.3274 26.9911L46.1745 26.9934V30.8476Z" fill="#0A0A0A"/>
<path d="M7.70832 3.85667V7.71322H15.4027V3.85667H11.5555V0.00012207H30.7937V3.85667H46.1801V0.00012207H53.8745V7.71322H61.5688V3.85667H65.416V15.4263H61.5688V19.2805H65.416V23.1371H69.2632V26.9913H61.5688V30.8478H65.416V38.5609H61.5688V34.7044H57.7216V38.5609H61.5688V46.2717H53.8745V80.9736H50.0249V42.4152H46.1778V34.7021H42.3306V42.4152H34.6386V34.7021H23.097V42.4152H15.4027V65.5521H11.5555V46.2717H7.70832V34.7021H3.86114V26.9913H7.70832V23.1347H3.86114V15.424H0.0139618V11.5698H3.86114V7.71322H0.0139618V3.85667H7.70832ZM15.4027 30.8478H46.1801V26.9913H42.3329V23.1347H34.6386V26.9913H26.9442V23.1347H30.7914V19.2805H23.097V23.1347H19.2499V26.9913H15.4027V30.8478Z" fill="#0A0A0A"/>
</g>
<path d="M19.2525 69.411L19.2549 65.5521L15.403 65.545L15.3983 69.411H19.2525Z" fill="#0A0A0A"/>
<path d="M19.2524 65.552H15.4029V69.4086H19.2524V65.552Z" fill="#0A0A0A"/>
<mask id="mask2_151_179" style="mask-type:luminance" maskUnits="userSpaceOnUse" x="18" y="68" width="21" height="13">
<path d="M38.6885 68.9915H18.895V80.9735H38.6885V68.9915Z" fill="white"/>
</mask>
<g mask="url(#mask2_151_179)">
<path d="M38.4865 80.9781L38.4912 77.1169V69.4061L34.6393 69.4014H19.253L19.2459 73.2627L23.0978 73.2674H34.6393L34.6347 77.1169V80.9781H38.4865Z" fill="#0A0A0A"/>
<path d="M26.9443 69.4064H38.4858V80.9737H34.6387V73.263H19.2523V69.4064H26.9443Z" fill="#0A0A0A"/>
</g>
<path d="M30.7912 50.1326L30.7959 46.2714L26.944 46.2667H23.0969L23.0922 50.1326H30.7912Z" fill="#0A0A0A"/>
<path d="M23.0981 50.1258V46.2716H30.7925V50.1258H23.0981Z" fill="#0A0A0A"/>
</svg>
