<svg width="413" height="503" viewBox="0 0 413 503" fill="none" xmlns="http://www.w3.org/2000/svg">
<mask id="mask0_151_131" style="mask-type:luminance" maskUnits="userSpaceOnUse" x="0" y="0" width="413" height="503">
<path d="M0 0H412.46V503H0V0Z" fill="white"/>
</mask>
<g mask="url(#mask0_151_131)">
<path d="M395.939 241.44V221.355H379.452V201.252H362.947V181.15H346.442V161.065H329.955V140.962H313.45V120.859H296.963V100.757H280.458V80.6719H263.954V60.5693H247.466V40.4668H230.962V20.3817H214.457V0.279175H197.97V20.3817H181.465V40.4668H164.978V60.5693H148.473V80.6719H131.969V100.757H115.481V120.859H98.9766V140.962H82.4719V161.065H65.9847V181.15H49.48V201.252H32.9928V221.355H16.4881V241.44H-0.0166016V261.542H16.4881V281.645H32.9928V301.747H49.48V321.832H65.9847V341.935H82.4719V362.037H98.9766V382.123H115.481V402.225H131.969V422.328H148.473V442.413H164.978V462.515H181.465V482.618H197.97V502.72H214.457V482.618H230.962V462.515H247.466V442.413H263.954V422.328H280.458V402.225H296.963V382.123H313.45V362.037H329.955V341.935H346.442V321.832H362.947V301.747H379.452V281.645H395.939V261.542H412.443V241.44H395.939Z" fill="#265C43"/>
</g>
<path d="M247.465 321.833H263.952V301.73H247.465V321.833Z" fill="#4BBD7E"/>
<path d="M329.955 301.73V281.645H296.963V301.73H329.955Z" fill="white"/>
<path d="M329.955 221.355V181.15H296.963V221.355H329.955Z" fill="white"/>
<path d="M115.48 362.038V382.123H131.968V362.038H115.48Z" fill="#3C9564"/>
<path d="M98.9756 341.935V362.038H115.48V341.935H98.9756Z" fill="#3C9564"/>
<path d="M82.4717 321.832V341.935H98.9764V321.832H82.4717Z" fill="#3C9564"/>
<path d="M65.9824 301.73V321.833H82.4696V301.73H65.9824Z" fill="#3C9564"/>
<path d="M49.4775 281.645V301.73H65.9822V281.645H49.4775Z" fill="#3C9564"/>
<path d="M32.9932 261.542V281.645H49.4804V261.542H32.9932Z" fill="#3C9564"/>
<path d="M32.9932 221.355V241.44H49.4804V221.355H32.9932Z" fill="#3C9564"/>
<path d="M65.9822 201.252H49.4775V221.355H65.9822V201.252Z" fill="#3C9564"/>
<path d="M82.4696 181.15H65.9824V201.252H82.4696V181.15Z" fill="#3C9564"/>
<path d="M98.9764 161.065H82.4717V181.15H98.9764V161.065Z" fill="#3C9564"/>
<path d="M115.48 140.962H98.9756V161.065H115.48V140.962Z" fill="#3C9564"/>
<path d="M131.968 120.86H115.48V140.962H131.968V120.86Z" fill="#3C9564"/>
<path d="M148.473 100.757H131.969V120.86H148.473V100.757Z" fill="#3C9564"/>
<path d="M164.978 80.6719H148.474V100.774H164.978V80.6719Z" fill="#3C9564"/>
<path d="M164.979 442.413H181.466V422.328H164.979V442.413Z" fill="#42A56E"/>
<path d="M148.474 402.225V422.328H164.978V402.225H148.474Z" fill="#42A56E"/>
<path d="M131.969 382.123V402.225H148.473V382.123H131.969Z" fill="#42A56E"/>
<path d="M131.968 341.935H115.48V362.038H131.968V341.935Z" fill="#42A56E"/>
<path d="M115.48 321.832H98.9756V341.935H115.48V321.832Z" fill="#42A56E"/>
<path d="M98.9764 301.73H82.4717V321.833H98.9764V301.73Z" fill="#42A56E"/>
<path d="M82.4696 281.645H65.9824V301.73H82.4696V281.645Z" fill="#42A56E"/>
<path d="M65.9822 261.542H49.4775V281.645H65.9822V261.542Z" fill="#42A56E"/>
<path d="M49.4775 221.355V241.44H65.9822V221.355H49.4775Z" fill="#42A56E"/>
<path d="M82.4696 221.355V201.252H65.9824V221.355H82.4696Z" fill="#42A56E"/>
<path d="M98.9764 201.252V181.15H82.4717V201.252H98.9764Z" fill="#42A56E"/>
<path d="M115.48 181.15V161.065H98.9756V181.15H115.48Z" fill="#42A56E"/>
<path d="M131.968 161.065V140.962H115.48V161.065H131.968Z" fill="#42A56E"/>
<path d="M164.978 120.86V100.757H148.474V120.86H164.978Z" fill="#42A56E"/>
<path d="M181.463 60.5696H164.958V80.6721H181.463V60.5696Z" fill="#42A56E"/>
<path d="M230.961 442.413H247.466V422.328H230.961V442.413Z" fill="#4DC081"/>
<path d="M230.962 382.122V362.037H247.467V301.73H263.954V281.645H280.459V261.542H148.473V241.44H280.459V221.355H263.954V201.252H247.467V140.962H230.962V100.757H214.457V40.4667H197.97V100.757H181.465V140.962H164.978V181.15H148.473V221.355H131.969V281.645H148.473V321.832H164.978V362.037H181.465V402.225H197.97V462.515H214.457V402.225H230.962V382.122Z" fill="#4DC081"/>
<path d="M164.978 382.123H148.474V402.225H164.978V382.123Z" fill="#4DC081"/>
<path d="M148.473 362.038V341.935H131.969V382.123H148.473V362.038Z" fill="#4DC081"/>
<path d="M82.4696 281.645V301.73H98.9743V321.833H115.479V341.935H131.966V301.73H115.479V201.252H131.966V161.065H115.479V181.15H98.9743V201.252H82.4696V221.355H65.9824V241.44H98.9743V261.543H65.9824V281.645H82.4696Z" fill="#4DC081"/>
<path d="M346.441 261.542H296.961V281.645H329.953V301.747H280.457V341.935H263.952V382.123H247.465V422.328H263.952V402.225H280.457V382.123H296.961V362.038H313.449V341.935H329.953V321.833H346.441V301.747H362.945V281.645H379.45V261.542H346.441Z" fill="#4DC081"/>
<path d="M362.947 221.355V201.252H346.442V181.15H329.955V221.355H296.963V241.44H379.451V221.355H362.947Z" fill="#4DC081"/>
<path d="M313.449 181.15H329.953V161.065H313.449V140.962H296.961V120.86H280.457V100.774H263.952V80.6719H247.465V120.86H263.952V181.15H280.457V201.252H296.961V181.15H313.449Z" fill="#4DC081"/>
<path d="M131.969 161.065H148.473V120.86H131.969V161.065Z" fill="#4DC081"/>
<path d="M230.961 60.5696V80.6721H247.466V60.5696H230.961Z" fill="#4DC081"/>
</svg>
