<svg width="328" height="84" viewBox="0 0 328 84" fill="none" xmlns="http://www.w3.org/2000/svg">
<mask id="mask0_644_157" style="mask-type:luminance" maskUnits="userSpaceOnUse" x="-1" y="0" width="329" height="84">
<path d="M327.371 83.7417L-0.00390625 83.7417V0.000679016L327.371 0.000679016V83.7417Z" fill="white"/>
</mask>
<g mask="url(#mask0_644_157)">
<path d="M0.601013 79.7464V80.89H1.13684V81.4606H1.67264V82.0311H2.20847V82.6042H2.74426V83.157H3.81589V83.7275L323.637 83.7275V83.157H324.709V82.5864H325.245V82.0134H325.78V81.4428H326.316V80.8723H326.835V79.7286H327.371V4.05135H326.835V2.91026H326.299V2.33971H325.764V1.76662H325.228V1.19608H324.692V0.625534H323.62V0.054985L3.81589 0.054985V0.625534H2.74426V1.19608H2.20847V1.76662H1.67264V2.33971H1.13684V2.91026H0.601013V4.05135H0.0652161V79.7464H0.601013Z" fill="#42A56E"/>
</g>
<path d="M1.67288 79.1757V80.3193H2.20868V80.8898H2.74451V81.4604H3.28033V82.0309H4.35196V82.604L323.102 82.604V82.0309H324.173V81.4604H324.709V80.8898H325.245V80.3193H325.781V79.1757H326.316V4.62423H325.781V3.4806H325.245V2.91005H324.709V2.33951H324.173V1.76643H323.102V1.19588L4.33527 1.19588V1.76643H3.26364V2.33951H2.72784V2.91005H2.19202V3.4806H1.65622V4.62423H1.12039V79.1757H1.67288ZM3.28033 5.19478H3.81613V4.62423H4.35196V4.05115H4.88776V3.4806L322.566 3.4806V4.05115H323.102V4.62423H323.637V5.19478H324.173V78.6051H323.637V79.1757H323.102V79.7462H322.566V80.3193L4.87109 80.3193V79.7462H4.33527V79.1757H3.79947V78.6051H3.26364V5.19478H3.28033Z" fill="#FFEECC"/>
<mask id="path-4-outside-1_644_157" maskUnits="userSpaceOnUse" x="16.25" y="19.8242" width="294" height="46" fill="black">
<rect fill="white" x="16.25" y="19.8242" width="294" height="46"/>
<path d="M37.2383 57.5621V44.7551H28.7037V57.5621H37.2383ZM37.2383 40.4826V27.686H28.7037V40.4826H37.2383ZM20.1691 61.8242V23.4135H41.5108V27.686H45.7728V40.4826H41.5108V44.7551H45.7728V57.5621H41.5108V61.8242H20.1691ZM76.942 57.5621V27.686H68.4075V57.5621H76.942ZM64.135 61.8242V57.5621H59.8729V27.686H64.135V23.4135H81.2145V27.686H85.4766V57.5621H81.2145V61.8242H64.135ZM103.839 61.8242V57.5621H99.5767V23.4135H108.111V57.5621H116.646V23.4135H125.18V57.5621H120.918V61.8242H103.839ZM139.28 61.8242V23.4135H147.815V31.948H152.077V36.2205H156.35V23.4135H164.884V61.8242H156.35V44.7551H152.077V40.4826H147.815V61.8242H139.28ZM187.519 61.8242V27.686H178.984V23.4135H204.588V27.686H196.053V61.8242H187.519ZM218.688 61.8242V23.4135H227.222V61.8242H218.688ZM241.302 61.8242V23.4135H266.905V27.686H249.836V40.4826H262.643V44.7551H249.836V57.5621H266.905V61.8242H241.302ZM285.268 61.8242V57.5621H281.005V53.2897H289.54V57.5621H298.075V44.7551H285.268V40.4826H281.005V27.686H285.268V23.4135H302.347V27.686H306.609V31.948H298.075V27.686H289.54V40.4826H302.347V44.7551H306.609V57.5621H302.347V61.8242H285.268Z"/>
</mask>
<path d="M37.2383 57.5621V44.7551H28.7037V57.5621H37.2383ZM37.2383 40.4826V27.686H28.7037V40.4826H37.2383ZM20.1691 61.8242V23.4135H41.5108V27.686H45.7728V40.4826H41.5108V44.7551H45.7728V57.5621H41.5108V61.8242H20.1691ZM76.942 57.5621V27.686H68.4075V57.5621H76.942ZM64.135 61.8242V57.5621H59.8729V27.686H64.135V23.4135H81.2145V27.686H85.4766V57.5621H81.2145V61.8242H64.135ZM103.839 61.8242V57.5621H99.5767V23.4135H108.111V57.5621H116.646V23.4135H125.18V57.5621H120.918V61.8242H103.839ZM139.28 61.8242V23.4135H147.815V31.948H152.077V36.2205H156.35V23.4135H164.884V61.8242H156.35V44.7551H152.077V40.4826H147.815V61.8242H139.28ZM187.519 61.8242V27.686H178.984V23.4135H204.588V27.686H196.053V61.8242H187.519ZM218.688 61.8242V23.4135H227.222V61.8242H218.688ZM241.302 61.8242V23.4135H266.905V27.686H249.836V40.4826H262.643V44.7551H249.836V57.5621H266.905V61.8242H241.302ZM285.268 61.8242V57.5621H281.005V53.2897H289.54V57.5621H298.075V44.7551H285.268V40.4826H281.005V27.686H285.268V23.4135H302.347V27.686H306.609V31.948H298.075V27.686H289.54V40.4826H302.347V44.7551H306.609V57.5621H302.347V61.8242H285.268Z" fill="#FFEECC"/>
<path d="M37.2383 57.5621V61.1191H40.7952V57.5621H37.2383ZM37.2383 44.7551H40.7952V41.1982H37.2383V44.7551ZM28.7037 44.7551V41.1982H25.1468V44.7551H28.7037ZM28.7037 57.5621H25.1468V61.1191H28.7037V57.5621ZM37.2383 40.4826V44.0395H40.7952V40.4826H37.2383ZM37.2383 27.686H40.7952V24.129H37.2383V27.686ZM28.7037 27.686V24.129H25.1468V27.686H28.7037ZM28.7037 40.4826H25.1468V44.0395H28.7037V40.4826ZM20.1691 61.8242H16.6122V65.3812H20.1691V61.8242ZM20.1691 23.4135V19.8565H16.6122V23.4135H20.1691ZM41.5108 23.4135H45.0677V19.8565H41.5108V23.4135ZM41.5108 27.686H37.9538V31.2429H41.5108V27.686ZM45.7728 27.686H49.3298V24.129H45.7728V27.686ZM45.7728 40.4826V44.0395H49.3298V40.4826H45.7728ZM41.5108 40.4826V36.9257H37.9538V40.4826H41.5108ZM41.5108 44.7551H37.9538V48.312H41.5108V44.7551ZM45.7728 44.7551H49.3298V41.1982H45.7728V44.7551ZM45.7728 57.5621V61.1191H49.3298V57.5621H45.7728ZM41.5108 57.5621V54.0052H37.9538V57.5621H41.5108ZM41.5108 61.8242V65.3812H45.0677V61.8242H41.5108ZM40.7952 57.5621V44.7551H33.6813V57.5621H40.7952ZM37.2383 41.1982H28.7037V48.312H37.2383V41.1982ZM25.1468 44.7551V57.5621H32.2606V44.7551H25.1468ZM28.7037 61.1191H37.2383V54.0052H28.7037V61.1191ZM40.7952 40.4826V27.686H33.6813V40.4826H40.7952ZM37.2383 24.129H28.7037V31.2429H37.2383V24.129ZM25.1468 27.686V40.4826H32.2606V27.686H25.1468ZM28.7037 44.0395H37.2383V36.9257H28.7037V44.0395ZM23.7261 61.8242V23.4135H16.6122V61.8242H23.7261ZM20.1691 26.9704H41.5108V19.8565H20.1691V26.9704ZM37.9538 23.4135V27.686H45.0677V23.4135H37.9538ZM41.5108 31.2429H45.7728V24.129H41.5108V31.2429ZM42.2159 27.686V40.4826H49.3298V27.686H42.2159ZM45.7728 36.9257H41.5108V44.0395H45.7728V36.9257ZM37.9538 40.4826V44.7551H45.0677V40.4826H37.9538ZM41.5108 48.312H45.7728V41.1982H41.5108V48.312ZM42.2159 44.7551V57.5621H49.3298V44.7551H42.2159ZM45.7728 54.0052H41.5108V61.1191H45.7728V54.0052ZM37.9538 57.5621V61.8242H45.0677V57.5621H37.9538ZM41.5108 58.2673H20.1691V65.3812H41.5108V58.2673ZM76.942 57.5621V61.1191H80.499V57.5621H76.942ZM76.942 27.686H80.499V24.129H76.942V27.686ZM68.4075 27.686V24.129H64.8505V27.686H68.4075ZM68.4075 57.5621H64.8505V61.1191H68.4075V57.5621ZM64.135 61.8242H60.578V65.3812H64.135V61.8242ZM64.135 57.5621H67.6919V54.0052H64.135V57.5621ZM59.8729 57.5621H56.316V61.1191H59.8729V57.5621ZM59.8729 27.686V24.129H56.316V27.686H59.8729ZM64.135 27.686V31.2429H67.6919V27.686H64.135ZM64.135 23.4135V19.8565H60.578V23.4135H64.135ZM81.2145 23.4135H84.7715V19.8565H81.2145V23.4135ZM81.2145 27.686H77.6576V31.2429H81.2145V27.686ZM85.4766 27.686H89.0335V24.129H85.4766V27.686ZM85.4766 57.5621V61.1191H89.0335V57.5621H85.4766ZM81.2145 57.5621V54.0052H77.6576V57.5621H81.2145ZM81.2145 61.8242V65.3812H84.7715V61.8242H81.2145ZM80.499 57.5621V27.686H73.3851V57.5621H80.499ZM76.942 24.129H68.4075V31.2429H76.942V24.129ZM64.8505 27.686V57.5621H71.9644V27.686H64.8505ZM68.4075 61.1191H76.942V54.0052H68.4075V61.1191ZM67.6919 61.8242V57.5621H60.578V61.8242H67.6919ZM64.135 54.0052H59.8729V61.1191H64.135V54.0052ZM63.4298 57.5621V27.686H56.316V57.5621H63.4298ZM59.8729 31.2429H64.135V24.129H59.8729V31.2429ZM67.6919 27.686V23.4135H60.578V27.686H67.6919ZM64.135 26.9704H81.2145V19.8565H64.135V26.9704ZM77.6576 23.4135V27.686H84.7715V23.4135H77.6576ZM81.2145 31.2429H85.4766V24.129H81.2145V31.2429ZM81.9197 27.686V57.5621H89.0335V27.686H81.9197ZM85.4766 54.0052H81.2145V61.1191H85.4766V54.0052ZM77.6576 57.5621V61.8242H84.7715V57.5621H77.6576ZM81.2145 58.2673H64.135V65.3812H81.2145V58.2673ZM103.839 61.8242H100.282V65.3812H103.839V61.8242ZM103.839 57.5621H107.396V54.0052H103.839V57.5621ZM99.5767 57.5621H96.0197V61.1191H99.5767V57.5621ZM99.5767 23.4135V19.8565H96.0197V23.4135H99.5767ZM108.111 23.4135H111.668V19.8565H108.111V23.4135ZM108.111 57.5621H104.554V61.1191H108.111V57.5621ZM116.646 57.5621V61.1191H120.203V57.5621H116.646ZM116.646 23.4135V19.8565H113.089V23.4135H116.646ZM125.18 23.4135H128.737V19.8565H125.18V23.4135ZM125.18 57.5621V61.1191H128.737V57.5621H125.18ZM120.918 57.5621V54.0052H117.361V57.5621H120.918ZM120.918 61.8242V65.3812H124.475V61.8242H120.918ZM107.396 61.8242V57.5621H100.282V61.8242H107.396ZM103.839 54.0052H99.5767V61.1191H103.839V54.0052ZM103.134 57.5621V23.4135H96.0197V57.5621H103.134ZM99.5767 26.9704H108.111V19.8565H99.5767V26.9704ZM104.554 23.4135V57.5621H111.668V23.4135H104.554ZM108.111 61.1191H116.646V54.0052H108.111V61.1191ZM120.203 57.5621V23.4135H113.089V57.5621H120.203ZM116.646 26.9704H125.18V19.8565H116.646V26.9704ZM121.623 23.4135V57.5621H128.737V23.4135H121.623ZM125.18 54.0052H120.918V61.1191H125.18V54.0052ZM117.361 57.5621V61.8242H124.475V57.5621H117.361ZM120.918 58.2673H103.839V65.3812H120.918V58.2673ZM139.28 61.8242H135.723V65.3812H139.28V61.8242ZM139.28 23.4135V19.8565H135.723V23.4135H139.28ZM147.815 23.4135H151.372V19.8565H147.815V23.4135ZM147.815 31.948H144.258V35.505H147.815V31.948ZM152.077 31.948H155.634V28.3911H152.077V31.948ZM152.077 36.2205H148.52V39.7775H152.077V36.2205ZM156.35 36.2205V39.7775H159.906V36.2205H156.35ZM156.35 23.4135V19.8565H152.793V23.4135H156.35ZM164.884 23.4135H168.441V19.8565H164.884V23.4135ZM164.884 61.8242V65.3812H168.441V61.8242H164.884ZM156.35 61.8242H152.793V65.3812H156.35V61.8242ZM156.35 44.7551H159.906V41.1982H156.35V44.7551ZM152.077 44.7551H148.52V48.312H152.077V44.7551ZM152.077 40.4826H155.634V36.9257H152.077V40.4826ZM147.815 40.4826V36.9257H144.258V40.4826H147.815ZM147.815 61.8242V65.3812H151.372V61.8242H147.815ZM142.837 61.8242V23.4135H135.723V61.8242H142.837ZM139.28 26.9704H147.815V19.8565H139.28V26.9704ZM144.258 23.4135V31.948H151.372V23.4135H144.258ZM147.815 35.505H152.077V28.3911H147.815V35.505ZM148.52 31.948V36.2205H155.634V31.948H148.52ZM152.077 39.7775H156.35V32.6636H152.077V39.7775ZM159.906 36.2205V23.4135H152.793V36.2205H159.906ZM156.35 26.9704H164.884V19.8565H156.35V26.9704ZM161.327 23.4135V61.8242H168.441V23.4135H161.327ZM164.884 58.2673H156.35V65.3812H164.884V58.2673ZM159.906 61.8242V44.7551H152.793V61.8242H159.906ZM156.35 41.1982H152.077V48.312H156.35V41.1982ZM155.634 44.7551V40.4826H148.52V44.7551H155.634ZM152.077 36.9257H147.815V44.0395H152.077V36.9257ZM144.258 40.4826V61.8242H151.372V40.4826H144.258ZM147.815 58.2673H139.28V65.3812H147.815V58.2673ZM187.519 61.8242H183.962V65.3812H187.519V61.8242ZM187.519 27.686H191.076V24.129H187.519V27.686ZM178.984 27.686H175.427V31.2429H178.984V27.686ZM178.984 23.4135V19.8565H175.427V23.4135H178.984ZM204.588 23.4135H208.145V19.8565H204.588V23.4135ZM204.588 27.686V31.2429H208.145V27.686H204.588ZM196.053 27.686V24.129H192.496V27.686H196.053ZM196.053 61.8242V65.3812H199.61V61.8242H196.053ZM191.076 61.8242V27.686H183.962V61.8242H191.076ZM187.519 24.129H178.984V31.2429H187.519V24.129ZM182.541 27.686V23.4135H175.427V27.686H182.541ZM178.984 26.9704H204.588V19.8565H178.984V26.9704ZM201.031 23.4135V27.686H208.145V23.4135H201.031ZM204.588 24.129H196.053V31.2429H204.588V24.129ZM192.496 27.686V61.8242H199.61V27.686H192.496ZM196.053 58.2673H187.519V65.3812H196.053V58.2673ZM218.688 61.8242H215.131V65.3812H218.688V61.8242ZM218.688 23.4135V19.8565H215.131V23.4135H218.688ZM227.222 23.4135H230.779V19.8565H227.222V23.4135ZM227.222 61.8242V65.3812H230.779V61.8242H227.222ZM222.245 61.8242V23.4135H215.131V61.8242H222.245ZM218.688 26.9704H227.222V19.8565H218.688V26.9704ZM223.666 23.4135V61.8242H230.779V23.4135H223.666ZM227.222 58.2673H218.688V65.3812H227.222V58.2673ZM241.302 61.8242H237.745V65.3812H241.302V61.8242ZM241.302 23.4135V19.8565H237.745V23.4135H241.302ZM266.905 23.4135H270.462V19.8565H266.905V23.4135ZM266.905 27.686V31.2429H270.462V27.686H266.905ZM249.836 27.686V24.129H246.279V27.686H249.836ZM249.836 40.4826H246.279V44.0395H249.836V40.4826ZM262.643 40.4826H266.2V36.9257H262.643V40.4826ZM262.643 44.7551V48.312H266.2V44.7551H262.643ZM249.836 44.7551V41.1982H246.279V44.7551H249.836ZM249.836 57.5621H246.279V61.1191H249.836V57.5621ZM266.905 57.5621H270.462V54.0052H266.905V57.5621ZM266.905 61.8242V65.3812H270.462V61.8242H266.905ZM244.859 61.8242V23.4135H237.745V61.8242H244.859ZM241.302 26.9704H266.905V19.8565H241.302V26.9704ZM263.348 23.4135V27.686H270.462V23.4135H263.348ZM266.905 24.129H249.836V31.2429H266.905V24.129ZM246.279 27.686V40.4826H253.393V27.686H246.279ZM249.836 44.0395H262.643V36.9257H249.836V44.0395ZM259.086 40.4826V44.7551H266.2V40.4826H259.086ZM262.643 41.1982H249.836V48.312H262.643V41.1982ZM246.279 44.7551V57.5621H253.393V44.7551H246.279ZM249.836 61.1191H266.905V54.0052H249.836V61.1191ZM263.348 57.5621V61.8242H270.462V57.5621H263.348ZM266.905 58.2673H241.302V65.3812H266.905V58.2673ZM285.268 61.8242H281.711V65.3812H285.268V61.8242ZM285.268 57.5621H288.824V54.0052H285.268V57.5621ZM281.005 57.5621H277.449V61.1191H281.005V57.5621ZM281.005 53.2897V49.7327H277.449V53.2897H281.005ZM289.54 53.2897H293.097V49.7327H289.54V53.2897ZM289.54 57.5621H285.983V61.1191H289.54V57.5621ZM298.075 57.5621V61.1191H301.632V57.5621H298.075ZM298.075 44.7551H301.632V41.1982H298.075V44.7551ZM285.268 44.7551H281.711V48.312H285.268V44.7551ZM285.268 40.4826H288.824V36.9257H285.268V40.4826ZM281.005 40.4826H277.449V44.0395H281.005V40.4826ZM281.005 27.686V24.129H277.449V27.686H281.005ZM285.268 27.686V31.2429H288.824V27.686H285.268ZM285.268 23.4135V19.8565H281.711V23.4135H285.268ZM302.347 23.4135H305.904V19.8565H302.347V23.4135ZM302.347 27.686H298.79V31.2429H302.347V27.686ZM306.609 27.686H310.166V24.129H306.609V27.686ZM306.609 31.948V35.505H310.166V31.948H306.609ZM298.075 31.948H294.518V35.505H298.075V31.948ZM298.075 27.686H301.632V24.129H298.075V27.686ZM289.54 27.686V24.129H285.983V27.686H289.54ZM289.54 40.4826H285.983V44.0395H289.54V40.4826ZM302.347 40.4826H305.904V36.9257H302.347V40.4826ZM302.347 44.7551H298.79V48.312H302.347V44.7551ZM306.609 44.7551H310.166V41.1982H306.609V44.7551ZM306.609 57.5621V61.1191H310.166V57.5621H306.609ZM302.347 57.5621V54.0052H298.79V57.5621H302.347ZM302.347 61.8242V65.3812H305.904V61.8242H302.347ZM288.824 61.8242V57.5621H281.711V61.8242H288.824ZM285.268 54.0052H281.005V61.1191H285.268V54.0052ZM284.562 57.5621V53.2897H277.449V57.5621H284.562ZM281.005 56.8466H289.54V49.7327H281.005V56.8466ZM285.983 53.2897V57.5621H293.097V53.2897H285.983ZM289.54 61.1191H298.075V54.0052H289.54V61.1191ZM301.632 57.5621V44.7551H294.518V57.5621H301.632ZM298.075 41.1982H285.268V48.312H298.075V41.1982ZM288.824 44.7551V40.4826H281.711V44.7551H288.824ZM285.268 36.9257H281.005V44.0395H285.268V36.9257ZM284.562 40.4826V27.686H277.449V40.4826H284.562ZM281.005 31.2429H285.268V24.129H281.005V31.2429ZM288.824 27.686V23.4135H281.711V27.686H288.824ZM285.268 26.9704H302.347V19.8565H285.268V26.9704ZM298.79 23.4135V27.686H305.904V23.4135H298.79ZM302.347 31.2429H306.609V24.129H302.347V31.2429ZM303.052 27.686V31.948H310.166V27.686H303.052ZM306.609 28.3911H298.075V35.505H306.609V28.3911ZM301.632 31.948V27.686H294.518V31.948H301.632ZM298.075 24.129H289.54V31.2429H298.075V24.129ZM285.983 27.686V40.4826H293.097V27.686H285.983ZM289.54 44.0395H302.347V36.9257H289.54V44.0395ZM298.79 40.4826V44.7551H305.904V40.4826H298.79ZM302.347 48.312H306.609V41.1982H302.347V48.312ZM303.052 44.7551V57.5621H310.166V44.7551H303.052ZM306.609 54.0052H302.347V61.1191H306.609V54.0052ZM298.79 57.5621V61.8242H305.904V57.5621H298.79ZM302.347 58.2673H285.268V65.3812H302.347V58.2673Z" fill="black" mask="url(#path-4-outside-1_644_157)"/>
</svg>
