<svg width="279" height="291" viewBox="0 0 279 291" fill="none" xmlns="http://www.w3.org/2000/svg">
<path d="M14.2262 0.519226H111.688V14.3269H125.611V97.1731H139.534V110.981H167.38V124.788H195.226V138.596H209.149V152.404H236.995V138.596H250.918V124.788H264.842V97.1731H278.765V166.212H264.842V180.019H236.995V193.827H209.149V207.635H195.226V221.442H181.303V290.481H153.457V276.673H167.38V262.865H153.457V249.058H139.534V235.25H125.611V249.058H111.688V290.481H83.8416V276.673H97.7646V221.442H83.8416V207.635H69.9185V180.019H55.9954V152.415H42.0723V166.223H28.1492V138.607H55.9954V97.1731H14.2262V69.5577H28.1492V83.3654H42.0723V69.5577H55.9954V83.3654H69.9185V69.5577H55.9954V55.75H42.0723V69.5577H28.1492V55.75H14.2262V69.5577H0.303101V14.3269H14.2262V0.519226ZM83.8416 28.1346H97.7646V14.3269H83.8416V28.1346Z" fill="white"/>
</svg>
