<svg width="689" height="689" viewBox="0 0 689 689" fill="none" xmlns="http://www.w3.org/2000/svg">
<mask id="mask0_86_516" style="mask-type:luminance" maskUnits="userSpaceOnUse" x="1" y="56" width="687" height="632">
<path d="M1.37598 56.4365H687.399V687.464H1.37598V56.4365Z" fill="white"/>
</mask>
<g mask="url(#mask0_86_516)">
<mask id="mask1_86_516" style="mask-type:luminance" maskUnits="userSpaceOnUse" x="1" y="56" width="687" height="632">
<path d="M686.873 121.019L687.013 687.009H1.37598V56.8569H686.873V121.019Z" fill="white"/>
</mask>
<g mask="url(#mask1_86_516)">
<path d="M0 0H688.253V688.249H0V0Z" fill="#CFE7CD"/>
</g>
</g>
<mask id="mask2_86_516" style="mask-type:luminance" maskUnits="userSpaceOnUse" x="1" y="1" width="687" height="57">
<path d="M1.37598 1.37598H687.399V57.0104H1.37598V1.37598Z" fill="white"/>
</mask>
<g mask="url(#mask2_86_516)">
<mask id="mask3_86_516" style="mask-type:luminance" maskUnits="userSpaceOnUse" x="1" y="1" width="687" height="56">
<path d="M686.873 1.37598V26.5684L687.013 56.8571H1.37598V1.37598H686.873Z" fill="white"/>
</mask>
<g mask="url(#mask3_86_516)">
<path d="M0 0H688.253V688.249H0V0Z" fill="#4DC081"/>
</g>
</g>
<mask id="mask4_86_516" style="mask-type:luminance" maskUnits="userSpaceOnUse" x="548" y="14" width="140" height="674">
<path d="M593.531 14.04H623.82V44.3288H593.531V14.04ZM638.412 14.04H668.701V44.3288H638.412V14.04ZM548.786 14.04H579.075V44.3288H548.786V14.04ZM661.269 56.857H687.013V687.009H661.269V56.857Z" fill="white"/>
</mask>
<g mask="url(#mask4_86_516)">
<path d="M0 0H688.253V688.249H0V0Z" fill="#00BF63"/>
</g>
<mask id="mask5_86_516" style="mask-type:luminance" maskUnits="userSpaceOnUse" x="661" y="178" width="27" height="243">
<path d="M661.269 178.016H687.013V420.602H661.269V178.016Z" fill="white"/>
</mask>
<g mask="url(#mask5_86_516)">
<path d="M0 0H688.253V688.249H0V0Z" fill="#4DC081"/>
</g>
<mask id="mask6_86_516" style="mask-type:luminance" maskUnits="userSpaceOnUse" x="0" y="0" width="689" height="689">
<path d="M0 0H688.253V688.586H0V0Z" fill="white"/>
</mask>
<g mask="url(#mask6_86_516)">
<mask id="mask7_86_516" style="mask-type:luminance" maskUnits="userSpaceOnUse" x="0" y="0" width="689" height="689">
<path d="M1.37596 688.385C0.687981 688.385 0 687.837 0 687.009V1.37596C0 0.687982 0.687981 0 1.37596 0H687.013C687.425 0 687.837 0.135843 687.977 0.547756C688.253 0.823824 688.253 1.09989 688.253 1.51181V687.009C688.253 687.697 687.701 688.385 686.873 688.385H1.37596ZM685.497 685.497V421.978H662.644V685.497H685.497ZM659.752 685.497V58.2374H2.89215V685.497H659.752ZM685.497 419.09V179.528H662.644V419.09H685.497ZM685.497 176.64V58.2374H662.644V176.64H685.497ZM685.637 55.4811V2.88777H2.89215V55.4811H685.637ZM638.412 45.7091C637.724 45.7091 637.036 45.157 637.036 44.3288V14.0401C637.036 13.2163 637.724 12.6641 638.412 12.6641H668.7C669.388 12.6641 670.076 13.2163 670.076 14.0401V44.3288C670.076 45.0168 669.529 45.7091 668.7 45.7091H638.412ZM667.324 42.817V15.416H639.928V42.817H667.324ZM593.667 45.7091C592.979 45.7091 592.291 45.157 592.291 44.3288V14.0401C592.291 13.3521 592.843 12.6641 593.667 12.6641H623.955C624.507 12.6641 624.919 12.8043 625.06 13.076C625.331 13.3521 625.331 13.6282 625.331 14.0401V44.1929C625.331 44.8809 624.784 45.5689 623.955 45.5689H593.667V45.7091ZM622.444 42.817V15.416H595.043V42.817H622.444ZM548.786 45.7091C548.098 45.7091 547.405 45.157 547.405 44.3288V14.0401C547.405 13.3521 547.958 12.6641 548.786 12.6641H579.074C579.622 12.6641 580.038 12.8043 580.174 13.076C580.45 13.3521 580.45 13.6282 580.45 14.0401V44.1929C580.45 44.8809 579.898 45.5689 579.074 45.5689H548.786V45.7091ZM577.698 42.817V15.416H550.297V42.817H577.698ZM661.128 38.137C660.852 38.137 660.44 37.9967 660.164 37.8609L653.556 31.2528L646.948 37.8609C646.536 38.2728 646.26 38.2728 645.984 38.2728C645.708 38.2728 645.296 38.137 645.02 37.9967C644.472 37.4446 644.472 36.4849 644.884 35.9328L651.492 29.3247L644.884 22.7165C644.332 22.1644 644.332 21.2003 644.884 20.6482C645.16 20.3765 645.432 20.2363 645.848 20.2363C646.26 20.2363 646.672 20.3765 646.812 20.6482L653.42 27.2563L660.028 20.6482C660.304 20.3765 660.581 20.2363 660.992 20.2363C661.404 20.2363 661.816 20.3765 661.956 20.6482C662.233 20.9243 662.368 21.3362 662.368 21.8883C662.368 22.3002 662.233 22.5763 661.956 22.7165L655.484 29.1844L662.092 35.7926C662.644 36.3447 662.644 37.3088 662.092 37.8609C661.816 38.137 661.404 38.137 661.128 38.137ZM600.415 38.137C599.727 38.137 599.035 37.4446 599.035 36.7566V21.6123C599.035 20.9243 599.587 20.2363 600.415 20.2363H617.071C617.759 20.2363 618.447 20.7884 618.447 21.6123V36.7566C618.447 37.4446 617.899 38.137 617.071 38.137H600.415ZM615.695 35.2448V26.5684H601.791V35.2448H615.695ZM554.706 38.137C553.878 38.137 553.326 37.4446 553.326 36.7566C553.326 35.9328 554.018 35.3806 554.706 35.3806H573.29C574.118 35.3806 574.666 36.0686 574.666 36.7566C574.666 37.5848 573.978 38.137 573.29 38.137H554.706Z" fill="white"/>
</mask>
<g mask="url(#mask7_86_516)">
<path d="M0 0H688.253V688.249H0V0Z" fill="#020B49"/>
</g>
</g>
<mask id="mask8_86_516" style="mask-type:luminance" maskUnits="userSpaceOnUse" x="15" y="16" width="173" height="30">
<path d="M15.7656 16.6782H187.402V45.2842H15.7656V16.6782Z" fill="white"/>
</mask>
<g mask="url(#mask8_86_516)">
<path d="M46.4938 21.0511H47.883V29.3814H46.4938V30.7705H45.1047V32.164H43.7069V33.5575H42.3178V34.9466H40.9243V36.3401H39.5352V37.7336H38.146V39.1534H36.7526V40.5468H35.3634V41.9403H33.97V43.3294H32.5765V44.7229H31.1874V43.3294H29.7939V41.9403H28.4048V40.5468H27.0113V39.1534H25.6222V37.7642H24.233V36.3664H22.8396V34.9773H21.4461V33.5882H20.0482V32.1947H18.6635V30.8012H17.2744V29.4121H15.8809V21.0511H17.2744V19.6664H18.6635V18.2729H20.0482V16.8838H28.4048V18.2729H29.7939V19.6664H31.1874V21.0511H32.5765V19.6664H33.97V18.2729H35.3634V16.8838H43.6937V18.2729H45.0872V19.6664H46.4763L46.4938 21.0511ZM81.3092 19.7979H79.9201V18.4175H78.5266V17.0284H70.192V18.4175H68.7985V19.811H67.3874V21.2001H65.9983V19.811H64.6049V18.4175H63.2201V17.0284H54.8899V18.4175H53.4788V19.811H52.0897V21.2001H50.6962V29.5567H52.0897V30.9458H53.4788V32.3393H54.8899V33.7284H56.279V35.1219H57.6681V36.511H59.0528V37.9045H60.4463V39.298H61.8354V40.6915H63.2201V42.0849H64.6092V43.4741H66.0027V44.8675H67.3874V43.4741H68.7766V42.0849H70.17V40.6915H71.5504V39.298H72.9483V37.9045H74.3374V36.511H75.7265V35.1219H77.12V33.7284H78.5091V32.3393H79.9026V30.9458H81.2917V29.5567H82.6808V21.2001H81.2917L81.3092 19.7979ZM116.151 19.7979H114.762V18.4175H113.368V17.0284H105.034V18.4175H103.64V19.811H102.229V21.2001H100.84V19.811H99.4465V18.4175H98.0618V17.0284H89.7315V18.4175H88.338V19.811H86.9489V21.2001H85.5554V29.5567H86.9489V30.9458H88.338V32.3393H89.7315V33.7284H91.1206V35.1219H92.5097V36.511H93.8988V37.9045H95.2879V39.298H96.6771V40.6915H98.0618V42.0849H99.4509V43.4741H100.844V44.8675H102.229V43.4741H103.618V42.0849H105.012V40.6915H106.396V39.298H107.79V37.9045H109.179V36.511H110.568V35.1219H111.962V33.7284H113.351V32.3393H114.744V30.9458H116.133V29.5567H117.527V21.2001H116.133L116.151 19.7979ZM150.993 19.7979H149.603V18.4175H148.21V17.0284H139.875V18.4175H138.482V19.811H137.071V21.2001H135.682V19.811H134.288V18.4175H132.903V17.0284H124.573V18.4175H123.18V19.811H121.791V21.2001H120.397V29.5567H121.791V30.9458H123.18V32.3393H124.573V33.7284H125.962V35.1219H127.351V36.511H128.741V37.9045H130.13V39.298H131.519V40.6915H132.903V42.0849H134.297V43.4741H135.69V44.8675H137.071V43.4741H138.46V42.0849H139.853V40.6915H141.238V39.298H142.632V37.9045H144.021V36.511H145.41V35.1219H146.803V33.7284H148.192V32.3393H149.586V30.9458H150.979V29.5567H152.368V21.2001H150.979L150.993 19.7979ZM185.834 19.7979H184.445V18.4175H183.052V17.0284H174.721V18.4175H173.328V19.811H171.912V21.2001H170.523V19.811H169.13V18.4175H167.749V17.0284H159.415V18.4175H158.021V19.811H156.632V21.2001H155.239V29.5567H156.632V30.9458H158.021V32.3393H159.415V33.7284H160.804V35.1219H162.197V36.511H163.582V37.9045H164.971V39.298H166.36V40.6915H167.749V42.0849H169.139V43.4741H170.532V44.8675H171.912V43.4741H173.302V42.0849H174.695V40.6915H176.08V39.298H177.473V37.9045H178.862V36.511H180.251V35.1219H181.645V33.7284H183.038V32.3393H184.432V30.9458H185.821V29.5567H187.21V21.2001H185.821L185.834 19.7979Z" fill="#ED1C24"/>
</g>
<path d="M99.4588 37.9701H98.0609V36.5678H96.6586V35.17H95.2651V33.7721H93.8629V32.3742H92.465V30.9763H91.0671V28.1762H89.6649V26.7783H88.267V22.5847H89.6649V21.1868H91.0671V19.7846H92.465V21.1868H98.0609V22.5847H99.4588V19.7846H98.0609V18.3867H89.6649V19.7846H88.267V21.1868H86.8691V29.5785H88.267V30.9763H89.6649V32.3742H91.0671V33.7721H92.465V35.17H93.8629V36.5678H95.2651V37.9701H96.6586V39.368H98.0609V40.7702H99.4588V42.1681H100.857V39.368H99.4588V37.9701Z" fill="#FD3038"/>
<path d="M110.647 18.3867H105.055V19.7846H103.657V21.1868H102.255V22.5847H105.055V21.1868H110.647V19.7846H112.049V21.1868H113.447V18.3867H110.647Z" fill="#FD3038"/>
<path d="M100.857 23.9829V22.585H102.255V23.9829H100.857ZM100.857 21.1827H99.4588V22.585H100.857V21.1827ZM32.5975 23.8339V22.4404H31.1996V23.8383L32.5975 23.8339ZM31.1996 22.436H29.8018V21.0513H31.1996V22.436ZM66.015 23.9785V22.585H67.4129V23.9829L66.015 23.9785ZM66.015 22.5806H64.6171V21.1783H66.015V22.5806ZM135.698 23.9785V22.585H137.096V23.9829L135.698 23.9785ZM135.698 22.5806H134.3V21.1783H135.698V22.5806ZM170.54 23.9785V22.585H171.938V23.9829L170.54 23.9785ZM170.54 22.5806H169.142V21.1783H170.54V22.5806ZM45.1871 21.0513H46.585V29.4341H45.1871V30.832H43.7893V32.2299H42.3914V33.6321H40.9891V35.03H39.5913V36.4235H38.1934V37.8257H36.7911V39.228H35.3932V40.6303H33.9998V42.0281H32.5975V43.426H31.1996V40.6259H32.5975V39.228H33.9998V37.8257H35.3932V36.4235H36.7911V35.03H38.1934V33.6321H39.5913V30.832H40.9891V29.4341H42.3914V21.0513H45.1871ZM78.6046 21.1915H77.2067V29.5787H75.8045V30.9766H74.4066V33.7724H73.0087V35.1702H71.6065V36.5769H70.213V37.9791H68.8151V39.377H67.4129V40.7749H66.015V43.5706H67.4129V42.1684H68.8151V40.7705H70.213V39.3682H71.6065V37.9704H73.0087V36.5769H74.4066V35.1702H75.8045V33.7724H77.2067V32.3745H78.6046V30.9766H80.0025V29.5787H81.4004V21.1827H78.6002L78.6046 21.1915ZM113.446 21.1915H112.048V29.5787H110.646V30.9766H109.248V33.7724H107.85V35.1702H106.453V36.5769H105.055V37.9791H103.657V39.377H102.255V40.7749H100.857V43.5706H102.255V42.1684H103.657V40.7705H105.055V39.3682H106.453V37.9704H107.85V36.5769H109.248V35.1702H110.646V33.7724H112.048V32.3745H113.446V30.9766H114.849V29.5787H116.242V21.1827H113.442L113.446 21.1915ZM148.288 21.1915H146.89V29.5787H145.488V30.9766H144.09V33.7724H142.692V35.1702H141.294V36.5769H139.896V37.9791H138.498V39.377H137.096V40.7749H135.698V43.5706H137.096V42.1684H138.498V40.7705H139.896V39.3682H141.294V37.9704H142.692V36.5769H144.09V35.1702H145.488V33.7724H146.89V32.3745H148.288V30.9766H149.69V29.5787H151.084V21.1827H148.284L148.288 21.1915ZM183.13 21.1915H181.732V29.5787H180.329V30.9766H178.936V33.7724H177.538V35.1702H176.136V36.5769H174.738V37.9791H173.34V39.377H171.938V40.7749H170.54V43.5706H171.938V42.1684H173.34V40.7705H174.738V39.3682H176.136V37.9704H177.538V36.5769H178.936V35.1702H180.329V33.7724H181.732V32.3745H183.13V30.9766H184.532V29.5787H185.925V21.1827H183.125L183.13 21.1915Z" fill="#920006"/>
<path d="M22.8084 30.8319H24.2106V32.2298H22.8084V30.8319ZM22.8084 19.6401H21.4105V21.0512H22.8084V19.6401ZM40.9851 21.0424H42.3917V19.6401H40.9895L40.9851 21.0424ZM21.4105 28.0318V21.0512H20.0082V22.4446H18.6104V26.6339H20.0082V28.0318H21.4105ZM21.4105 29.434V30.8319H22.8084V29.434H21.4105ZM57.6237 32.3744H59.0216V30.9765H57.6237V32.3744ZM57.6237 19.7847H56.2258V21.1826H57.6237V19.7847ZM75.8005 21.1826H77.2027V19.7847H75.8005V21.1826ZM56.2215 28.1764V21.1826H54.8192V22.5849H53.4257V26.7785H54.8236V28.1764H56.2215ZM56.2215 29.5786V30.9765H57.6193V29.5786H56.2215ZM92.461 32.3744H93.8589V30.9765H92.461V32.3744ZM92.461 19.7847H91.0631V21.1826H92.461V19.7847ZM110.638 21.1826H112.04V19.7847H110.638V21.1826ZM91.0587 28.1764V21.1826H89.6565V22.5849H88.263V26.7785H89.6565V28.1764H91.0587ZM91.0587 29.5786V30.9765H92.4566V29.5786H91.0587ZM127.298 32.3744H128.696V30.9765H127.298V32.3744ZM127.298 19.7847H125.9V21.1826H127.298V19.7847ZM145.479 21.1826H146.877V19.7847H145.479V21.1826ZM125.9 28.1764V21.1826H124.498V22.5849H123.1V26.7785H124.498V28.1764H125.9ZM125.9 29.5786V30.9765H127.294V29.5786H125.9ZM162.14 32.3744H163.533V30.9765H162.14V32.3744ZM162.14 19.7847H160.742V21.1826H162.14V19.7847ZM180.317 21.1826H181.719V19.7847H180.317V21.1826ZM160.738 28.1764V21.1826H159.335V22.5849H157.938V26.7785H159.335V28.1764H160.738ZM160.738 29.5786V30.9765H162.136V29.5786H160.738Z" fill="white"/>
<path d="M29.8015 39.2278H31.1994V42.0279H29.8015V40.6257H28.3993V39.2278H27.0014V37.8256H25.6035V36.4233H24.21V35.0298H22.8078V33.6319H21.4099V32.2297H20.0077V30.8318H18.6098V29.4339H17.2119V21.0511H18.6098V19.6401H20.0077V18.2422H28.3993V19.6401H29.8015V22.4402H28.3993V21.0511H22.8078V19.6401H21.4099V21.0511H20.0077V22.4446H18.6098V26.6338H20.0077V28.0317H21.4099V30.8318H22.8078V32.2297H24.21V33.6319H25.6123V35.0298H27.0102V36.4233H28.408V37.8256H29.8103L29.8015 39.2278ZM40.9889 18.2422H35.393V19.6401H33.9995V21.0511H32.5973V22.4446H35.393V21.0511H40.9889V19.6401H42.3912V21.0511H43.789V18.2422H40.9889ZM64.6169 37.9702H63.219V36.5767H61.8168V35.17H60.4189V33.7722H59.021V32.3743H57.6232V30.9764H56.2253V28.1763H54.823V26.7784H53.4252V22.5848H54.823V21.1825H56.2253V19.7847H57.6232V21.1825H63.219V22.5848H64.6213V19.7847H63.219V18.3999H54.823V19.7847H53.4252V21.1825H52.0273V29.5785H53.4252V30.9764H54.823V32.3743H56.2253V33.7722H57.6232V35.17H59.021V36.5767H60.4189V37.9789H61.8168V39.3768H63.219V40.7747H64.6213V42.1725H66.0192V39.368H64.6213L64.6169 37.9702ZM75.8043 18.3999H70.2128V19.7847H68.8149V21.1825H67.4126V22.5848H70.2128V21.1825H75.8043V19.7847H77.2065V21.1825H78.6044V18.3999H75.8043ZM134.3 37.9702H132.902V36.5767H131.504V35.17H130.107V33.7722H128.704V32.3743H127.306V30.9764H125.909V28.1763H124.506V26.7784H123.108V22.5848H124.506V21.1825H125.909V19.7847H127.306V21.1825H132.902V22.5848H134.305V19.7847H132.902V18.3999H124.506V19.7847H123.108V21.1825H121.715V29.5785H123.108V30.9764H124.506V32.3743H125.909V33.7722H127.306V35.17H128.704V36.5767H130.107V37.9789H131.504V39.3768H132.902V40.7747H134.305V42.1725H135.702V39.368H134.305L134.3 37.9702ZM145.488 18.3999H139.896V19.7847H138.498V21.1825H137.096V22.5848H139.896V21.1825H145.488V19.7847H146.89V21.1825H148.288V18.3999H145.488ZM169.142 37.9833H167.748V36.5767H166.346V35.17H164.948V33.7722H163.546V32.3743H162.148V30.9764H160.75V28.1763H159.348V26.7784H157.955V22.5848H159.348V21.1825H160.75V19.7847H162.148V21.1825H167.748V22.5848H169.146V19.7847H167.748V18.3999H159.348V19.7847H157.955V21.1825H156.557V29.5785H157.955V30.9764H159.348V32.3743H160.75V33.7722H162.148V35.17H163.546V36.5767H164.948V37.9789H166.346V39.3768H167.748V40.7747H169.146V42.1725H170.544V39.368H169.146L169.142 37.9833ZM180.329 18.3999H174.738V19.7847H173.34V21.1825H171.938V22.5848H174.738V21.1825H180.329V19.7847H181.732V21.1825H183.129V18.3999H180.329Z" fill="#FD3038"/>
<mask id="mask9_86_516" style="mask-type:luminance" maskUnits="userSpaceOnUse" x="15" y="16" width="173" height="30">
<path d="M15.7656 16.6782H187.402V45.2842H15.7656V16.6782Z" fill="white"/>
</mask>
<g mask="url(#mask9_86_516)">
<path d="M46.642 19.5833H45.2441V18.1855H43.8462V16.7876H35.3363V18.1855H33.9428V19.5833H32.5449V20.9856H31.2566V19.5833H29.8587V18.1855H28.4565V16.7876H19.9509V18.1855H18.5531V19.5833H17.1552V20.9856H15.7529V29.4912H17.1552V30.8978H18.5531V32.2957H19.9509V33.6935H21.3532V35.0914H22.7511V36.4893H24.1489V37.8915H25.5468V39.2894H26.9447V40.6917H28.3426V42.0895H29.7448V43.483H31.1427V44.8853H32.6589V43.483H34.0567V42.0808H35.4546V40.6829H36.8525V39.2806H38.2547V37.8828H39.6526V36.4805H41.0505V35.087H42.4527V33.6892H43.8462V32.2869H45.2485V30.8978H46.6464V29.4912H48.0442V20.9856H46.642V19.5833ZM46.528 22.4404V29.3816H45.1302V30.7795H43.7323V32.1773H42.3344V33.5796H40.9322V34.9731H39.5343V36.371H38.1364V37.7732H36.7342V39.1711H35.3363V40.5734H33.9428V41.9712H32.5449V43.3691H31.2566V41.9668H29.8587V40.569H28.4565V39.1667H27.0586V37.7688H25.6607V36.3666H24.2629V34.9731H22.865V33.5752H21.4671V32.173H20.0649V30.7751H18.667V29.3816H17.2691V21.0995H18.667V19.6973H20.0649V18.2994H28.3426V19.6973H29.7448V21.0995H31.1427V22.4974H32.6589V21.0995H34.0567V19.6973H35.4546V18.2994H43.7323V19.6973H45.1302V21.0995H46.528V22.4404ZM81.4573 19.728H80.0595V18.3301H78.6616V16.9278H70.156V18.3301H68.7582V19.728H67.3559V21.1258H66.072V19.728H64.6741V18.3301H63.2762V16.9278H54.7663V18.3301H53.3728V19.728H51.9706V21.1258H50.5683V29.6358H51.9706V31.0336H53.3728V32.4315H54.7707V33.8294H56.1729V35.2273H57.5708V36.6251H58.9687V38.0274H60.3666V39.4253H61.7644V40.8275H63.1623V42.2254H64.5646V43.6233H65.9624V45.0211H67.4786V43.6233H68.8721V42.2254H70.27V40.8275H71.6722V39.4253H73.0657V38.0274H74.4636V36.6251H75.8615V35.2273H77.2637V33.8294H78.6616V32.4315H80.0595V31.0336H81.4573V29.6358H82.8552V21.1258H81.4573V19.728ZM81.3434 22.585V29.5218H79.9499V30.9197H78.5477V32.3176H77.1498V33.7198H75.7475V35.1133H74.3497V36.5112H72.9518V37.9134H71.5495V39.3113H70.156V40.7136H68.7582V42.1114H67.3559V43.5093H66.072V42.1114H64.6741V40.7136H63.2762V39.3113H61.874V37.9134H60.4761V36.5112H59.0782V35.1133H57.6804V33.7198H56.2825V32.3176H54.889V30.9197H53.4824V29.5218H52.0845V21.2398H53.4824V19.8419H54.889V18.444H63.1667V19.8419H64.5689V21.2398H65.9668V22.642H67.4786V21.2398H68.8765V19.8419H70.2744V18.444H78.5521V19.8419H79.9543V21.2398H81.3522L81.3434 22.585ZM116.299 19.728H114.906V18.3301H113.503V16.9278H104.998V18.3301H103.6V19.728H102.198V21.1258H100.914V19.728H99.5158V18.3301H98.1179V16.9278H89.608V18.3301H88.2145V19.728H86.8122V21.1258H85.4143V29.6358H86.8122V31.0336H88.2145V32.4315H89.6123V33.8294H91.0146V35.2273H92.4125V36.6251H93.8103V38.0274H95.2082V39.4253H96.6061V40.8275H98.004V42.2254H99.4062V43.6233H100.804V45.0211H102.32V43.6233H103.718V42.2254H105.112V40.8275H106.514V39.4253H107.907V38.0274H109.305V36.6251H110.703V35.2273H112.105V33.8294H113.503V32.4315H114.906V31.0336H116.299V29.6358H117.697V21.1258H116.299V19.728ZM116.189 22.585V29.5218H114.792V30.9197H113.389V32.3176H111.991V33.7198H110.589V35.1133H109.191V36.5112H107.793V37.9134H106.396V39.3113H104.998V40.7136H103.6V42.1114H102.198V43.5093H100.914V42.1114H99.5158V40.7136H98.1179V39.3113H96.7156V37.9134H95.3221V36.5112H93.9199V35.1133H92.522V33.7198H91.1241V32.3176H89.7307V30.9197H88.3328V29.5218H86.9261V21.2398H88.324V19.8419H89.7307V18.444H98.0083V19.8419H99.4106V21.2398H100.808V22.642H102.325V21.2398H103.718V19.8419H105.116V18.444H113.398V19.8419H114.796V21.2398H116.194L116.189 22.585ZM151.145 19.728H149.747V18.3301H148.345V16.9278H139.839V18.3301H138.441V19.728H137.039V21.1258H135.755V19.728H134.357V18.3301H132.96V16.9278H124.45V18.3301H123.056V19.728H121.658V21.1258H120.256V29.6358H121.658V31.0336H123.056V32.4315H124.454V33.8294H125.856V35.2273H127.254V36.6251H128.652V38.0274H130.054V39.4253H131.452V40.8275H132.846V42.2254H134.248V43.6233H135.646V45.0211H137.162V43.6233H138.56V42.2254H139.958V40.8275H141.356V39.4253H142.749V38.0274H144.147V36.6251H145.545V35.2273H146.947V33.8294H148.345V32.4315H149.747V31.0336H151.145V29.6358H152.543V21.1258H151.145V19.728ZM151.031 22.585V29.5218H149.633V30.9197H148.231V32.3176H146.833V33.7198H145.431V35.1133H144.033V36.5112H142.639V37.9134H141.237V39.3113H139.839V40.7136H138.441V42.1114H137.039V43.5093H135.755V42.1114H134.357V40.7136H132.96V39.3113H131.562V37.9134H130.164V36.5112H128.762V35.1133H127.364V33.7198H125.966V32.3176H124.572V30.9197H123.174V29.5218H121.768V21.2398H123.166V19.8419H124.572V18.444H132.85V19.8419H134.252V21.2398H135.65V22.642H137.166V21.2398H138.564V19.8419H139.958V18.444H148.24V19.8419H149.642V21.2398H151.035L151.031 22.585ZM185.987 19.728H184.589V18.3301H183.187V16.9278H174.681V18.3301H173.283V19.728H171.881V21.1258H170.597V19.728H169.199V18.3301H167.801V16.9278H159.291V18.3301H157.898V19.728H156.5V21.1258H155.098V29.6358H156.5V31.0336H157.898V32.4315H159.296V33.8294H160.698V35.2273H162.096V36.6251H163.494V38.0274H164.896V39.4253H166.294V40.8275H167.692V42.2254H169.09V43.6233H170.487V45.0211H172.004V43.6233H173.401V42.2254H174.799V40.8275H176.202V39.4253H177.595V38.0274H178.989V36.6251H180.386V35.2273H181.789V33.8294H183.187V32.4315H184.589V31.0336H185.987V29.6358H187.385V21.1258H185.987V19.728ZM185.873 22.585V29.5218H184.475V30.9197H183.073V32.3176H181.675V33.7198H180.273V35.1133H178.879V36.5112H177.481V37.9134H176.079V39.3113H174.681V40.7136H173.283V42.1114H171.881V43.5093H170.597V42.1114H169.199V40.7136H167.801V39.3113H166.403V37.9134H165.005V36.5112H163.603V35.1133H162.205V33.7198H160.807V32.3176H159.414V30.9197H158.016V29.5218H156.614V21.2398H158.012V19.8419H159.414V18.444H167.692V19.8419H169.094V21.2398H170.492V22.642H172.008V21.2398H173.406V19.8419H174.804V18.444H183.081V19.8419H184.484V21.2398H185.882L185.873 22.585Z" fill="black"/>
</g>
<path d="M483.853 27.5847H487.297V24.0791H483.853V27.5847Z" fill="#0B0B0B"/>
<path d="M480.408 27.5847H483.852V24.0791H480.408V27.5847Z" fill="#0B0B0B"/>
<path d="M483.853 31.0906H487.297V27.585H483.853V31.0906Z" fill="#0B0B0B"/>
<path d="M480.408 31.0906H483.852V27.585H480.408V31.0906Z" fill="#0B0B0B"/>
<path d="M476.964 27.5847H480.408V24.0791H476.964V27.5847Z" fill="#0B0B0B"/>
<path d="M476.964 31.0906H480.408V27.585H476.964V31.0906Z" fill="#0B0B0B"/>
<path d="M480.413 34.5965H483.844C483.848 34.5965 483.852 34.5965 483.852 34.5921V31.0996C483.852 31.0952 483.848 31.0908 483.844 31.0908H480.413C480.408 31.0908 480.408 31.0952 480.408 31.0996V34.5921C480.408 34.5965 480.408 34.5965 480.413 34.5965Z" fill="#0B0B0B"/>
<path d="M476.968 34.5965H480.399C480.404 34.5965 480.408 34.5965 480.408 34.5921V31.0996C480.408 31.0952 480.404 31.0908 480.399 31.0908H476.968C476.964 31.0908 476.964 31.0952 476.964 31.0996V34.5921C476.964 34.5965 476.964 34.5965 476.968 34.5965Z" fill="#0B0B0B"/>
<path d="M473.52 27.5847H476.964V24.0791H473.52V27.5847Z" fill="#0B0B0B"/>
<path d="M473.52 31.0906H476.964V27.585H473.52V31.0906Z" fill="#0B0B0B"/>
<path d="M473.524 34.5965H476.955C476.959 34.5965 476.964 34.5965 476.964 34.5921V31.0996C476.964 31.0952 476.959 31.0908 476.955 31.0908H473.524C473.52 31.0908 473.52 31.0952 473.52 31.0996V34.5921C473.52 34.5965 473.52 34.5965 473.524 34.5965Z" fill="#0B0B0B"/>
<path d="M470.075 27.5847H473.519V24.0791H470.075V27.5847Z" fill="#0B0B0B"/>
<path d="M470.075 31.0906H473.519V27.585H470.075V31.0906Z" fill="#0B0B0B"/>
<path d="M470.08 34.5965H473.511C473.515 34.5965 473.519 34.5965 473.519 34.5921V31.0996C473.519 31.0952 473.515 31.0908 473.511 31.0908H470.08C470.075 31.0908 470.075 31.0952 470.075 31.0996V34.5921C470.075 34.5965 470.075 34.5965 470.08 34.5965Z" fill="#0B0B0B"/>
<path d="M476.968 38.1062H480.399C480.404 38.1062 480.408 38.1018 480.408 38.0974V34.605C480.408 34.6006 480.404 34.5962 480.399 34.5962H476.968C476.964 34.5962 476.964 34.6006 476.964 34.605V38.0974C476.964 38.1018 476.964 38.1062 476.968 38.1062Z" fill="#0B0B0B"/>
<path d="M473.524 38.1062H476.955C476.959 38.1062 476.964 38.1018 476.964 38.0974V34.605C476.964 34.6006 476.959 34.5962 476.955 34.5962H473.524C473.52 34.5962 473.52 34.6006 473.52 34.605V38.0974C473.52 38.1018 473.52 38.1062 473.524 38.1062Z" fill="#0B0B0B"/>
<path d="M470.08 38.1062H473.511C473.515 38.1062 473.519 38.1018 473.519 38.0974V34.605C473.519 34.6006 473.515 34.5962 473.511 34.5962H470.08C470.075 34.5962 470.075 34.6006 470.075 34.605V38.0974C470.075 38.1018 470.075 38.1062 470.08 38.1062Z" fill="#0B0B0B"/>
<path d="M466.631 27.5847H470.075V24.0791H466.631V27.5847Z" fill="#0B0B0B"/>
<path d="M466.631 31.0906H470.075V27.585H466.631V31.0906Z" fill="#0B0B0B"/>
<path d="M466.635 34.5965H470.066C470.071 34.5965 470.075 34.5965 470.075 34.5921V31.0996C470.075 31.0952 470.071 31.0908 470.066 31.0908H466.635C466.631 31.0908 466.631 31.0952 466.631 31.0996V34.5921C466.631 34.5965 466.631 34.5965 466.635 34.5965Z" fill="#0B0B0B"/>
<path d="M466.635 38.1062H470.066C470.071 38.1062 470.075 38.1018 470.075 38.0974V34.605C470.075 34.6006 470.071 34.5962 470.066 34.5962H466.635C466.631 34.5962 466.631 34.6006 466.631 34.605V38.0974C466.631 38.1018 466.631 38.1062 466.635 38.1062Z" fill="#0B0B0B"/>
<path d="M463.187 27.5847H466.631V24.0791H463.187V27.5847Z" fill="#0B0B0B"/>
<path d="M463.187 31.0906H466.631V27.585H463.187V31.0906Z" fill="#0B0B0B"/>
<path d="M463.191 34.5965H466.622C466.626 34.5965 466.631 34.5965 466.631 34.5921V31.0996C466.631 31.0952 466.626 31.0908 466.622 31.0908H463.191C463.187 31.0908 463.187 31.0952 463.187 31.0996V34.5921C463.187 34.5965 463.187 34.5965 463.191 34.5965Z" fill="#0B0B0B"/>
<path d="M463.191 38.1062H466.622C466.626 38.1062 466.631 38.1018 466.631 38.0974V34.605C466.631 34.6006 466.626 34.5962 466.622 34.5962H463.191C463.187 34.5962 463.187 34.6006 463.187 34.605V38.0974C463.187 38.1018 463.187 38.1062 463.191 38.1062Z" fill="#0B0B0B"/>
<path d="M459.742 27.5847H463.186V24.0791H459.742V27.5847Z" fill="#0B0B0B"/>
<path d="M459.742 31.0906H463.186V27.585H459.742V31.0906Z" fill="#0B0B0B"/>
<path d="M459.747 34.5965H463.178C463.182 34.5965 463.186 34.5965 463.186 34.5921V31.0996C463.186 31.0952 463.182 31.0908 463.178 31.0908H459.747C459.742 31.0908 459.742 31.0952 459.742 31.0996V34.5921C459.742 34.5965 459.742 34.5965 459.747 34.5965Z" fill="#0B0B0B"/>
<path d="M456.293 27.5847H459.742V24.0791H456.293V27.5847Z" fill="#0B0B0B"/>
<path d="M456.293 31.0906H459.742V27.585H456.293V31.0906Z" fill="#0B0B0B"/>
<path d="M452.849 27.5847H456.293V24.0791H452.849V27.5847Z" fill="#0B0B0B"/>
<path d="M452.849 31.0906H456.293V27.585H452.849V31.0906Z" fill="white"/>
<path d="M456.302 34.5965H459.733C459.737 34.5965 459.742 34.5965 459.742 34.5921V31.0996C459.742 31.0952 459.737 31.0908 459.733 31.0908H456.302C456.297 31.0908 456.293 31.0952 456.293 31.0996V34.5921C456.293 34.5965 456.297 34.5965 456.302 34.5965Z" fill="white"/>
<path d="M459.747 38.1062H463.178C463.182 38.1062 463.186 38.1018 463.186 38.0974V34.605C463.186 34.6006 463.182 34.5962 463.178 34.5962H459.747C459.742 34.5962 459.742 34.6006 459.742 34.605V38.0974C459.742 38.1018 459.742 38.1062 459.747 38.1062Z" fill="#0B0B0B"/>
<mask id="mask10_86_516" style="mask-type:luminance" maskUnits="userSpaceOnUse" x="473" y="37" width="5" height="5">
<path d="M473.134 37.9399H477.621V41.599H473.134V37.9399Z" fill="white"/>
</mask>
<g mask="url(#mask10_86_516)">
<path d="M473.524 41.6121H476.955C476.959 41.6121 476.964 41.6077 476.964 41.6033V38.1108C476.964 38.1064 476.959 38.1064 476.955 38.1064H473.524C473.52 38.1064 473.52 38.1064 473.52 38.1108V41.6033C473.52 41.6077 473.52 41.6121 473.524 41.6121Z" fill="#0B0B0B"/>
</g>
<mask id="mask11_86_516" style="mask-type:luminance" maskUnits="userSpaceOnUse" x="469" y="37" width="6" height="5">
<path d="M469.768 37.9395H474.255V41.5985H469.768V37.9395Z" fill="white"/>
</mask>
<g mask="url(#mask11_86_516)">
<path d="M470.08 41.6116H473.511C473.515 41.6116 473.519 41.6072 473.519 41.6028V38.1103C473.519 38.106 473.515 38.106 473.511 38.106H470.08C470.075 38.106 470.075 38.106 470.075 38.1103V41.6028C470.075 41.6072 470.075 41.6116 470.08 41.6116Z" fill="#0B0B0B"/>
</g>
<mask id="mask12_86_516" style="mask-type:luminance" maskUnits="userSpaceOnUse" x="466" y="37" width="5" height="5">
<path d="M466.403 37.9395H470.891V41.5985H466.403V37.9395Z" fill="white"/>
</mask>
<g mask="url(#mask12_86_516)">
<path d="M466.635 41.6116H470.066C470.071 41.6116 470.075 41.6072 470.075 41.6028V38.1103C470.075 38.106 470.071 38.106 470.066 38.106H466.635C466.631 38.106 466.631 38.106 466.631 38.1103V41.6028C466.631 41.6072 466.631 41.6116 466.635 41.6116Z" fill="#0B0B0B"/>
</g>
<mask id="mask13_86_516" style="mask-type:luminance" maskUnits="userSpaceOnUse" x="463" y="37" width="5" height="5">
<path d="M463.037 37.9399H467.524V41.599H463.037V37.9399Z" fill="white"/>
</mask>
<g mask="url(#mask13_86_516)">
<path d="M463.19 41.6121H466.621C466.625 41.6121 466.63 41.6077 466.63 41.6033V38.1108C466.63 38.1064 466.625 38.1064 466.621 38.1064H463.19C463.186 38.1064 463.186 38.1064 463.186 38.1108V41.6033C463.186 41.6077 463.186 41.6121 463.19 41.6121Z" fill="#0B0B0B"/>
</g>
<mask id="mask14_86_516" style="mask-type:luminance" maskUnits="userSpaceOnUse" x="459" y="37" width="6" height="5">
<path d="M459.672 37.9399H464.159V41.599H459.672V37.9399Z" fill="white"/>
</mask>
<g mask="url(#mask14_86_516)">
<path d="M459.746 41.6121H463.177C463.181 41.6121 463.186 41.6077 463.186 41.6033V38.1108C463.186 38.1064 463.181 38.1064 463.177 38.1064H459.746C459.741 38.1064 459.741 38.1064 459.741 38.1108V41.6033C459.741 41.6077 459.741 41.6121 459.746 41.6121Z" fill="#0B0B0B"/>
</g>
<mask id="mask15_86_516" style="mask-type:luminance" maskUnits="userSpaceOnUse" x="455" y="37" width="6" height="5">
<path d="M455.186 37.9395H460.795V41.5985H455.186V37.9395Z" fill="white"/>
</mask>
<g mask="url(#mask15_86_516)">
<path d="M456.303 41.6116H459.734C459.738 41.6116 459.743 41.6072 459.743 41.6028V38.1103C459.743 38.106 459.738 38.106 459.734 38.106H456.303C456.298 38.106 456.294 38.106 456.294 38.1103V41.6028C456.294 41.6072 456.298 41.6116 456.303 41.6116Z" fill="#0B0B0B"/>
</g>
<path d="M456.302 38.1062H459.733C459.737 38.1062 459.742 38.1018 459.742 38.0974V34.605C459.742 34.6006 459.737 34.5962 459.733 34.5962H456.302C456.297 34.5962 456.293 34.6006 456.293 34.605V38.0974C456.293 38.1018 456.297 38.1062 456.302 38.1062Z" fill="#0B0B0B"/>
<path d="M452.857 38.1062H456.289C456.293 38.1062 456.293 38.1018 456.293 38.0974V34.605C456.293 34.6006 456.293 34.5962 456.289 34.5962H452.857C452.853 34.5962 452.849 34.6006 452.849 34.605V38.0974C452.849 38.1018 452.853 38.1062 452.857 38.1062Z" fill="#0B0B0B"/>
<path d="M452.857 34.5965H456.289C456.293 34.5965 456.293 34.5965 456.293 34.5921V31.0996C456.293 31.0952 456.293 31.0908 456.289 31.0908H452.857C452.853 31.0908 452.849 31.0952 452.849 31.0996V34.5921C452.849 34.5965 452.853 34.5965 452.857 34.5965Z" fill="#0B0B0B"/>
<path d="M449.413 34.5965H452.844C452.849 34.5965 452.849 34.5965 452.849 34.5921V31.0996C452.849 31.0952 452.849 31.0908 452.844 31.0908H449.413C449.409 31.0908 449.404 31.0952 449.404 31.0996V34.5921C449.404 34.5965 449.409 34.5965 449.413 34.5965Z" fill="#0B0B0B"/>
<path d="M449.413 31.0906H452.844C452.849 31.0906 452.849 31.0906 452.849 31.0862V27.5937C452.849 27.5893 452.849 27.585 452.844 27.585H449.413C449.409 27.585 449.404 27.5893 449.404 27.5937V31.0862C449.404 31.0906 449.409 31.0906 449.413 31.0906Z" fill="#0B0B0B"/>
<path d="M445.97 31.0906H449.401C449.405 31.0906 449.405 31.0906 449.405 31.0862V27.5937C449.405 27.5893 449.405 27.585 449.401 27.585H445.97C445.965 27.585 445.961 27.5893 445.961 27.5937V31.0862C445.961 31.0906 445.965 31.0906 445.97 31.0906Z" fill="#0B0B0B"/>
<path d="M445.97 27.5847H449.401C449.405 27.5847 449.405 27.5847 449.405 27.5804V24.0879C449.405 24.0835 449.405 24.0791 449.401 24.0791H445.97C445.965 24.0791 445.961 24.0835 445.961 24.0879V27.5804C445.961 27.5847 445.965 27.5847 445.97 27.5847Z" fill="#0B0B0B"/>
<path d="M449.413 27.5847H452.844C452.849 27.5847 452.849 27.5847 452.849 27.5804V24.0879C452.849 24.0835 452.849 24.0791 452.844 24.0791H449.413C449.409 24.0791 449.404 24.0835 449.404 24.0879V27.5804C449.404 27.5847 449.409 27.5847 449.413 27.5847Z" fill="white"/>
<mask id="mask16_86_516" style="mask-type:luminance" maskUnits="userSpaceOnUse" x="442" y="23" width="5" height="5">
<path d="M442.318 23.3564H446.21V27.8437H442.318V23.3564Z" fill="white"/>
</mask>
<g mask="url(#mask16_86_516)">
<path d="M442.524 27.5852H445.956C445.96 27.5852 445.96 27.5852 445.96 27.5808V24.0884C445.96 24.084 445.96 24.0796 445.956 24.0796H442.524C442.52 24.0796 442.516 24.084 442.516 24.0884V27.5808C442.516 27.5852 442.52 27.5852 442.524 27.5852Z" fill="#0B0B0B"/>
</g>
<mask id="mask17_86_516" style="mask-type:luminance" maskUnits="userSpaceOnUse" x="483" y="20" width="5" height="5">
<path d="M483.23 20.5654H487.718V24.4786H483.23V20.5654Z" fill="white"/>
</mask>
<g mask="url(#mask17_86_516)">
<path d="M483.853 24.0794H487.297V20.5737H483.853V24.0794Z" fill="#0B0B0B"/>
</g>
<mask id="mask18_86_516" style="mask-type:luminance" maskUnits="userSpaceOnUse" x="479" y="20" width="6" height="5">
<path d="M479.864 20.5649H484.351V24.4781H479.864V20.5649Z" fill="white"/>
</mask>
<g mask="url(#mask18_86_516)">
<path d="M480.408 24.0794H483.852V20.5737H480.408V24.0794Z" fill="#0B0B0B"/>
</g>
<mask id="mask19_86_516" style="mask-type:luminance" maskUnits="userSpaceOnUse" x="476" y="20" width="5" height="5">
<path d="M476.499 20.5649H480.986V24.4781H476.499V20.5649Z" fill="white"/>
</mask>
<g mask="url(#mask19_86_516)">
<path d="M476.964 24.0794H480.408V20.5737H476.964V24.0794Z" fill="#0B0B0B"/>
</g>
<mask id="mask20_86_516" style="mask-type:luminance" maskUnits="userSpaceOnUse" x="473" y="20" width="5" height="5">
<path d="M473.134 20.5649H477.621V24.4781H473.134V20.5649Z" fill="white"/>
</mask>
<g mask="url(#mask20_86_516)">
<path d="M473.52 24.0794H476.964V20.5737H473.52V24.0794Z" fill="#0B0B0B"/>
</g>
<mask id="mask21_86_516" style="mask-type:luminance" maskUnits="userSpaceOnUse" x="469" y="20" width="6" height="5">
<path d="M469.768 20.5654H474.255V24.4786H469.768V20.5654Z" fill="white"/>
</mask>
<g mask="url(#mask21_86_516)">
<path d="M470.075 24.0794H473.519V20.5737H470.075V24.0794Z" fill="#0B0B0B"/>
</g>
<mask id="mask22_86_516" style="mask-type:luminance" maskUnits="userSpaceOnUse" x="466" y="20" width="5" height="5">
<path d="M466.403 20.5654H470.891V24.4786H466.403V20.5654Z" fill="white"/>
</mask>
<g mask="url(#mask22_86_516)">
<path d="M466.631 24.0794H470.075V20.5737H466.631V24.0794Z" fill="#0B0B0B"/>
</g>
<mask id="mask23_86_516" style="mask-type:luminance" maskUnits="userSpaceOnUse" x="463" y="20" width="5" height="5">
<path d="M463.037 20.5649H467.524V24.4781H463.037V20.5649Z" fill="white"/>
</mask>
<g mask="url(#mask23_86_516)">
<path d="M463.186 24.0794H466.63V20.5737H463.186V24.0794Z" fill="#0B0B0B"/>
</g>
<mask id="mask24_86_516" style="mask-type:luminance" maskUnits="userSpaceOnUse" x="459" y="20" width="6" height="5">
<path d="M459.672 20.5649H464.159V24.4781H459.672V20.5649Z" fill="white"/>
</mask>
<g mask="url(#mask24_86_516)">
<path d="M459.741 24.0794H463.186V20.5737H459.741V24.0794Z" fill="#0B0B0B"/>
</g>
<mask id="mask25_86_516" style="mask-type:luminance" maskUnits="userSpaceOnUse" x="455" y="20" width="6" height="5">
<path d="M455.186 20.5654H460.795V24.4786H455.186V20.5654Z" fill="white"/>
</mask>
<g mask="url(#mask25_86_516)">
<path d="M456.294 24.0794H459.743V20.5737H456.294V24.0794Z" fill="#0B0B0B"/>
</g>
<mask id="mask26_86_516" style="mask-type:luminance" maskUnits="userSpaceOnUse" x="451" y="20" width="6" height="5">
<path d="M451.819 20.5649H456.307V24.4781H451.819V20.5649Z" fill="white"/>
</mask>
<g mask="url(#mask26_86_516)">
<path d="M452.85 24.0794H456.294V20.5737H452.85V24.0794Z" fill="#0B0B0B"/>
</g>
<mask id="mask27_86_516" style="mask-type:luminance" maskUnits="userSpaceOnUse" x="448" y="20" width="5" height="5">
<path d="M448.454 20.5649H452.941V24.4781H448.454V20.5649Z" fill="white"/>
</mask>
<g mask="url(#mask27_86_516)">
<path d="M449.405 24.0794H452.85V20.5737H449.405V24.0794Z" fill="#0B0B0B"/>
</g>
<mask id="mask28_86_516" style="mask-type:luminance" maskUnits="userSpaceOnUse" x="445" y="20" width="5" height="5">
<path d="M445.089 20.5649H449.576V24.4781H445.089V20.5649Z" fill="white"/>
</mask>
<g mask="url(#mask28_86_516)">
<path d="M445.96 24.0794H449.404V20.5737H445.96V24.0794Z" fill="#0B0B0B"/>
</g>
<mask id="mask29_86_516" style="mask-type:luminance" maskUnits="userSpaceOnUse" x="442" y="20" width="5" height="5">
<path d="M442.318 20.5654H446.21V24.4786H442.318V20.5654Z" fill="white"/>
</mask>
<g mask="url(#mask29_86_516)">
<path d="M442.516 24.0794H445.96V20.5737H442.516V24.0794Z" fill="#0B0B0B"/>
</g>
<path d="M490.736 27.5847H487.292V24.0791H490.736V27.5847Z" fill="#0B0B0B"/>
<path d="M494.181 27.5847H490.736V24.0791H494.181V27.5847Z" fill="#0B0B0B"/>
<path d="M497.625 27.5847H494.181V24.0791H497.625V27.5847Z" fill="#0B0B0B"/>
<path d="M490.736 31.0906H487.292V27.585H490.736V31.0906Z" fill="#0B0B0B"/>
<path d="M494.181 31.0906H490.736V27.585H494.181V31.0906Z" fill="#0B0B0B"/>
<path d="M497.625 31.0906H494.181V27.585H497.625V31.0906Z" fill="#0B0B0B"/>
<path d="M501.069 27.5847H497.625V24.0791H501.069V27.5847Z" fill="#0B0B0B"/>
<path d="M501.069 31.0906H497.625V27.585H501.069V31.0906Z" fill="#0B0B0B"/>
<path d="M497.621 34.5965H494.185C494.185 34.5965 494.181 34.5965 494.181 34.5921V31.0996C494.181 31.0952 494.185 31.0908 494.185 31.0908H497.621C497.621 31.0908 497.625 31.0952 497.625 31.0996V34.5921C497.625 34.5965 497.621 34.5965 497.621 34.5965Z" fill="#0B0B0B"/>
<path d="M501.065 34.5965H497.634C497.629 34.5965 497.625 34.5965 497.625 34.5921V31.0996C497.625 31.0952 497.629 31.0908 497.634 31.0908H501.065C501.065 31.0908 501.069 31.0952 501.069 31.0996V34.5921C501.069 34.5965 501.065 34.5965 501.065 34.5965Z" fill="#0B0B0B"/>
<path d="M504.514 27.5847H501.069V24.0791H504.514V27.5847Z" fill="#0B0B0B"/>
<path d="M504.514 31.0906H501.069V27.585H504.514V31.0906Z" fill="#0B0B0B"/>
<path d="M504.509 34.5965H501.078C501.074 34.5965 501.069 34.5965 501.069 34.5921V31.0996C501.069 31.0952 501.074 31.0908 501.078 31.0908H504.509C504.514 31.0908 504.514 31.0952 504.514 31.0996V34.5921C504.514 34.5965 504.514 34.5965 504.509 34.5965Z" fill="#0B0B0B"/>
<path d="M507.958 27.5847H504.514V24.0791H507.958V27.5847Z" fill="#0B0B0B"/>
<path d="M507.958 31.0906H504.514V27.585H507.958V31.0906Z" fill="#0B0B0B"/>
<path d="M507.954 34.5965H504.522C504.518 34.5965 504.514 34.5965 504.514 34.5921V31.0996C504.514 31.0952 504.518 31.0908 504.522 31.0908H507.954C507.958 31.0908 507.958 31.0952 507.958 31.0996V34.5921C507.958 34.5965 507.958 34.5965 507.954 34.5965Z" fill="#0B0B0B"/>
<path d="M501.065 38.1062H497.634C497.629 38.1062 497.625 38.1018 497.625 38.0974V34.605C497.625 34.6006 497.629 34.5962 497.634 34.5962H501.065C501.065 34.5962 501.069 34.6006 501.069 34.605V38.0974C501.069 38.1018 501.065 38.1062 501.065 38.1062Z" fill="#0B0B0B"/>
<path d="M504.509 38.1062H501.078C501.074 38.1062 501.069 38.1018 501.069 38.0974V34.605C501.069 34.6006 501.074 34.5962 501.078 34.5962H504.509C504.514 34.5962 504.514 34.6006 504.514 34.605V38.0974C504.514 38.1018 504.514 38.1062 504.509 38.1062Z" fill="#0B0B0B"/>
<path d="M507.954 38.1062H504.522C504.518 38.1062 504.514 38.1018 504.514 38.0974V34.605C504.514 34.6006 504.518 34.5962 504.522 34.5962H507.954C507.958 34.5962 507.958 34.6006 507.958 34.605V38.0974C507.958 38.1018 507.958 38.1062 507.954 38.1062Z" fill="#0B0B0B"/>
<path d="M511.402 27.5847H507.958V24.0791H511.402V27.5847Z" fill="#0B0B0B"/>
<path d="M511.402 31.0906H507.958V27.585H511.402V31.0906Z" fill="#0B0B0B"/>
<path d="M511.398 34.5965H507.967C507.962 34.5965 507.958 34.5965 507.958 34.5921V31.0996C507.958 31.0952 507.962 31.0908 507.967 31.0908H511.398C511.402 31.0908 511.402 31.0952 511.402 31.0996V34.5921C511.402 34.5965 511.402 34.5965 511.398 34.5965Z" fill="#0B0B0B"/>
<path d="M511.398 38.1062H507.967C507.962 38.1062 507.958 38.1018 507.958 38.0974V34.605C507.958 34.6006 507.962 34.5962 507.967 34.5962H511.398C511.402 34.5962 511.402 34.6006 511.402 34.605V38.0974C511.402 38.1018 511.402 38.1062 511.398 38.1062Z" fill="#0B0B0B"/>
<path d="M514.847 27.5847H511.402V24.0791H514.847V27.5847Z" fill="#0B0B0B"/>
<path d="M514.847 31.0906H511.402V27.585H514.847V31.0906Z" fill="#0B0B0B"/>
<path d="M514.842 34.5965H511.411C511.407 34.5965 511.402 34.5965 511.402 34.5921V31.0996C511.402 31.0952 511.407 31.0908 511.411 31.0908H514.842C514.847 31.0908 514.847 31.0952 514.847 31.0996V34.5921C514.847 34.5965 514.847 34.5965 514.842 34.5965Z" fill="#0B0B0B"/>
<path d="M514.842 38.1062H511.411C511.407 38.1062 511.402 38.1018 511.402 38.0974V34.605C511.402 34.6006 511.407 34.5962 511.411 34.5962H514.842C514.847 34.5962 514.847 34.6006 514.847 34.605V38.0974C514.847 38.1018 514.847 38.1062 514.842 38.1062Z" fill="#0B0B0B"/>
<path d="M518.291 27.5847H514.847V24.0791H518.291V27.5847Z" fill="#0B0B0B"/>
<path d="M518.291 31.0906H514.847V27.585H518.291V31.0906Z" fill="#0B0B0B"/>
<path d="M518.287 34.5965H514.855C514.851 34.5965 514.847 34.5965 514.847 34.5921V31.0996C514.847 31.0952 514.851 31.0908 514.855 31.0908H518.287C518.291 31.0908 518.291 31.0952 518.291 31.0996V34.5921C518.291 34.5965 518.291 34.5965 518.287 34.5965Z" fill="#0B0B0B"/>
<path d="M521.735 27.5847H518.291V24.0791H521.735V27.5847Z" fill="#0B0B0B"/>
<path d="M521.735 31.0906H518.291V27.585H521.735V31.0906Z" fill="#0B0B0B"/>
<path d="M525.183 27.5847H521.734V24.0791H525.183V27.5847Z" fill="#0B0B0B"/>
<path d="M525.183 31.0906H521.734V27.585H525.183V31.0906Z" fill="white"/>
<path d="M521.731 34.5965H518.3C518.295 34.5965 518.291 34.5965 518.291 34.5921V31.0996C518.291 31.0952 518.295 31.0908 518.3 31.0908H521.731C521.735 31.0908 521.735 31.0952 521.735 31.0996V34.5921C521.735 34.5965 521.735 34.5965 521.731 34.5965Z" fill="white"/>
<path d="M518.287 38.1062H514.855C514.851 38.1062 514.847 38.1018 514.847 38.0974V34.605C514.847 34.6006 514.851 34.5962 514.855 34.5962H518.287C518.291 34.5962 518.291 34.6006 518.291 34.605V38.0974C518.291 38.1018 518.291 38.1062 518.287 38.1062Z" fill="#0B0B0B"/>
<mask id="mask30_86_516" style="mask-type:luminance" maskUnits="userSpaceOnUse" x="500" y="37" width="5" height="5">
<path d="M500.057 37.9399H504.544V41.599H500.057V37.9399Z" fill="white"/>
</mask>
<g mask="url(#mask30_86_516)">
<path d="M504.509 41.6116H501.078C501.074 41.6116 501.069 41.6072 501.069 41.6028V38.1103C501.069 38.106 501.074 38.106 501.078 38.106H504.509C504.514 38.106 504.514 38.106 504.514 38.1103V41.6028C504.514 41.6072 504.514 41.6116 504.509 41.6116Z" fill="#0B0B0B"/>
</g>
<mask id="mask31_86_516" style="mask-type:luminance" maskUnits="userSpaceOnUse" x="503" y="37" width="7" height="5">
<path d="M503.423 37.9395H509.032V41.5985H503.423V37.9395Z" fill="white"/>
</mask>
<g mask="url(#mask31_86_516)">
<path d="M507.954 41.6116H504.522C504.518 41.6116 504.514 41.6072 504.514 41.6028V38.1103C504.514 38.106 504.518 38.106 504.522 38.106H507.954C507.958 38.106 507.958 38.106 507.958 38.1103V41.6028C507.958 41.6072 507.958 41.6116 507.954 41.6116Z" fill="#0B0B0B"/>
</g>
<mask id="mask32_86_516" style="mask-type:luminance" maskUnits="userSpaceOnUse" x="507" y="37" width="6" height="5">
<path d="M507.91 37.9399H512.397V41.599H507.91V37.9399Z" fill="white"/>
</mask>
<g mask="url(#mask32_86_516)">
<path d="M511.398 41.6121H507.967C507.962 41.6121 507.958 41.6077 507.958 41.6033V38.1108C507.958 38.1064 507.962 38.1064 507.967 38.1064H511.398C511.402 38.1064 511.402 38.1064 511.402 38.1108V41.6033C511.402 41.6077 511.402 41.6121 511.398 41.6121Z" fill="#0B0B0B"/>
</g>
<mask id="mask33_86_516" style="mask-type:luminance" maskUnits="userSpaceOnUse" x="511" y="37" width="5" height="5">
<path d="M511.275 37.9399H515.763V41.599H511.275V37.9399Z" fill="white"/>
</mask>
<g mask="url(#mask33_86_516)">
<path d="M514.843 41.6121H511.412C511.408 41.6121 511.403 41.6077 511.403 41.6033V38.1108C511.403 38.1064 511.408 38.1064 511.412 38.1064H514.843C514.848 38.1064 514.848 38.1064 514.848 38.1108V41.6033C514.848 41.6077 514.848 41.6121 514.843 41.6121Z" fill="#0B0B0B"/>
</g>
<mask id="mask34_86_516" style="mask-type:luminance" maskUnits="userSpaceOnUse" x="514" y="37" width="6" height="5">
<path d="M514.641 37.9399H519.128V41.599H514.641V37.9399Z" fill="white"/>
</mask>
<g mask="url(#mask34_86_516)">
<path d="M518.288 41.6121H514.856C514.852 41.6121 514.848 41.6077 514.848 41.6033V38.1108C514.848 38.1064 514.852 38.1064 514.856 38.1064H518.288C518.292 38.1064 518.292 38.1064 518.292 38.1108V41.6033C518.292 41.6077 518.292 41.6121 518.288 41.6121Z" fill="#0B0B0B"/>
</g>
<mask id="mask35_86_516" style="mask-type:luminance" maskUnits="userSpaceOnUse" x="518" y="37" width="5" height="5">
<path d="M518.007 37.9395H522.494V41.5985H518.007V37.9395Z" fill="white"/>
</mask>
<g mask="url(#mask35_86_516)">
<path d="M521.732 41.6116H518.301C518.296 41.6116 518.292 41.6072 518.292 41.6028V38.1103C518.292 38.106 518.296 38.106 518.301 38.106H521.732C521.736 38.106 521.736 38.106 521.736 38.1103V41.6028C521.736 41.6072 521.736 41.6116 521.732 41.6116Z" fill="#0B0B0B"/>
</g>
<path d="M521.731 38.1062H518.3C518.295 38.1062 518.291 38.1018 518.291 38.0974V34.605C518.291 34.6006 518.295 34.5962 518.3 34.5962H521.731C521.735 34.5962 521.735 34.6006 521.735 34.605V38.0974C521.735 38.1018 521.735 38.1062 521.731 38.1062Z" fill="#0B0B0B"/>
<path d="M525.174 38.1062H521.743C521.739 38.1062 521.734 38.1018 521.734 38.0974V34.605C521.734 34.6006 521.739 34.5962 521.743 34.5962H525.174C525.179 34.5962 525.183 34.6006 525.183 34.605V38.0974C525.183 38.1018 525.179 38.1062 525.174 38.1062Z" fill="#0B0B0B"/>
<path d="M525.174 34.5965H521.743C521.739 34.5965 521.734 34.5965 521.734 34.5921V31.0996C521.734 31.0952 521.739 31.0908 521.743 31.0908H525.174C525.179 31.0908 525.183 31.0952 525.183 31.0996V34.5921C525.183 34.5965 525.179 34.5965 525.174 34.5965Z" fill="#0B0B0B"/>
<path d="M528.619 34.5965H525.188C525.184 34.5965 525.184 34.5965 525.184 34.5921V31.0996C525.184 31.0952 525.184 31.0908 525.188 31.0908H528.619C528.624 31.0908 528.628 31.0952 528.628 31.0996V34.5921C528.628 34.5965 528.624 34.5965 528.619 34.5965Z" fill="#0B0B0B"/>
<path d="M528.619 31.0906H525.188C525.184 31.0906 525.184 31.0906 525.184 31.0862V27.5937C525.184 27.5893 525.184 27.585 525.188 27.585H528.619C528.624 27.585 528.628 27.5893 528.628 27.5937V31.0862C528.628 31.0906 528.624 31.0906 528.619 31.0906Z" fill="#0B0B0B"/>
<path d="M532.063 31.0906H528.632C528.628 31.0906 528.628 31.0906 528.628 31.0862V27.5937C528.628 27.5893 528.628 27.585 528.632 27.585H532.063C532.068 27.585 532.072 27.5893 532.072 27.5937V31.0862C532.072 31.0906 532.068 31.0906 532.063 31.0906Z" fill="#0B0B0B"/>
<path d="M532.063 27.5847H528.632C528.628 27.5847 528.628 27.5847 528.628 27.5804V24.0879C528.628 24.0835 528.628 24.0791 528.632 24.0791H532.063C532.068 24.0791 532.072 24.0835 532.072 24.0879V27.5804C532.072 27.5847 532.068 27.5847 532.063 27.5847Z" fill="#0B0B0B"/>
<path d="M528.619 27.5847H525.188C525.184 27.5847 525.184 27.5847 525.184 27.5804V24.0879C525.184 24.0835 525.184 24.0791 525.188 24.0791H528.619C528.624 24.0791 528.628 24.0835 528.628 24.0879V27.5804C528.628 27.5847 528.624 27.5847 528.619 27.5847Z" fill="white"/>
<mask id="mask36_86_516" style="mask-type:luminance" maskUnits="userSpaceOnUse" x="531" y="23" width="5" height="5">
<path d="M531.468 23.356H535.71V27.8432H531.468V23.356Z" fill="white"/>
</mask>
<g mask="url(#mask36_86_516)">
<path d="M535.509 27.5847H532.078C532.073 27.5847 532.073 27.5847 532.073 27.5804V24.0879C532.073 24.0835 532.073 24.0791 532.078 24.0791H535.509C535.513 24.0791 535.518 24.0835 535.518 24.0879V27.5804C535.518 27.5847 535.513 27.5847 535.509 27.5847Z" fill="#0B0B0B"/>
</g>
<mask id="mask37_86_516" style="mask-type:luminance" maskUnits="userSpaceOnUse" x="486" y="20" width="6" height="5">
<path d="M486.596 20.5654H491.083V24.4786H486.596V20.5654Z" fill="white"/>
</mask>
<g mask="url(#mask37_86_516)">
<path d="M490.737 24.0794H487.293V20.5737H490.737V24.0794Z" fill="#0B0B0B"/>
</g>
<mask id="mask38_86_516" style="mask-type:luminance" maskUnits="userSpaceOnUse" x="489" y="20" width="6" height="5">
<path d="M489.96 20.5654H494.447V24.4786H489.96V20.5654Z" fill="white"/>
</mask>
<g mask="url(#mask38_86_516)">
<path d="M494.181 24.0794H490.736V20.5737H494.181V24.0794Z" fill="#0B0B0B"/>
</g>
<mask id="mask39_86_516" style="mask-type:luminance" maskUnits="userSpaceOnUse" x="493" y="20" width="5" height="5">
<path d="M493.326 20.5649H497.813V24.4781H493.326V20.5649Z" fill="white"/>
</mask>
<g mask="url(#mask39_86_516)">
<path d="M497.625 24.0794H494.181V20.5737H497.625V24.0794Z" fill="#0B0B0B"/>
</g>
<mask id="mask40_86_516" style="mask-type:luminance" maskUnits="userSpaceOnUse" x="496" y="20" width="6" height="5">
<path d="M496.691 20.5649H501.179V24.4781H496.691V20.5649Z" fill="white"/>
</mask>
<g mask="url(#mask40_86_516)">
<path d="M501.069 24.0794H497.625V20.5737H501.069V24.0794Z" fill="#0B0B0B"/>
</g>
<mask id="mask41_86_516" style="mask-type:luminance" maskUnits="userSpaceOnUse" x="500" y="20" width="5" height="5">
<path d="M500.057 20.5649H504.544V24.4781H500.057V20.5649Z" fill="white"/>
</mask>
<g mask="url(#mask41_86_516)">
<path d="M504.514 24.0794H501.069V20.5737H504.514V24.0794Z" fill="#0B0B0B"/>
</g>
<mask id="mask42_86_516" style="mask-type:luminance" maskUnits="userSpaceOnUse" x="503" y="20" width="7" height="5">
<path d="M503.423 20.5654H509.032V24.4786H503.423V20.5654Z" fill="white"/>
</mask>
<g mask="url(#mask42_86_516)">
<path d="M507.958 24.0794H504.514V20.5737H507.958V24.0794Z" fill="#0B0B0B"/>
</g>
<mask id="mask43_86_516" style="mask-type:luminance" maskUnits="userSpaceOnUse" x="507" y="20" width="6" height="5">
<path d="M507.91 20.5649H512.397V24.4781H507.91V20.5649Z" fill="white"/>
</mask>
<g mask="url(#mask43_86_516)">
<path d="M511.402 24.0794H507.958V20.5737H511.402V24.0794Z" fill="#0B0B0B"/>
</g>
<mask id="mask44_86_516" style="mask-type:luminance" maskUnits="userSpaceOnUse" x="511" y="20" width="5" height="5">
<path d="M511.275 20.5649H515.763V24.4781H511.275V20.5649Z" fill="white"/>
</mask>
<g mask="url(#mask44_86_516)">
<path d="M514.848 24.0794H511.403V20.5737H514.848V24.0794Z" fill="#0B0B0B"/>
</g>
<mask id="mask45_86_516" style="mask-type:luminance" maskUnits="userSpaceOnUse" x="514" y="20" width="6" height="5">
<path d="M514.641 20.5649H519.128V24.4781H514.641V20.5649Z" fill="white"/>
</mask>
<g mask="url(#mask45_86_516)">
<path d="M518.292 24.0794H514.848V20.5737H518.292V24.0794Z" fill="#0B0B0B"/>
</g>
<mask id="mask46_86_516" style="mask-type:luminance" maskUnits="userSpaceOnUse" x="518" y="20" width="5" height="5">
<path d="M518.007 20.5654H522.494V24.4786H518.007V20.5654Z" fill="white"/>
</mask>
<g mask="url(#mask46_86_516)">
<path d="M521.736 24.0794H518.292V20.5737H521.736V24.0794Z" fill="#0B0B0B"/>
</g>
<mask id="mask47_86_516" style="mask-type:luminance" maskUnits="userSpaceOnUse" x="521" y="20" width="5" height="5">
<path d="M521.371 20.5654H525.858V24.4786H521.371V20.5654Z" fill="white"/>
</mask>
<g mask="url(#mask47_86_516)">
<path d="M525.184 24.0794H521.735V20.5737H525.184V24.0794Z" fill="#0B0B0B"/>
</g>
<mask id="mask48_86_516" style="mask-type:luminance" maskUnits="userSpaceOnUse" x="524" y="20" width="6" height="5">
<path d="M524.737 20.5649H529.225V24.4781H524.737V20.5649Z" fill="white"/>
</mask>
<g mask="url(#mask48_86_516)">
<path d="M528.629 24.0794H525.185V20.5737H528.629V24.0794Z" fill="#0B0B0B"/>
</g>
<mask id="mask49_86_516" style="mask-type:luminance" maskUnits="userSpaceOnUse" x="528" y="20" width="5" height="5">
<path d="M528.103 20.5649H532.59V24.4781H528.103V20.5649Z" fill="white"/>
</mask>
<g mask="url(#mask49_86_516)">
<path d="M532.073 24.0794H528.629V20.5737H532.073V24.0794Z" fill="#0B0B0B"/>
</g>
<mask id="mask50_86_516" style="mask-type:luminance" maskUnits="userSpaceOnUse" x="531" y="20" width="5" height="5">
<path d="M531.468 20.5649H535.71V24.4781H531.468V20.5649Z" fill="white"/>
</mask>
<g mask="url(#mask50_86_516)">
<path d="M535.518 24.0794H532.073V20.5737H535.518V24.0794Z" fill="#0B0B0B"/>
</g>
<path d="M226.895 37.9206C226.987 38.3194 227.036 38.8058 227.036 39.3755C227.036 39.9364 226.987 40.4228 226.895 40.8303H216.747C216.641 40.4228 216.589 39.9364 216.589 39.3755C216.589 38.8058 216.641 38.3194 216.747 37.9206C216.641 37.5131 216.589 37.0355 216.589 36.4833C216.589 35.9005 216.641 35.4141 216.747 35.0285C216.641 34.6209 216.589 34.1345 216.589 33.5736C216.589 33.004 216.641 32.5176 216.747 32.1188C216.641 31.7113 216.589 31.2336 216.589 30.6815C216.589 30.0987 216.641 29.6123 216.747 29.2266C216.641 28.8191 216.589 28.3327 216.589 27.7718C216.589 27.2021 216.641 26.7157 216.747 26.317C216.641 25.9094 216.589 25.4318 216.589 24.8797C216.589 24.2968 216.641 23.8104 216.747 23.4248C216.641 23.0173 216.589 22.5309 216.589 21.97C216.589 21.3872 216.641 20.9008 216.747 20.5151H219.639C219.731 20.9008 219.779 21.3872 219.779 21.97C219.779 22.5309 219.731 23.0173 219.639 23.4248C219.731 23.8104 219.779 24.2968 219.779 24.8797C219.779 25.4318 219.731 25.9094 219.639 26.317C219.731 26.7157 219.779 27.2021 219.779 27.7718C219.779 28.3327 219.731 28.8191 219.639 29.2266C219.731 29.6123 219.779 30.0987 219.779 30.6815C219.779 31.2336 219.731 31.7113 219.639 32.1188C219.731 32.5176 219.779 33.004 219.779 33.5736C219.779 34.1345 219.731 34.6209 219.639 35.0285C219.731 35.4141 219.779 35.9005 219.779 36.4833C219.779 37.0355 219.731 37.5131 219.639 37.9206H226.895Z" fill="black"/>
<path d="M241.544 30.6819C241.544 31.234 241.496 31.7117 241.404 32.1192C241.496 32.518 241.544 33.0044 241.544 33.5741C241.544 34.135 241.496 34.6214 241.404 35.0289H233.779C233.884 35.4145 233.937 35.9009 233.937 36.4837C233.937 37.0359 233.884 37.5135 233.779 37.921H239.949C240.041 38.3198 240.089 38.8062 240.089 39.3759C240.089 39.9368 240.041 40.4232 239.949 40.8307H232.692C232.596 40.4232 232.552 39.9368 232.552 39.3759C232.552 38.8062 232.596 38.3198 232.692 37.921H230.887C230.791 37.5135 230.747 37.0359 230.747 36.4837C230.747 35.9009 230.791 35.4145 230.887 35.0289H229.8C229.695 34.6214 229.643 34.135 229.643 33.5741C229.643 33.0044 229.695 32.518 229.8 32.1192H230.887C230.791 31.7117 230.747 31.234 230.747 30.6819C230.747 30.0991 230.791 29.6127 230.887 29.2271H232.692C232.596 28.8195 232.552 28.3331 232.552 27.7722C232.552 27.2026 232.596 26.7161 232.692 26.3174H239.949C240.041 26.7161 240.089 27.2026 240.089 27.7722C240.089 28.3331 240.041 28.8195 239.949 29.2271H241.404C241.496 29.6127 241.544 30.0991 241.544 30.6819ZM238.494 32.1192C238.398 31.7117 238.354 31.234 238.354 30.6819C238.354 30.0991 238.398 29.6127 238.494 29.2271H233.779C233.884 29.6127 233.937 30.0991 233.937 30.6819C233.937 31.234 233.884 31.7117 233.779 32.1192H238.494Z" fill="black"/>
<path d="M256.05 27.7722C256.05 28.3331 256.002 28.8195 255.91 29.2271H254.823C254.915 29.6127 254.963 30.0991 254.963 30.6819C254.963 31.234 254.915 31.7117 254.823 32.1192H253.736C253.828 32.518 253.877 33.0044 253.877 33.5741C253.877 34.135 253.828 34.6214 253.736 35.0289H253C253.105 35.4145 253.158 35.9009 253.158 36.4837C253.158 37.0359 253.105 37.5135 253 37.921H251.563C251.655 38.3198 251.703 38.8062 251.703 39.3759C251.703 39.9368 251.655 40.4232 251.563 40.8307H248.653C248.557 40.4232 248.513 39.9368 248.513 39.3759C248.513 38.8062 248.557 38.3198 248.653 37.921H247.198C247.102 37.5135 247.058 37.0359 247.058 36.4837C247.058 35.9009 247.102 35.4145 247.198 35.0289H246.48C246.383 34.6214 246.339 34.135 246.339 33.5741C246.339 33.0044 246.383 32.518 246.48 32.1192H245.393C245.297 31.7117 245.253 31.234 245.253 30.6819C245.253 30.0991 245.297 29.6127 245.393 29.2271H244.306C244.201 28.8195 244.148 28.3331 244.148 27.7722C244.148 27.2026 244.201 26.7161 244.306 26.3174H247.198C247.304 26.7161 247.356 27.2026 247.356 27.7722C247.356 28.3331 247.304 28.8195 247.198 29.2271H248.285C248.39 29.6127 248.443 30.0991 248.443 30.6819C248.443 31.234 248.39 31.7117 248.285 32.1192H249.372C249.477 32.518 249.53 33.0044 249.53 33.5741C249.53 34.135 249.477 34.6214 249.372 35.0289H250.827C250.73 34.6214 250.686 34.135 250.686 33.5741C250.686 33.0044 250.73 32.518 250.827 32.1192H251.913C251.817 31.7117 251.773 31.234 251.773 30.6819C251.773 30.0991 251.817 29.6127 251.913 29.2271H253C252.904 28.8195 252.86 28.3331 252.86 27.7722C252.86 27.2026 252.904 26.7161 253 26.3174H255.91C256.002 26.7161 256.05 27.2026 256.05 27.7722Z" fill="black"/>
<path d="M270.56 30.6819C270.56 31.234 270.512 31.7117 270.42 32.1192C270.512 32.518 270.56 33.0044 270.56 33.5741C270.56 34.135 270.512 34.6214 270.42 35.0289H262.795C262.9 35.4145 262.953 35.9009 262.953 36.4837C262.953 37.0359 262.9 37.5135 262.795 37.921H268.965C269.057 38.3198 269.105 38.8062 269.105 39.3759C269.105 39.9368 269.057 40.4232 268.965 40.8307H261.708C261.612 40.4232 261.568 39.9368 261.568 39.3759C261.568 38.8062 261.612 38.3198 261.708 37.921H259.903C259.806 37.5135 259.762 37.0359 259.762 36.4837C259.762 35.9009 259.806 35.4145 259.903 35.0289H258.816C258.711 34.6214 258.658 34.135 258.658 33.5741C258.658 33.0044 258.711 32.518 258.816 32.1192H259.903C259.806 31.7117 259.762 31.234 259.762 30.6819C259.762 30.0991 259.806 29.6127 259.903 29.2271H261.708C261.612 28.8195 261.568 28.3331 261.568 27.7722C261.568 27.2026 261.612 26.7161 261.708 26.3174H268.965C269.057 26.7161 269.105 27.2026 269.105 27.7722C269.105 28.3331 269.057 28.8195 268.965 29.2271H270.42C270.512 29.6127 270.56 30.0991 270.56 30.6819ZM267.51 32.1192C267.414 31.7117 267.37 31.234 267.37 30.6819C267.37 30.0991 267.414 29.6127 267.51 29.2271H262.795C262.9 29.6127 262.953 30.0991 262.953 30.6819C262.953 31.234 262.9 31.7117 262.795 32.1192H267.51Z" fill="black"/>
<path d="M283.473 37.9206C283.565 38.3194 283.613 38.8058 283.613 39.3755C283.613 39.9364 283.565 40.4228 283.473 40.8303H274.779C274.674 40.4228 274.621 39.9364 274.621 39.3755C274.621 38.8058 274.674 38.3194 274.779 37.9206H277.671C277.575 37.5131 277.531 37.0355 277.531 36.4833C277.531 35.9005 277.575 35.4141 277.671 35.0285C277.575 34.6209 277.531 34.1345 277.531 33.5736C277.531 33.004 277.575 32.5176 277.671 32.1188C277.575 31.7113 277.531 31.2336 277.531 30.6815C277.531 30.0987 277.575 29.6123 277.671 29.2266C277.575 28.8191 277.531 28.3327 277.531 27.7718C277.531 27.2021 277.575 26.7157 277.671 26.317C277.575 25.9094 277.531 25.4318 277.531 24.8797C277.531 24.2968 277.575 23.8104 277.671 23.4248H275.498C275.401 23.0173 275.357 22.5309 275.357 21.97C275.357 21.3872 275.401 20.9008 275.498 20.5151H280.581C280.673 20.9008 280.721 21.3872 280.721 21.97C280.721 22.5309 280.673 23.0173 280.581 23.4248C280.673 23.8104 280.721 24.2968 280.721 24.8797C280.721 25.4318 280.673 25.9094 280.581 26.317C280.673 26.7157 280.721 27.2021 280.721 27.7718C280.721 28.3327 280.673 28.8191 280.581 29.2266C280.673 29.6123 280.721 30.0987 280.721 30.6815C280.721 31.2336 280.673 31.7113 280.581 32.1188C280.673 32.5176 280.721 33.004 280.721 33.5736C280.721 34.1345 280.673 34.6209 280.581 35.0285C280.673 35.4141 280.721 35.9005 280.721 36.4833C280.721 37.0355 280.673 37.5131 280.581 37.9206H283.473Z" fill="black"/>
<path d="M306.109 27.7718C306.109 28.3327 306.061 28.8191 305.969 29.2266H307.056C307.148 29.6123 307.196 30.0987 307.196 30.6815C307.196 31.2336 307.148 31.7113 307.056 32.1188H303.059C302.963 31.7113 302.919 31.2336 302.919 30.6815C302.919 30.0987 302.963 29.6123 303.059 29.2266C302.963 28.8191 302.919 28.3327 302.919 27.7718C302.919 27.2021 302.963 26.7157 303.059 26.317C302.963 25.9094 302.919 25.4318 302.919 24.8797C302.919 24.2968 302.963 23.8104 303.059 23.4248C302.963 23.0173 302.919 22.5309 302.919 21.97C302.919 21.3872 302.963 20.9008 303.059 20.5151H312.857C312.949 20.9008 312.998 21.3872 312.998 21.97C312.998 22.5309 312.949 23.0173 312.857 23.4248H305.969C306.061 23.8104 306.109 24.2968 306.109 24.8797C306.109 25.4318 306.061 25.9094 305.969 26.317C306.061 26.7157 306.109 27.2021 306.109 27.7718ZM314.084 33.5736C314.084 34.1345 314.036 34.6209 313.944 35.0285H312.857C312.949 35.4141 312.998 35.9005 312.998 36.4833C312.998 37.0355 312.949 37.5131 312.857 37.9206H311.034C311.14 38.3194 311.192 38.8058 311.192 39.3755C311.192 39.9364 311.14 40.4228 311.034 40.8303H304.514C304.418 40.4228 304.374 39.9364 304.374 39.3755C304.374 38.8058 304.418 38.3194 304.514 37.9206H303.059C302.963 37.5131 302.919 37.0355 302.919 36.4833C302.919 35.9005 302.963 35.4141 303.059 35.0285H305.233C305.338 35.4141 305.39 35.9005 305.39 36.4833C305.39 37.0355 305.338 37.5131 305.233 37.9206H309.948C309.851 37.5131 309.808 37.0355 309.808 36.4833C309.808 35.9005 309.851 35.4141 309.948 35.0285H311.034C310.938 34.6209 310.894 34.1345 310.894 33.5736C310.894 33.004 310.938 32.5176 311.034 32.1188H309.948C309.851 31.7113 309.808 31.2336 309.808 30.6815C309.808 30.0987 309.851 29.6123 309.948 29.2266H307.056C306.95 28.8191 306.898 28.3327 306.898 27.7718C306.898 27.2021 306.95 26.7157 307.056 26.317H311.034C311.14 26.7157 311.192 27.2021 311.192 27.7718C311.192 28.3327 311.14 28.8191 311.034 29.2266H312.857C312.949 29.6123 312.998 30.0987 312.998 30.6815C312.998 31.2336 312.949 31.7113 312.857 32.1188H313.944C314.036 32.5176 314.084 33.004 314.084 33.5736Z" fill="black"/>
<path d="M326.279 29.2266C326.371 29.6122 326.419 30.0986 326.419 30.6814C326.419 31.2335 326.371 31.7112 326.279 32.1187H319.022C318.926 31.7112 318.882 31.2335 318.882 30.6814C318.882 30.0986 318.926 29.6122 319.022 29.2266H326.279Z" fill="black"/>
<path d="M335.127 27.7728C335.127 28.3337 335.078 28.8201 334.986 29.2276H336.073C336.165 29.6132 336.213 30.0997 336.213 30.6825C336.213 31.2346 336.165 31.7122 336.073 32.1198H332.077C331.98 31.7122 331.937 31.2346 331.937 30.6825C331.937 30.0997 331.98 29.6132 332.077 29.2276C331.98 28.8201 331.937 28.3337 331.937 27.7728C331.937 27.2031 331.98 26.7167 332.077 26.3179C331.98 25.9104 331.937 25.4328 331.937 24.8806C331.937 24.2978 331.98 23.8114 332.077 23.4258C331.98 23.0183 331.937 22.5319 331.937 21.971C331.937 21.3881 331.98 20.9017 332.077 20.5161H341.875C341.967 20.9017 342.015 21.3881 342.015 21.971C342.015 22.5319 341.967 23.0183 341.875 23.4258H334.986C335.078 23.8114 335.127 24.2978 335.127 24.8806C335.127 25.4328 335.078 25.9104 334.986 26.3179C335.078 26.7167 335.127 27.2031 335.127 27.7728ZM343.102 33.5746C343.102 34.1355 343.054 34.6219 342.962 35.0295H341.875C341.967 35.4151 342.015 35.9015 342.015 36.4843C342.015 37.0364 341.967 37.5141 341.875 37.9216H340.052C340.157 38.3204 340.21 38.8068 340.21 39.3764C340.21 39.9373 340.157 40.4238 340.052 40.8313H333.532C333.435 40.4238 333.391 39.9373 333.391 39.3764C333.391 38.8068 333.435 38.3204 333.532 37.9216H332.077C331.98 37.5141 331.937 37.0364 331.937 36.4843C331.937 35.9015 331.98 35.4151 332.077 35.0295H334.25C334.355 35.4151 334.408 35.9015 334.408 36.4843C334.408 37.0364 334.355 37.5141 334.25 37.9216H338.965C338.869 37.5141 338.825 37.0364 338.825 36.4843C338.825 35.9015 338.869 35.4151 338.965 35.0295H340.052C339.956 34.6219 339.912 34.1355 339.912 33.5746C339.912 33.0049 339.956 32.5185 340.052 32.1198H338.965C338.869 31.7122 338.825 31.2346 338.825 30.6825C338.825 30.0997 338.869 29.6132 338.965 29.2276H336.073C335.968 28.8201 335.915 28.3337 335.915 27.7728C335.915 27.2031 335.968 26.7167 336.073 26.3179H340.052C340.157 26.7167 340.21 27.2031 340.21 27.7728C340.21 28.3337 340.157 28.8201 340.052 29.2276H341.875C341.967 29.6132 342.015 30.0997 342.015 30.6825C342.015 31.2346 341.967 31.7122 341.875 32.1198H342.962C343.054 32.5185 343.102 33.0049 343.102 33.5746Z" fill="black"/>
</svg>
