<svg width="344" height="91" viewBox="0 0 344 91" fill="none" xmlns="http://www.w3.org/2000/svg">
<mask id="mask0_746_101" style="mask-type:luminance" maskUnits="userSpaceOnUse" x="0" y="0" width="344" height="91">
<path d="M0 0H344V91H0V0Z" fill="white"/>
</mask>
<g mask="url(#mask0_746_101)">
<path fill-rule="evenodd" clip-rule="evenodd" d="M294.748 91.0264H304.568V83.443H324.202V75.8545H334.022V60.6878H343.842V30.3493H334.022V15.1826H324.202V7.59408H304.568V0.0107422H39.4352V7.59408H19.7948V15.1826H9.97453V30.3493H0.154297V60.6878H9.97453V75.8545H19.7948V83.443H39.4352V91.0264H294.748Z" fill="black"/>
</g>
<path fill-rule="evenodd" clip-rule="evenodd" d="M294.75 83.4427H304.57V75.8542H324.204V60.6875H334.024V30.349H324.204V15.1823H304.57V7.59375H39.4373V15.1823H19.7968V30.349H9.97656V60.6875H19.7968V75.8542H39.4373V83.4427H294.75Z" fill="#87CFA8"/>
<path fill-rule="evenodd" clip-rule="evenodd" d="M294.75 83.4427H304.57V75.8542H324.204V60.6875H334.024V37.9323H324.204V30.349H314.383V22.7656H29.617V30.349H19.7968V37.9323H9.97656V60.6875H19.7968V75.8594H39.4373V83.4427H294.75Z" fill="#4DC081"/>
<path fill-rule="evenodd" clip-rule="evenodd" d="M294.75 83.4424H304.57V75.8538H324.204V60.6872H334.024V45.5205H324.204V60.6872H314.383V68.2705H294.75V75.8538H49.2575V68.2705H29.617V60.6872H19.7968V45.5205H9.97656V60.6872H19.7968V75.8538H39.4373V83.4424H294.75Z" fill="#A6DABD"/>
<path fill-rule="evenodd" clip-rule="evenodd" d="M9.97656 37.9323H19.7968V30.349H29.617V22.7656H49.2575V15.1823H68.8912V7.59375H39.4373V15.1823H19.7968V30.349H9.97656V37.9323Z" fill="white"/>
<mask id="path-7-outside-1_746_101" maskUnits="userSpaceOnUse" x="70" y="23" width="199" height="44" fill="black">
<rect fill="white" x="70" y="23" width="199" height="44"/>
<path d="M77.1869 64V59.8131H73V51.4292H81.384V59.8131H89.7679V26.2671H98.1519V59.8131H93.965V64H77.1869ZM110.739 64V59.8131H106.552V26.2671H114.936V59.8131H123.32V26.2671H131.704V59.8131H127.517V64H110.739ZM156.872 59.8131V30.4642H148.488V59.8131H156.872ZM140.104 64V26.2671H161.069V30.4642H165.256V59.8131H161.069V64H140.104ZM177.843 64V59.8131H173.657V30.4642H177.843V26.2671H194.622V30.4642H198.808V38.8481H190.424V30.4642H182.041V59.8131H190.424V47.2321H186.227V43.035H198.808V59.8131H194.622V64H177.843ZM207.209 64V26.2671H232.361V30.4642H215.593V43.035H228.174V47.2321H215.593V59.8131H232.361V64H207.209ZM244.948 64V59.8131H240.761V55.616H249.145V59.8131H257.529V47.2321H244.948V43.035H240.761V30.4642H244.948V26.2671H261.726V30.4642H265.913V34.651H257.529V30.4642H249.145V43.035H261.726V47.2321H265.913V59.8131H261.726V64H244.948Z"/>
</mask>
<path d="M77.1869 64V59.8131H73V51.4292H81.384V59.8131H89.7679V26.2671H98.1519V59.8131H93.965V64H77.1869ZM110.739 64V59.8131H106.552V26.2671H114.936V59.8131H123.32V26.2671H131.704V59.8131H127.517V64H110.739ZM156.872 59.8131V30.4642H148.488V59.8131H156.872ZM140.104 64V26.2671H161.069V30.4642H165.256V59.8131H161.069V64H140.104ZM177.843 64V59.8131H173.657V30.4642H177.843V26.2671H194.622V30.4642H198.808V38.8481H190.424V30.4642H182.041V59.8131H190.424V47.2321H186.227V43.035H198.808V59.8131H194.622V64H177.843ZM207.209 64V26.2671H232.361V30.4642H215.593V43.035H228.174V47.2321H215.593V59.8131H232.361V64H207.209ZM244.948 64V59.8131H240.761V55.616H249.145V59.8131H257.529V47.2321H244.948V43.035H240.761V30.4642H244.948V26.2671H261.726V30.4642H265.913V34.651H257.529V30.4642H249.145V43.035H261.726V47.2321H265.913V59.8131H261.726V64H244.948Z" fill="#A6DABD"/>
<path d="M77.1869 64H74.1869V67H77.1869V64ZM77.1869 59.8131H80.1869V56.8131H77.1869V59.8131ZM73 59.8131H70V62.8131H73V59.8131ZM73 51.4292V48.4292H70V51.4292H73ZM81.384 51.4292H84.384V48.4292H81.384V51.4292ZM81.384 59.8131H78.384V62.8131H81.384V59.8131ZM89.7679 59.8131V62.8131H92.7679V59.8131H89.7679ZM89.7679 26.2671V23.2671H86.7679V26.2671H89.7679ZM98.1519 26.2671H101.152V23.2671H98.1519V26.2671ZM98.1519 59.8131V62.8131H101.152V59.8131H98.1519ZM93.965 59.8131V56.8131H90.965V59.8131H93.965ZM93.965 64V67H96.965V64H93.965ZM80.1869 64V59.8131H74.1869V64H80.1869ZM77.1869 56.8131H73V62.8131H77.1869V56.8131ZM76 59.8131V51.4292H70V59.8131H76ZM73 54.4292H81.384V48.4292H73V54.4292ZM78.384 51.4292V59.8131H84.384V51.4292H78.384ZM81.384 62.8131H89.7679V56.8131H81.384V62.8131ZM92.7679 59.8131V26.2671H86.7679V59.8131H92.7679ZM89.7679 29.2671H98.1519V23.2671H89.7679V29.2671ZM95.1519 26.2671V59.8131H101.152V26.2671H95.1519ZM98.1519 56.8131H93.965V62.8131H98.1519V56.8131ZM90.965 59.8131V64H96.965V59.8131H90.965ZM93.965 61H77.1869V67H93.965V61ZM110.739 64H107.739V67H110.739V64ZM110.739 59.8131H113.739V56.8131H110.739V59.8131ZM106.552 59.8131H103.552V62.8131H106.552V59.8131ZM106.552 26.2671V23.2671H103.552V26.2671H106.552ZM114.936 26.2671H117.936V23.2671H114.936V26.2671ZM114.936 59.8131H111.936V62.8131H114.936V59.8131ZM123.32 59.8131V62.8131H126.32V59.8131H123.32ZM123.32 26.2671V23.2671H120.32V26.2671H123.32ZM131.704 26.2671H134.704V23.2671H131.704V26.2671ZM131.704 59.8131V62.8131H134.704V59.8131H131.704ZM127.517 59.8131V56.8131H124.517V59.8131H127.517ZM127.517 64V67H130.517V64H127.517ZM113.739 64V59.8131H107.739V64H113.739ZM110.739 56.8131H106.552V62.8131H110.739V56.8131ZM109.552 59.8131V26.2671H103.552V59.8131H109.552ZM106.552 29.2671H114.936V23.2671H106.552V29.2671ZM111.936 26.2671V59.8131H117.936V26.2671H111.936ZM114.936 62.8131H123.32V56.8131H114.936V62.8131ZM126.32 59.8131V26.2671H120.32V59.8131H126.32ZM123.32 29.2671H131.704V23.2671H123.32V29.2671ZM128.704 26.2671V59.8131H134.704V26.2671H128.704ZM131.704 56.8131H127.517V62.8131H131.704V56.8131ZM124.517 59.8131V64H130.517V59.8131H124.517ZM127.517 61H110.739V67H127.517V61ZM156.872 59.8131V62.8131H159.872V59.8131H156.872ZM156.872 30.4642H159.872V27.4642H156.872V30.4642ZM148.488 30.4642V27.4642H145.488V30.4642H148.488ZM148.488 59.8131H145.488V62.8131H148.488V59.8131ZM140.104 64H137.104V67H140.104V64ZM140.104 26.2671V23.2671H137.104V26.2671H140.104ZM161.069 26.2671H164.069V23.2671H161.069V26.2671ZM161.069 30.4642H158.069V33.4642H161.069V30.4642ZM165.256 30.4642H168.256V27.4642H165.256V30.4642ZM165.256 59.8131V62.8131H168.256V59.8131H165.256ZM161.069 59.8131V56.8131H158.069V59.8131H161.069ZM161.069 64V67H164.069V64H161.069ZM159.872 59.8131V30.4642H153.872V59.8131H159.872ZM156.872 27.4642H148.488V33.4642H156.872V27.4642ZM145.488 30.4642V59.8131H151.488V30.4642H145.488ZM148.488 62.8131H156.872V56.8131H148.488V62.8131ZM143.104 64V26.2671H137.104V64H143.104ZM140.104 29.2671H161.069V23.2671H140.104V29.2671ZM158.069 26.2671V30.4642H164.069V26.2671H158.069ZM161.069 33.4642H165.256V27.4642H161.069V33.4642ZM162.256 30.4642V59.8131H168.256V30.4642H162.256ZM165.256 56.8131H161.069V62.8131H165.256V56.8131ZM158.069 59.8131V64H164.069V59.8131H158.069ZM161.069 61H140.104V67H161.069V61ZM177.843 64H174.843V67H177.843V64ZM177.843 59.8131H180.843V56.8131H177.843V59.8131ZM173.657 59.8131H170.657V62.8131H173.657V59.8131ZM173.657 30.4642V27.4642H170.657V30.4642H173.657ZM177.843 30.4642V33.4642H180.843V30.4642H177.843ZM177.843 26.2671V23.2671H174.843V26.2671H177.843ZM194.622 26.2671H197.622V23.2671H194.622V26.2671ZM194.622 30.4642H191.622V33.4642H194.622V30.4642ZM198.808 30.4642H201.808V27.4642H198.808V30.4642ZM198.808 38.8481V41.8481H201.808V38.8481H198.808ZM190.424 38.8481H187.424V41.8481H190.424V38.8481ZM190.424 30.4642H193.424V27.4642H190.424V30.4642ZM182.041 30.4642V27.4642H179.041V30.4642H182.041ZM182.041 59.8131H179.041V62.8131H182.041V59.8131ZM190.424 59.8131V62.8131H193.424V59.8131H190.424ZM190.424 47.2321H193.424V44.2321H190.424V47.2321ZM186.227 47.2321H183.227V50.2321H186.227V47.2321ZM186.227 43.035V40.035H183.227V43.035H186.227ZM198.808 43.035H201.808V40.035H198.808V43.035ZM198.808 59.8131V62.8131H201.808V59.8131H198.808ZM194.622 59.8131V56.8131H191.622V59.8131H194.622ZM194.622 64V67H197.622V64H194.622ZM180.843 64V59.8131H174.843V64H180.843ZM177.843 56.8131H173.657V62.8131H177.843V56.8131ZM176.657 59.8131V30.4642H170.657V59.8131H176.657ZM173.657 33.4642H177.843V27.4642H173.657V33.4642ZM180.843 30.4642V26.2671H174.843V30.4642H180.843ZM177.843 29.2671H194.622V23.2671H177.843V29.2671ZM191.622 26.2671V30.4642H197.622V26.2671H191.622ZM194.622 33.4642H198.808V27.4642H194.622V33.4642ZM195.808 30.4642V38.8481H201.808V30.4642H195.808ZM198.808 35.8481H190.424V41.8481H198.808V35.8481ZM193.424 38.8481V30.4642H187.424V38.8481H193.424ZM190.424 27.4642H182.041V33.4642H190.424V27.4642ZM179.041 30.4642V59.8131H185.041V30.4642H179.041ZM182.041 62.8131H190.424V56.8131H182.041V62.8131ZM193.424 59.8131V47.2321H187.424V59.8131H193.424ZM190.424 44.2321H186.227V50.2321H190.424V44.2321ZM189.227 47.2321V43.035H183.227V47.2321H189.227ZM186.227 46.035H198.808V40.035H186.227V46.035ZM195.808 43.035V59.8131H201.808V43.035H195.808ZM198.808 56.8131H194.622V62.8131H198.808V56.8131ZM191.622 59.8131V64H197.622V59.8131H191.622ZM194.622 61H177.843V67H194.622V61ZM207.209 64H204.209V67H207.209V64ZM207.209 26.2671V23.2671H204.209V26.2671H207.209ZM232.361 26.2671H235.361V23.2671H232.361V26.2671ZM232.361 30.4642V33.4642H235.361V30.4642H232.361ZM215.593 30.4642V27.4642H212.593V30.4642H215.593ZM215.593 43.035H212.593V46.035H215.593V43.035ZM228.174 43.035H231.174V40.035H228.174V43.035ZM228.174 47.2321V50.2321H231.174V47.2321H228.174ZM215.593 47.2321V44.2321H212.593V47.2321H215.593ZM215.593 59.8131H212.593V62.8131H215.593V59.8131ZM232.361 59.8131H235.361V56.8131H232.361V59.8131ZM232.361 64V67H235.361V64H232.361ZM210.209 64V26.2671H204.209V64H210.209ZM207.209 29.2671H232.361V23.2671H207.209V29.2671ZM229.361 26.2671V30.4642H235.361V26.2671H229.361ZM232.361 27.4642H215.593V33.4642H232.361V27.4642ZM212.593 30.4642V43.035H218.593V30.4642H212.593ZM215.593 46.035H228.174V40.035H215.593V46.035ZM225.174 43.035V47.2321H231.174V43.035H225.174ZM228.174 44.2321H215.593V50.2321H228.174V44.2321ZM212.593 47.2321V59.8131H218.593V47.2321H212.593ZM215.593 62.8131H232.361V56.8131H215.593V62.8131ZM229.361 59.8131V64H235.361V59.8131H229.361ZM232.361 61H207.209V67H232.361V61ZM244.948 64H241.948V67H244.948V64ZM244.948 59.8131H247.948V56.8131H244.948V59.8131ZM240.761 59.8131H237.761V62.8131H240.761V59.8131ZM240.761 55.616V52.616H237.761V55.616H240.761ZM249.145 55.616H252.145V52.616H249.145V55.616ZM249.145 59.8131H246.145V62.8131H249.145V59.8131ZM257.529 59.8131V62.8131H260.529V59.8131H257.529ZM257.529 47.2321H260.529V44.2321H257.529V47.2321ZM244.948 47.2321H241.948V50.2321H244.948V47.2321ZM244.948 43.035H247.948V40.035H244.948V43.035ZM240.761 43.035H237.761V46.035H240.761V43.035ZM240.761 30.4642V27.4642H237.761V30.4642H240.761ZM244.948 30.4642V33.4642H247.948V30.4642H244.948ZM244.948 26.2671V23.2671H241.948V26.2671H244.948ZM261.726 26.2671H264.726V23.2671H261.726V26.2671ZM261.726 30.4642H258.726V33.4642H261.726V30.4642ZM265.913 30.4642H268.913V27.4642H265.913V30.4642ZM265.913 34.651V37.651H268.913V34.651H265.913ZM257.529 34.651H254.529V37.651H257.529V34.651ZM257.529 30.4642H260.529V27.4642H257.529V30.4642ZM249.145 30.4642V27.4642H246.145V30.4642H249.145ZM249.145 43.035H246.145V46.035H249.145V43.035ZM261.726 43.035H264.726V40.035H261.726V43.035ZM261.726 47.2321H258.726V50.2321H261.726V47.2321ZM265.913 47.2321H268.913V44.2321H265.913V47.2321ZM265.913 59.8131V62.8131H268.913V59.8131H265.913ZM261.726 59.8131V56.8131H258.726V59.8131H261.726ZM261.726 64V67H264.726V64H261.726ZM247.948 64V59.8131H241.948V64H247.948ZM244.948 56.8131H240.761V62.8131H244.948V56.8131ZM243.761 59.8131V55.616H237.761V59.8131H243.761ZM240.761 58.616H249.145V52.616H240.761V58.616ZM246.145 55.616V59.8131H252.145V55.616H246.145ZM249.145 62.8131H257.529V56.8131H249.145V62.8131ZM260.529 59.8131V47.2321H254.529V59.8131H260.529ZM257.529 44.2321H244.948V50.2321H257.529V44.2321ZM247.948 47.2321V43.035H241.948V47.2321H247.948ZM244.948 40.035H240.761V46.035H244.948V40.035ZM243.761 43.035V30.4642H237.761V43.035H243.761ZM240.761 33.4642H244.948V27.4642H240.761V33.4642ZM247.948 30.4642V26.2671H241.948V30.4642H247.948ZM244.948 29.2671H261.726V23.2671H244.948V29.2671ZM258.726 26.2671V30.4642H264.726V26.2671H258.726ZM261.726 33.4642H265.913V27.4642H261.726V33.4642ZM262.913 30.4642V34.651H268.913V30.4642H262.913ZM265.913 31.651H257.529V37.651H265.913V31.651ZM260.529 34.651V30.4642H254.529V34.651H260.529ZM257.529 27.4642H249.145V33.4642H257.529V27.4642ZM246.145 30.4642V43.035H252.145V30.4642H246.145ZM249.145 46.035H261.726V40.035H249.145V46.035ZM258.726 43.035V47.2321H264.726V43.035H258.726ZM261.726 50.2321H265.913V44.2321H261.726V50.2321ZM262.913 47.2321V59.8131H268.913V47.2321H262.913ZM265.913 56.8131H261.726V62.8131H265.913V56.8131ZM258.726 59.8131V64H264.726V59.8131H258.726ZM261.726 61H244.948V67H261.726V61Z" fill="black" mask="url(#path-7-outside-1_746_101)"/>
</svg>
