<svg width="546" height="375" viewBox="0 0 546 375" fill="none" xmlns="http://www.w3.org/2000/svg">
<path d="M361.285 28.6055V19.957H431.781V28.6055H361.285ZM352.48 28.6055V19.957H343.668V28.6055H352.48ZM334.856 28.6055V19.957H326.05V28.6055H334.856ZM308.42 28.6055V19.957H299.608V28.6055H308.42ZM290.802 28.6055V19.957H281.99V28.6055H290.802ZM264.36 28.6055V19.957H255.554V28.6055H264.36ZM246.742 28.6055V19.957H237.937V28.6055H246.742ZM220.306 28.6055V19.957H211.495V28.6055H220.306ZM202.689 28.6055V19.957H193.877V28.6055H202.689ZM114.576 28.6055H185.065V19.957H114.55V28.6055H114.576ZM449.418 37.2478H502.289V28.6055H440.599V37.2478H449.418ZM52.8854 37.2478H105.751V28.6055H44.0545V37.2478H52.8854ZM528.725 45.8962V71.8416H537.537V28.6055H528.725V45.8962ZM511.108 45.8962V71.8416H519.913V28.6055H511.108V45.8962ZM35.2678 54.5385V28.5931H26.4558V71.8354H35.2678V54.5385ZM17.6502 54.5385V28.5931H8.80664V71.8354H17.6186V54.5385H17.6502ZM528.738 97.7808V123.726H537.544V80.4901H528.738V97.7808ZM511.114 97.7808V123.726H519.926V80.4901H511.114V97.7808ZM26.4685 97.7808V123.726H35.2804V80.4901H26.4685V97.7808ZM8.85086 97.7808V123.726H17.6565V80.4901H8.80664V97.7808H8.85086ZM493.496 149.665V253.459H502.308V132.387H493.496V149.678V149.665ZM44.0987 149.665V253.459H52.9044V132.387H44.0987V149.678V149.665ZM528.744 158.314V244.792H537.556V141.011H528.744V158.314ZM511.127 158.314V244.792H519.939V141.011H511.127V158.314ZM35.2489 227.508V141.029H26.4369V244.811H35.2489V227.508ZM17.6312 227.508V141.029H8.80664V244.811H17.6186V227.52L17.6312 227.508ZM528.713 279.392V305.344H537.525V262.102H528.713V279.392ZM511.095 279.392V305.344H519.907V262.102H511.095V279.392ZM26.4495 279.392V305.344H35.2552V262.102H26.4495V279.392ZM8.83191 279.392V305.344H17.6376V262.102H8.80664V279.392H8.83191ZM528.706 331.289V357.241H537.512V313.986H528.706V331.289ZM511.089 331.289V357.241H519.894V313.986H511.089V331.289ZM26.4369 331.289V357.241H35.2489V313.986H26.4369V331.289ZM8.81927 331.289V357.241H17.6312V313.986H8.80664V331.283L8.81927 331.289ZM449.399 357.241H502.264V348.592H440.58V357.241H449.399ZM96.9326 348.58H44.0545V357.229H105.745V348.58H96.9326ZM422.975 357.229H361.285V365.883H431.781V357.241H422.975V357.229ZM343.668 357.229V365.883H352.48V357.241H343.668V357.229ZM326.05 357.229V365.883H334.856V357.241H326.05V357.229ZM299.608 357.229V365.883H308.42V357.241H299.608V357.229ZM281.99 357.229V365.883H290.802V357.241H281.99V357.229ZM255.554 357.229V365.883H264.36V357.241H255.554V357.229ZM237.937 357.229V365.883H246.742V357.241H237.937V357.229ZM211.495 357.229V365.883H220.306V357.241H211.495V357.229ZM193.877 357.229V365.883H202.689V357.241H193.877V357.229ZM176.259 357.229H114.576V365.883H185.065V357.241H176.259V357.229Z" fill="black"/>
<path d="M519.894 28.6055V19.957H528.706V28.6055H519.894ZM449.399 28.6055H502.264V19.957H440.58V28.6055H449.399ZM52.8665 28.6055H105.732V19.957H44.0545V28.6055H52.8665ZM17.6186 28.6055H26.4306V19.957H17.6186V28.6055ZM343.655 28.6055H193.858V37.2478H352.467V28.6055H343.655ZM528.706 80.4901V71.8416H519.894V80.4901H528.706ZM26.4369 80.4901V71.8416H17.6312V80.4901H26.4369ZM519.894 141.029H537.512V132.387H511.076V141.029H519.894ZM17.6312 141.029H35.2489V132.387H8.80664V141.029H17.6312ZM519.894 253.459H537.512V244.811H511.076V253.459H519.894ZM17.6312 253.459H35.2489V244.811H8.80664V253.459H17.6312ZM528.713 313.999V305.35H519.907V313.999H528.713ZM26.4495 313.999V305.35H17.6376V313.999H26.4495ZM202.67 357.241H352.467V348.592H193.858V357.241H202.67ZM528.706 365.883V357.241H519.894V365.883H528.706ZM449.399 365.883H502.264V357.241H440.58V365.883H449.399ZM96.9326 357.241H44.0545V365.883H105.745V357.241H96.9326ZM17.6312 357.241V365.883H26.4369V357.241H17.6312Z" fill="#FFEECC"/>
<mask id="mask0_739_249" style="mask-type:luminance" maskUnits="userSpaceOnUse" x="0" y="11" width="546" height="364">
<path d="M0 11.4824H545.773V374.532H0V11.4824Z" fill="white"/>
</mask>
<g mask="url(#mask0_739_249)">
<path d="M61.6838 19.945H105.744V37.2419H114.549V45.8842H185.045V37.2419H193.857V19.945H202.669V28.5935H211.475V19.945H220.287V28.5935H237.904V19.945H246.71V28.5935H255.522V19.945H264.334V28.5935H281.951V19.945H290.757V28.5935H299.569V19.945H308.381V28.5935H325.999V19.945H334.804V28.5935H343.616V19.945H352.428V37.2419H361.234V45.8842H431.73V37.2419H440.542V19.945H502.225V11.3027H44.0535V19.945H61.6838ZM370.096 19.945H431.78V28.5935H361.284V19.945H370.096ZM123.361 19.945H185.045V28.5935H114.549V19.945H123.361ZM0 19.945V374.532H35.2479V365.884H44.0535V348.58H105.744V339.938H44.0535V262.102H52.8655V253.46H44.0535V132.387H52.8655V123.739H44.0535V45.9028H105.744V37.2605H44.0535V19.9698H35.2479V11.3213H0V19.9698V19.945ZM35.2479 270.75V305.344H26.4359V313.987H35.2479V357.241H26.4359V365.884H17.6303V357.241H8.80565V313.987H17.6176V305.344H8.80565V262.102H17.6176V305.344H26.4296V262.102H35.2352V270.75H35.2479ZM35.2479 141.023V253.46H8.80565V132.387H35.2479V141.03V141.023ZM26.4359 19.945V28.5935H35.2479V71.8358H26.4359V80.478H35.2479V123.72H26.4359V80.478H17.6303V123.72H8.80565V80.478H17.6176V71.8358H8.80565V28.5935H17.6176V19.945H26.4359ZM502.276 37.2419H440.592V45.8842H502.276V123.72H493.464V132.363H502.276V253.46H493.464V262.102H502.276V339.938H440.592V348.58H502.276V365.884H511.088V374.532H546.336V11.3027H511.088V19.945H502.276V37.2419ZM537.524 270.738V305.332H528.712V313.98H537.524V357.241H528.712V365.884H519.906V357.241H511.094V313.987H519.906V305.344H511.094V262.102H519.906V305.344H528.712V262.102H537.524V270.75V270.738ZM537.524 141.011V253.46H511.088V132.387H537.524V141.03V141.011ZM519.906 19.9388H528.712V28.5811H537.524V71.8234H528.712V80.4718H537.524V123.708H528.712V80.4718H519.906V123.708H511.094V80.4718H519.906V71.8234H511.094V28.5811H519.906V19.9388ZM17.6366 28.5811H26.4485V71.8234H17.6366V28.5811ZM519.906 37.2295V28.5811H528.712V71.8234H519.906V37.2295ZM193.863 45.878V37.2295H352.479V45.878H193.857H193.863ZM484.658 132.356H493.464V253.46H484.658V132.356ZM519.906 149.647V140.999H528.712V244.78H519.906V149.647ZM17.6366 149.647V140.999H26.4485V244.78H17.6366V149.647ZM61.6838 253.46H52.8781V132.387H61.6838V253.46ZM519.893 313.999H528.705V357.241H519.893V313.987V313.999ZM17.6303 313.999H26.4359V357.241H17.6303V313.987V313.999ZM352.479 339.944V348.593H193.857V339.944H352.479ZM484.646 365.884H440.592V348.58H431.78V339.938H361.284V348.58H352.479V365.884H343.667V357.241H334.855V365.884H326.049V357.241H308.432V365.884H299.62V357.241H290.808V365.884H282.002V357.241H264.384V365.884H255.572V357.241H246.76V365.884H237.955V357.241H220.337V365.884H211.525V357.241H202.713V365.884H193.908V348.58H185.096V339.938H114.549V348.58H105.744V365.884H44.0535V374.532H502.263V365.884H484.646ZM176.239 365.884H114.549V357.241H185.045V365.884H176.239ZM422.974 365.884H361.284V357.241H431.78V365.884H422.974Z" fill="#42A56E"/>
<path d="M61.6838 19.945H105.744V37.2419H114.549V45.8842H185.045V37.2419H193.857V19.945H202.669V28.5935H211.475V19.945H220.287V28.5935H237.904V19.945H246.71V28.5935H255.522V19.945H264.334V28.5935H281.951V19.945H290.757V28.5935H299.569V19.945H308.381V28.5935H325.999V19.945H334.804V28.5935H343.616V19.945H352.428V37.2419H361.234V45.8842H431.73V37.2419H440.542V19.945H502.225V11.3027H44.0535V19.945H61.6838ZM370.096 19.945H431.78V28.5935H361.284V19.945H370.096ZM123.361 19.945H185.045V28.5935H114.549V19.945H123.361ZM0 19.945V374.532H35.2479V365.884H44.0535V348.58H105.744V339.938H44.0535V262.102H52.8655V253.46H44.0535V132.387H52.8655V123.739H44.0535V45.9028H105.744V37.2605H44.0535V19.9698H35.2479V11.3213H0V19.9698V19.945ZM35.2479 270.75V305.344H26.4359V313.987H35.2479V357.241H26.4359V365.884H17.6303V357.241H8.80565V313.987H17.6176V305.344H8.80565V262.102H17.6176V305.344H26.4296V262.102H35.2352V270.75H35.2479ZM35.2479 141.023V253.46H8.80565V132.387H35.2479V141.03V141.023ZM26.4359 19.945V28.5935H35.2479V71.8358H26.4359V80.478H35.2479V123.72H26.4359V80.478H17.6303V123.72H8.80565V80.478H17.6176V71.8358H8.80565V28.5935H17.6176V19.945H26.4359ZM502.276 37.2419H440.592V45.8842H502.276V123.72H493.464V132.363H502.276V253.46H493.464V262.102H502.276V339.938H440.592V348.58H502.276V365.884H511.088V374.532H546.336V11.3027H511.088V19.945H502.276V37.2419ZM537.524 270.738V305.332H528.712V313.98H537.524V357.241H528.712V365.884H519.906V357.241H511.094V313.987H519.906V305.344H511.094V262.102H519.906V305.344H528.712V262.102H537.524V270.75V270.738ZM537.524 141.011V253.46H511.088V132.387H537.524V141.03V141.011ZM519.906 19.9388H528.712V28.5811H537.524V71.8234H528.712V80.4718H537.524V123.708H528.712V80.4718H519.906V123.708H511.094V80.4718H519.906V71.8234H511.094V28.5811H519.906V19.9388ZM17.6366 28.5811H26.4485V71.8234H17.6366V28.5811ZM519.906 37.2295V28.5811H528.712V71.8234H519.906V37.2295ZM193.863 45.878V37.2295H352.479V45.878H193.857H193.863ZM484.658 132.356H493.464V253.46H484.658V132.356ZM519.906 149.647V140.999H528.712V244.78H519.906V149.647ZM17.6366 149.647V140.999H26.4485V244.78H17.6366V149.647ZM61.6838 253.46H52.8781V132.387H61.6838V253.46ZM519.893 313.999H528.705V357.241H519.893V313.987V313.999ZM17.6303 313.999H26.4359V357.241H17.6303V313.987V313.999ZM352.479 339.944V348.593H193.857V339.944H352.479ZM484.646 365.884H440.592V348.58H431.78V339.938H361.284V348.58H352.479V365.884H343.667V357.241H334.855V365.884H326.049V357.241H308.432V365.884H299.62V357.241H290.808V365.884H282.002V357.241H264.384V365.884H255.572V357.241H246.76V365.884H237.955V357.241H220.337V365.884H211.525V357.241H202.713V365.884H193.908V348.58H185.096V339.938H114.549V348.58H105.744V365.884H44.0535V374.532H502.263V365.884H484.646ZM176.239 365.884H114.549V357.241H185.045V365.884H176.239ZM422.974 365.884H361.284V357.241H431.78V365.884H422.974Z" fill="#42A56E"/>
<path d="M61.6838 19.945H105.744V37.2419H114.549V45.8842H185.045V37.2419H193.857V19.945H202.669V28.5935H211.475V19.945H220.287V28.5935H237.904V19.945H246.71V28.5935H255.522V19.945H264.334V28.5935H281.951V19.945H290.757V28.5935H299.569V19.945H308.381V28.5935H325.999V19.945H334.804V28.5935H343.616V19.945H352.428V37.2419H361.234V45.8842H431.73V37.2419H440.542V19.945H502.225V11.3027H44.0535V19.945H61.6838ZM370.096 19.945H431.78V28.5935H361.284V19.945H370.096ZM123.361 19.945H185.045V28.5935H114.549V19.945H123.361ZM0 19.945V374.532H35.2479V365.884H44.0535V348.58H105.744V339.938H44.0535V262.102H52.8655V253.46H44.0535V132.387H52.8655V123.739H44.0535V45.9028H105.744V37.2605H44.0535V19.9698H35.2479V11.3213H0V19.9698V19.945ZM35.2479 270.75V305.344H26.4359V313.987H35.2479V357.241H26.4359V365.884H17.6303V357.241H8.80565V313.987H17.6176V305.344H8.80565V262.102H17.6176V305.344H26.4296V262.102H35.2352V270.75H35.2479ZM35.2479 141.023V253.46H8.80565V132.387H35.2479V141.03V141.023ZM26.4359 19.945V28.5935H35.2479V71.8358H26.4359V80.478H35.2479V123.72H26.4359V80.478H17.6303V123.72H8.80565V80.478H17.6176V71.8358H8.80565V28.5935H17.6176V19.945H26.4359ZM502.276 37.2419H440.592V45.8842H502.276V123.72H493.464V132.363H502.276V253.46H493.464V262.102H502.276V339.938H440.592V348.58H502.276V365.884H511.088V374.532H546.336V11.3027H511.088V19.945H502.276V37.2419ZM537.524 270.738V305.332H528.712V313.98H537.524V357.241H528.712V365.884H519.906V357.241H511.094V313.987H519.906V305.344H511.094V262.102H519.906V305.344H528.712V262.102H537.524V270.75V270.738ZM537.524 141.011V253.46H511.088V132.387H537.524V141.03V141.011ZM519.906 19.9388H528.712V28.5811H537.524V71.8234H528.712V80.4718H537.524V123.708H528.712V80.4718H519.906V123.708H511.094V80.4718H519.906V71.8234H511.094V28.5811H519.906V19.9388ZM17.6366 28.5811H26.4485V71.8234H17.6366V28.5811ZM519.906 37.2295V28.5811H528.712V71.8234H519.906V37.2295ZM193.863 45.878V37.2295H352.479V45.878H193.857H193.863ZM484.658 132.356H493.464V253.46H484.658V132.356ZM519.906 149.647V140.999H528.712V244.78H519.906V149.647ZM17.6366 149.647V140.999H26.4485V244.78H17.6366V149.647ZM61.6838 253.46H52.8781V132.387H61.6838V253.46ZM519.893 313.999H528.705V357.241H519.893V313.987V313.999ZM17.6303 313.999H26.4359V357.241H17.6303V313.987V313.999ZM352.479 339.944V348.593H193.857V339.944H352.479ZM484.646 365.884H440.592V348.58H431.78V339.938H361.284V348.58H352.479V365.884H343.667V357.241H334.855V365.884H326.049V357.241H308.432V365.884H299.62V357.241H290.808V365.884H282.002V357.241H264.384V365.884H255.572V357.241H246.76V365.884H237.955V357.241H220.337V365.884H211.525V357.241H202.713V365.884H193.908V348.58H185.096V339.938H114.549V348.58H105.744V365.884H44.0535V374.532H502.263V365.884H484.646ZM176.239 365.884H114.549V357.241H185.045V365.884H176.239ZM422.974 365.884H361.284V357.241H431.78V365.884H422.974Z" fill="#42A56E"/>
</g>
</svg>
