<svg width="140" height="715" viewBox="0 0 140 715" fill="none" xmlns="http://www.w3.org/2000/svg">
<mask id="mask0_589_1619" style="mask-type:luminance" maskUnits="userSpaceOnUse" x="45" y="0" width="46" height="368">
<path d="M45.5508 0H90.064V367.734H45.5508V0Z" fill="white"/>
</mask>
<g mask="url(#mask0_589_1619)">
<path d="M89.4437 43.2641V28.8427H82.2401V14.4214H75.04V0H60.64V14.4214H67.84V28.8427H75.04V57.6855H67.84V79.314H60.64V93.7354H53.4364V108.157H46.2363V144.21H53.4364V158.632H60.64V173.053H67.84V187.471H75.04V216.314H67.84V230.735H60.64V245.156H53.4364V281.21H60.64V295.628H67.84V310.049H75.04V324.47H67.84V338.892H60.64V353.313H53.4364V367.734H67.84V353.313H75.04V338.892H82.2401V324.47H89.4437V310.049H82.2401V295.628H75.04V281.21H67.84V245.156H75.04V230.735H82.2401V216.314H89.4437V187.471H82.2401V173.053H75.04V158.632H67.84V144.21H60.64V108.157H67.84V93.7354H75.04V79.314H82.2401V57.6855H89.4437V43.2641Z" fill="#2E1B5B"/>
</g>
<mask id="mask1_589_1619" style="mask-type:luminance" maskUnits="userSpaceOnUse" x="89" y="42" width="51" height="46">
<path d="M89.1543 42.6963H139.878V87.2095H89.1543V42.6963Z" fill="white"/>
</mask>
<g mask="url(#mask1_589_1619)">
<path d="M132.645 64.8927V57.6855H125.445V50.4748H118.245V43.2642H103.841V50.4748H96.6414V57.6855H89.4414V72.1034H96.6414V79.314H103.841V86.5247H125.445V79.314H132.645V72.1034H139.845V64.8927H132.645Z" fill="#2E1B5B"/>
</g>
<mask id="mask2_589_1619" style="mask-type:luminance" maskUnits="userSpaceOnUse" x="3" y="71" width="51" height="39">
<path d="M3 71.7661H53.7268V109.012H3V71.7661Z" fill="white"/>
</mask>
<g mask="url(#mask2_589_1619)">
<path d="M46.2347 86.5244V79.3137H39.0346V72.103H17.431V79.3137H10.2309V86.5244H3.02734V93.7351H10.2309V100.946H17.431V108.156H39.0346V100.946H46.2347V93.7351H53.4347V86.5244H46.2347Z" fill="#2E1B5B"/>
</g>
<path d="M67.8397 43.2639V36.0532H60.6397V28.8425H53.4361V21.6318H31.8359V43.2639H39.036V50.4746H46.236V57.6853H67.8397V43.2639Z" fill="#2E1B5B"/>
<path d="M82.2399 144.21H89.4435V136.999H96.6436V129.789H103.844V108.157H82.2399V115.367H75.0399V122.578H67.8398V144.21H82.2399Z" fill="#2E1B5B"/>
<path d="M31.8341 144.21H24.6306V151.421H17.4305V158.631H10.2305V180.26H31.8341V173.053H39.0342V165.842H46.2342V144.21H31.8341Z" fill="#2E1B5B"/>
<path d="M60.6382 216.313V209.103H53.4346V201.892H46.2345V194.681H24.6309V216.313H31.8344V223.524H39.0345V230.735H60.6382V216.313Z" fill="#2E1B5B"/>
<path d="M82.2383 245.156V252.367H89.4419V259.578H96.6419V266.788H118.246V245.156H111.042V237.946H103.842V230.735H82.2383V245.156Z" fill="#2E1B5B"/>
<path d="M39.0353 281.209H31.8353V288.42H24.6317V295.627H17.4316V317.259H39.0353V310.049H46.2354V302.838H53.4354V281.209H39.0353Z" fill="#2E1B5B"/>
<path d="M96.6414 317.26H118.245V310.049H125.445V295.628H118.245V288.42H96.6414V295.628H89.4414V310.049H96.6414V317.26Z" fill="#2E1B5B"/>
<path d="M53.4355 245.156H67.8392V281.21H53.4355V245.156Z" fill="#029316"/>
<path d="M60.6387 230.735H75.0388V245.156H60.6387V230.735Z" fill="#029316"/>
<path d="M67.8398 216.313H82.2399V230.735H67.8398V216.313Z" fill="#029316"/>
<path d="M75.0371 187.471H89.4407V216.313H75.0371V187.471Z" fill="#029316"/>
<path d="M67.8398 173.053H82.2399V187.471H67.8398V173.053Z" fill="#029316"/>
<path d="M60.6387 158.631H75.0388V173.053H60.6387V158.631Z" fill="#029316"/>
<path d="M53.4355 144.21H67.8392V158.631H53.4355V144.21Z" fill="#029316"/>
<path d="M46.2344 108.157H60.638V144.21H46.2344V108.157Z" fill="#029316"/>
<path d="M53.4355 93.7354H67.8392V108.157H53.4355V93.7354Z" fill="#029316"/>
<path d="M60.6387 79.314H75.0388V93.7353H60.6387V79.314Z" fill="#029316"/>
<path d="M67.8398 57.6855H82.2399V79.3141H67.8398V57.6855Z" fill="#029316"/>
<path d="M75.0371 28.8428H89.4407V57.6855H75.0371V28.8428Z" fill="#029316"/>
<path d="M67.8398 21.6318H82.2399V28.8425H67.8398V21.6318Z" fill="#029316"/>
<path d="M67.8398 14.4214H82.2399V21.6321H67.8398V14.4214Z" fill="#029316"/>
<path d="M60.6387 281.209H75.0388V295.627H60.6387V281.209Z" fill="#029316"/>
<path d="M67.8398 295.627H82.2399V310.049H67.8398V295.627Z" fill="#029316"/>
<path d="M75.0371 310.049H89.4407V324.47H75.0371V310.049Z" fill="#029316"/>
<path d="M67.8398 324.47H82.2399V338.892H67.8398V324.47Z" fill="#029316"/>
<path d="M60.6387 338.892H75.0388V353.313H60.6387V338.892Z" fill="#029316"/>
<path d="M67.8398 14.4214H75.0399V28.8428H67.8398V14.4214Z" fill="#2E1B5B"/>
<path d="M75.0371 28.8428H82.2372V57.6855H75.0371V28.8428Z" fill="#2E1B5B"/>
<path d="M67.8398 57.6855H75.0399V79.3141H67.8398V57.6855Z" fill="#2E1B5B"/>
<path d="M60.6387 79.314H67.8387V93.7353H60.6387V79.314Z" fill="#2E1B5B"/>
<path d="M53.4355 93.7354H60.6391V108.157H53.4355V93.7354Z" fill="#2E1B5B"/>
<path d="M46.2344 108.157H53.4344V144.21H46.2344V108.157Z" fill="#2E1B5B"/>
<path d="M53.4355 144.21H60.6391V158.631H53.4355V144.21Z" fill="#2E1B5B"/>
<path d="M60.6387 158.631H67.8387V173.053H60.6387V158.631Z" fill="#2E1B5B"/>
<path d="M67.8398 173.053H75.0399V187.471H67.8398V173.053Z" fill="#2E1B5B"/>
<path d="M75.0371 187.471H82.2372V216.313H75.0371V187.471Z" fill="#2E1B5B"/>
<path d="M67.8398 216.313H75.0399V230.735H67.8398V216.313Z" fill="#2E1B5B"/>
<path d="M60.6387 230.735H67.8387V245.156H60.6387V230.735Z" fill="#2E1B5B"/>
<path d="M53.4355 245.156H60.6391V281.21H53.4355V245.156Z" fill="#2E1B5B"/>
<path d="M60.6387 281.209H67.8387V295.627H60.6387V281.209Z" fill="#2E1B5B"/>
<path d="M67.8398 295.627H75.0399V310.049H67.8398V295.627Z" fill="#2E1B5B"/>
<path d="M75.0371 310.049H82.2372V324.47H75.0371V310.049Z" fill="#2E1B5B"/>
<path d="M67.8398 324.47H75.0399V338.892H67.8398V324.47Z" fill="#2E1B5B"/>
<path d="M60.6387 338.892H67.8387V353.313H60.6387V338.892Z" fill="#2E1B5B"/>
<path d="M75.0371 14.4214H82.2372V21.6321H75.0371V14.4214Z" fill="#005B52"/>
<path d="M60.6387 7.21045H75.0388V14.4211H60.6387V7.21045Z" fill="#029316"/>
<path d="M60.6387 0H75.0388V7.21069H60.6387V0Z" fill="#029316"/>
<path d="M60.6387 0H67.8387V14.4214H60.6387V0Z" fill="#2E1B5B"/>
<path d="M67.8398 0H75.0399V7.21069H67.8398V0Z" fill="#005B52"/>
<path d="M82.2383 28.8428H89.4419V36.0535H82.2383V28.8428Z" fill="#005B52"/>
<path d="M82.2383 43.2642H89.4419V50.4748H82.2383V43.2642Z" fill="#005B52"/>
<path d="M75.0371 57.6855H82.2372V64.8927H75.0371V57.6855Z" fill="#005B52"/>
<path d="M75.0371 72.1035H82.2372V79.3142H75.0371V72.1035Z" fill="#005B52"/>
<path d="M67.8398 86.5249H75.0399V93.7356H67.8398V86.5249Z" fill="#005B52"/>
<path d="M60.6387 100.946H67.8387V108.156H60.6387V100.946Z" fill="#005B52"/>
<path d="M53.4355 115.368H60.6391V122.578H53.4355V115.368Z" fill="#005B52"/>
<path d="M53.4355 129.789H60.6391V136.999H53.4355V129.789Z" fill="#005B52"/>
<path d="M60.6387 144.21H67.8387V151.421H60.6387V144.21Z" fill="#005B52"/>
<path d="M67.8398 158.631H75.0399V165.842H67.8398V158.631Z" fill="#005B52"/>
<path d="M75.0371 173.053H82.2372V180.26H75.0371V173.053Z" fill="#005B52"/>
<path d="M82.2383 187.471H89.4419V194.681H82.2383V187.471Z" fill="#005B52"/>
<path d="M82.2383 201.892H89.4419V209.103H82.2383V201.892Z" fill="#005B52"/>
<path d="M75.0371 216.313H82.2372V223.524H75.0371V216.313Z" fill="#005B52"/>
<path d="M67.8398 230.735H75.0399V237.946H67.8398V230.735Z" fill="#005B52"/>
<path d="M60.6387 245.156H67.8387V252.367H60.6387V245.156Z" fill="#005B52"/>
<path d="M60.6387 259.578H67.8387V266.788H60.6387V259.578Z" fill="#005B52"/>
<path d="M60.6387 273.999H67.8387V281.21H60.6387V273.999Z" fill="#005B52"/>
<path d="M67.8398 288.42H75.0399V295.628H67.8398V288.42Z" fill="#005B52"/>
<path d="M75.0371 302.838H82.2372V310.049H75.0371V302.838Z" fill="#005B52"/>
<path d="M82.2383 317.26H89.4419V324.47H82.2383V317.26Z" fill="#005B52"/>
<path d="M75.0371 331.681H82.2372V338.891H75.0371V331.681Z" fill="#005B52"/>
<path d="M67.8398 346.103H75.0399V353.313H67.8398V346.103Z" fill="#005B52"/>
<mask id="mask3_589_1619" style="mask-type:luminance" maskUnits="userSpaceOnUse" x="52" y="352" width="17" height="16">
<path d="M52.8164 352.472H68.2598V367.735H52.8164V352.472Z" fill="white"/>
</mask>
<g mask="url(#mask3_589_1619)">
<path d="M53.4336 353.313H67.8372V367.734H53.4336V353.313Z" fill="#029316"/>
</g>
<mask id="mask4_589_1619" style="mask-type:luminance" maskUnits="userSpaceOnUse" x="52" y="352" width="9" height="16">
<path d="M52.8164 352.472H60.9923V367.735H52.8164V352.472Z" fill="white"/>
</mask>
<g mask="url(#mask4_589_1619)">
<path d="M53.4336 353.313H60.6372V367.734H53.4336V353.313Z" fill="#2E1B5B"/>
</g>
<mask id="mask5_589_1619" style="mask-type:luminance" maskUnits="userSpaceOnUse" x="60" y="359" width="9" height="9">
<path d="M60.082 359.739H68.2579V367.734H60.082V359.739Z" fill="white"/>
</mask>
<g mask="url(#mask5_589_1619)">
<path d="M60.6367 360.523H67.8368V367.734H60.6367V360.523Z" fill="#005B52"/>
</g>
<path d="M60.6397 36.0532V28.8425H53.4361V21.6318H31.8359V43.2639H39.036V50.4746H46.236V57.6853H67.8397V36.0532H60.6397Z" fill="#029316"/>
<path d="M53.4346 209.103V201.892H46.2345V194.681H24.6309V216.313H31.8344V223.524H39.0345V230.735H60.6382V209.103H53.4346Z" fill="#029316"/>
<path d="M111.042 245.156V237.946H103.842V230.735H82.2383V252.367H89.4419V259.578H96.6419V266.788H118.246V245.156H111.042Z" fill="#029316"/>
<path d="M96.6436 108.157H82.2399V115.367H75.0399V122.578H67.8398V144.21H89.4435V136.999H96.6436V129.789H103.844V108.157H96.6436Z" fill="#029316"/>
<path d="M46.2354 281.209H31.8353V288.42H24.6317V295.627H17.4316V317.259H39.0353V310.049H46.2354V302.838H53.4354V281.209H46.2354Z" fill="#029316"/>
<path d="M39.0342 144.21H24.6306V151.421H17.4305V158.631H10.2305V180.26H31.8341V173.053H39.0342V165.842H46.2342V144.21H39.0342Z" fill="#029316"/>
<path d="M53.4352 36.0535V28.8428H39.0352V43.2641H46.2352V50.4748H60.6388V36.0535H53.4352Z" fill="#10D000"/>
<path d="M46.2344 86.5249H53.4344V93.7356H46.2344V86.5249Z" fill="#029316"/>
<mask id="mask6_589_1619" style="mask-type:luminance" maskUnits="userSpaceOnUse" x="89" y="42" width="51" height="46">
<path d="M89.1543 42.6963H139.878V87.2095H89.1543V42.6963Z" fill="white"/>
</mask>
<g mask="url(#mask6_589_1619)">
<path d="M132.645 64.8927V57.6855H125.445V50.4748H118.245V43.2642H103.841V50.4748H96.6414V57.6855H89.4414V72.1034H96.6414V79.314H103.841V86.5247H125.445V79.314H132.645V72.1034H139.845V64.8927H132.645Z" fill="#029316"/>
</g>
<mask id="mask7_589_1619" style="mask-type:luminance" maskUnits="userSpaceOnUse" x="3" y="71" width="44" height="39">
<path d="M3 71.7661H46.4593V109.012H3V71.7661Z" fill="white"/>
</mask>
<g mask="url(#mask7_589_1619)">
<path d="M39.0346 79.3137V72.103H17.431V79.3137H10.2309V86.5244H3.02734V93.7351H10.2309V100.946H17.431V108.156H39.0346V100.946H46.2347V79.3137H39.0346Z" fill="#029316"/>
</g>
<path d="M118.245 295.628V288.42H96.6414V295.628H89.4414V310.049H96.6414V317.26H118.245V310.049H125.445V295.628H118.245Z" fill="#029316"/>
<path d="M39.0352 28.8428H46.2352V36.0535H39.0352V28.8428Z" fill="#A2F255"/>
<path d="M46.2344 36.0532H53.4344V43.2639H46.2344V36.0532Z" fill="#A2F255"/>
<path d="M53.4355 43.2642H60.6391V50.4748H53.4355V43.2642Z" fill="#A2F255"/>
<path d="M89.4407 129.789H96.6408V115.368H82.2372V122.578H75.0371V137H89.4407V129.789Z" fill="#10D000"/>
<path d="M96.6414 115.368V122.578H89.4414V115.368H96.6414Z" fill="#A2F255"/>
<path d="M89.4419 122.578V129.789H82.2383V122.578H89.4419Z" fill="#A2F255"/>
<path d="M82.2372 129.789V136.999H75.0371V129.789H82.2372Z" fill="#A2F255"/>
<path d="M31.8353 165.842H39.0353V151.421H24.6317V158.632H17.4316V173.053H31.8353V165.842Z" fill="#10D000"/>
<path d="M39.036 151.421V158.632H31.8359V151.421H39.036Z" fill="#A2F255"/>
<path d="M31.8344 158.631V165.842H24.6309V158.631H31.8344Z" fill="#A2F255"/>
<path d="M24.6317 165.842V173.053H17.4316V165.842H24.6317Z" fill="#A2F255"/>
<path d="M39.0345 302.838H46.2345V288.42H31.8344V295.628H24.6309V310.049H39.0345V302.838Z" fill="#10D000"/>
<path d="M46.2352 288.42V295.628H39.0352V288.42H46.2352Z" fill="#A2F255"/>
<path d="M39.036 295.627V302.838H31.8359V295.627H39.036Z" fill="#A2F255"/>
<path d="M31.8344 302.838V310.049H24.6309V302.838H31.8344Z" fill="#A2F255"/>
<path d="M103.841 245.156V237.945H89.4414V252.367H96.6414V259.577H111.042V245.156H103.841Z" fill="#10D000"/>
<path d="M89.4414 237.945H96.6414V245.156H89.4414V237.945Z" fill="#A2F255"/>
<path d="M96.6426 245.156H103.843V252.367H96.6426V245.156Z" fill="#A2F255"/>
<path d="M103.842 252.367H111.042V259.578H103.842V252.367Z" fill="#A2F255"/>
<path d="M46.236 209.103V201.892H31.8359V216.313H39.036V223.524H53.4361V209.103H46.236Z" fill="#10D000"/>
<path d="M31.8359 201.892H39.036V209.103H31.8359V201.892Z" fill="#A2F255"/>
<path d="M39.0352 209.103H46.2352V216.314H39.0352V209.103Z" fill="#A2F255"/>
<path d="M46.2344 216.313H53.4344V223.524H46.2344V216.313Z" fill="#A2F255"/>
<path d="M118.246 57.6853V50.4746H103.843V57.6853H96.6426V72.1031H103.843V79.3138H125.446V57.6853H118.246Z" fill="#10D000"/>
<path d="M46.2342 86.5247H39.0342V79.314H17.4305V86.5247H10.2305V93.7353H17.4305V100.946H39.0342V93.7353H46.2342V86.5247Z" fill="#10D000"/>
<path d="M96.6426 295.627H118.246V310.049H96.6426V295.627Z" fill="#10D000"/>
<path d="M96.6426 57.6855H103.843V64.8927H96.6426V57.6855Z" fill="#A2F255"/>
<path d="M103.842 64.8926H125.445V72.1033H103.842V64.8926Z" fill="#A2F255"/>
<path d="M111.041 50.4746H118.245V57.6853H111.041V50.4746Z" fill="#A2F255"/>
<path d="M118.246 72.1035H125.446V79.3142H118.246V72.1035Z" fill="#A2F255"/>
<path d="M10.2305 86.5249H46.2342V93.7356H10.2305V86.5249Z" fill="#A2F255"/>
<path d="M24.6309 79.314H31.8344V86.5247H24.6309V79.314Z" fill="#A2F255"/>
<path d="M17.4316 93.7354H24.6317V100.946H17.4316V93.7354Z" fill="#A2F255"/>
<path d="M96.6426 295.627H103.843V302.838H96.6426V295.627Z" fill="#A2F255"/>
<path d="M111.041 295.627H118.245V302.838H111.041V295.627Z" fill="#A2F255"/>
<path d="M103.842 302.838H111.042V310.049H103.842V302.838Z" fill="#A2F255"/>
<path d="M46.2344 86.5249H53.4344V93.7356H46.2344V86.5249Z" fill="#2E1B5B"/>
<path d="M39.0352 93.7354H46.2352V100.946H39.0352V93.7354Z" fill="#2E1B5B"/>
<path d="M89.4414 57.6855H96.6414V72.1034H89.4414V57.6855Z" fill="#2E1B5B"/>
<path d="M96.6426 72.1035H103.843V79.3142H96.6426V72.1035Z" fill="#2E1B5B"/>
<path d="M103.842 79.314H111.042V86.5247H103.842V79.314Z" fill="#2E1B5B"/>
<path d="M60.6391 43.2642V50.4748H53.4355V57.6855H67.8392V43.2642H60.6391Z" fill="#2E1B5B"/>
<path d="M75.0399 136.999V129.789H67.8398V144.21H82.2399V136.999H75.0399Z" fill="#2E1B5B"/>
<path d="M39.036 151.421V158.631H46.236V144.21H31.8359V151.421H39.036Z" fill="#2E1B5B"/>
<path d="M53.4344 223.524H46.2344V230.735H60.638V216.313H53.4344V223.524Z" fill="#2E1B5B"/>
<path d="M89.4419 237.946H96.6419V230.735H82.2383V245.156H89.4419V237.946Z" fill="#2E1B5B"/>
<path d="M46.2352 288.42V295.627H53.4352V281.209H39.0352V288.42H46.2352Z" fill="#2E1B5B"/>
<path d="M89.4414 295.627H96.6414V310.049H89.4414V295.627Z" fill="#2E1B5B"/>
<path d="M39.0352 79.314H46.2352V86.5247H39.0352V79.314Z" fill="#005B52"/>
<path d="M60.6387 36.0532H67.8387V43.2639H60.6387V36.0532Z" fill="#005B52"/>
<path d="M46.2344 50.4746H53.4344V57.6853H46.2344V50.4746Z" fill="#005B52"/>
<path d="M96.6426 50.4746H103.843V57.6853H96.6426V50.4746Z" fill="#005B52"/>
<path d="M111.041 79.314H118.245V86.5247H111.041V79.314Z" fill="#005B52"/>
<path d="M67.8398 122.578H75.0399V129.789H67.8398V122.578Z" fill="#005B52"/>
<path d="M82.2383 137H89.4419V144.21H82.2383V137Z" fill="#005B52"/>
<path d="M24.6309 144.21H31.8344V151.421H24.6309V144.21Z" fill="#005B52"/>
<path d="M39.0352 158.631H46.2352V165.842H39.0352V158.631Z" fill="#005B52"/>
<path d="M53.4355 209.103H60.6391V216.314H53.4355V209.103Z" fill="#005B52"/>
<path d="M39.0352 223.524H46.2352V230.735H39.0352V223.524Z" fill="#005B52"/>
<path d="M82.2383 245.156H89.4419V252.367H82.2383V245.156Z" fill="#005B52"/>
<path d="M96.6426 230.735H103.843V237.946H96.6426V230.735Z" fill="#005B52"/>
<path d="M31.8359 281.209H39.036V288.42H31.8359V281.209Z" fill="#005B52"/>
<path d="M46.2344 295.627H53.4344V302.838H46.2344V295.627Z" fill="#005B52"/>
<path d="M96.6426 288.42H103.843V295.628H96.6426V288.42Z" fill="#005B52"/>
<path d="M96.6426 310.049H103.843V317.26H96.6426V310.049Z" fill="#005B52"/>
<mask id="mask8_589_1619" style="mask-type:luminance" maskUnits="userSpaceOnUse" x="42" y="347" width="46" height="368">
<path d="M42.5508 347H87.064V714.734H42.5508V347Z" fill="white"/>
</mask>
<g mask="url(#mask8_589_1619)">
<path d="M86.4437 390.264V375.843H79.2401V361.421H72.04V347H57.64V361.421H64.84V375.843H72.04V404.685H64.84V426.314H57.64V440.735H50.4364V455.157H43.2363V491.21H50.4364V505.632H57.64V520.053H64.84V534.471H72.04V563.314H64.84V577.735H57.64V592.156H50.4364V628.21H57.64V642.628H64.84V657.049H72.04V671.47H64.84V685.892H57.64V700.313H50.4364V714.734H64.84V700.313H72.04V685.892H79.2401V671.47H86.4437V657.049H79.2401V642.628H72.04V628.21H64.84V592.156H72.04V577.735H79.2401V563.314H86.4437V534.471H79.2401V520.053H72.04V505.632H64.84V491.21H57.64V455.157H64.84V440.735H72.04V426.314H79.2401V404.685H86.4437V390.264Z" fill="#2E1B5B"/>
</g>
<mask id="mask9_589_1619" style="mask-type:luminance" maskUnits="userSpaceOnUse" x="86" y="389" width="51" height="46">
<path d="M86.1543 389.696H136.878V434.21H86.1543V389.696Z" fill="white"/>
</mask>
<g mask="url(#mask9_589_1619)">
<path d="M129.645 411.893V404.686H122.445V397.475H115.245V390.264H100.841V397.475H93.6414V404.686H86.4414V419.103H93.6414V426.314H100.841V433.525H122.445V426.314H129.645V419.103H136.845V411.893H129.645Z" fill="#2E1B5B"/>
</g>
<mask id="mask10_589_1619" style="mask-type:luminance" maskUnits="userSpaceOnUse" x="0" y="418" width="51" height="39">
<path d="M0 418.766H50.7268V456.012H0V418.766Z" fill="white"/>
</mask>
<g mask="url(#mask10_589_1619)">
<path d="M43.2347 433.524V426.314H36.0346V419.103H14.431V426.314H7.23093V433.524H0.0273438V440.735H7.23093V447.946H14.431V455.156H36.0346V447.946H43.2347V440.735H50.4347V433.524H43.2347Z" fill="#2E1B5B"/>
</g>
<path d="M64.8397 390.264V383.053H57.6397V375.843H50.4361V368.632H28.8359V390.264H36.036V397.475H43.236V404.685H64.8397V390.264Z" fill="#2E1B5B"/>
<path d="M79.2399 491.21H86.4435V483.999H93.6436V476.789H100.844V455.157H79.2399V462.367H72.0399V469.578H64.8398V491.21H79.2399Z" fill="#2E1B5B"/>
<path d="M28.8341 491.21H21.6306V498.421H14.4305V505.631H7.23047V527.26H28.8341V520.053H36.0342V512.842H43.2342V491.21H28.8341Z" fill="#2E1B5B"/>
<path d="M57.6382 563.313V556.103H50.4346V548.892H43.2345V541.681H21.6309V563.313H28.8344V570.524H36.0345V577.735H57.6382V563.313Z" fill="#2E1B5B"/>
<path d="M79.2383 592.156V599.367H86.4419V606.578H93.6419V613.788H115.246V592.156H108.042V584.946H100.842V577.735H79.2383V592.156Z" fill="#2E1B5B"/>
<path d="M36.0353 628.209H28.8353V635.42H21.6317V642.627H14.4316V664.259H36.0353V657.049H43.2354V649.838H50.4354V628.209H36.0353Z" fill="#2E1B5B"/>
<path d="M93.6414 664.26H115.245V657.049H122.445V642.628H115.245V635.42H93.6414V642.628H86.4414V657.049H93.6414V664.26Z" fill="#2E1B5B"/>
<path d="M50.4355 592.156H64.8392V628.21H50.4355V592.156Z" fill="#029316"/>
<path d="M57.6387 577.735H72.0388V592.156H57.6387V577.735Z" fill="#029316"/>
<path d="M64.8398 563.313H79.2399V577.735H64.8398V563.313Z" fill="#029316"/>
<path d="M72.0371 534.471H86.4407V563.313H72.0371V534.471Z" fill="#029316"/>
<path d="M64.8398 520.053H79.2399V534.471H64.8398V520.053Z" fill="#029316"/>
<path d="M57.6387 505.631H72.0388V520.053H57.6387V505.631Z" fill="#029316"/>
<path d="M50.4355 491.21H64.8392V505.631H50.4355V491.21Z" fill="#029316"/>
<path d="M43.2344 455.157H57.638V491.21H43.2344V455.157Z" fill="#029316"/>
<path d="M50.4355 440.735H64.8392V455.157H50.4355V440.735Z" fill="#029316"/>
<path d="M57.6387 426.314H72.0388V440.735H57.6387V426.314Z" fill="#029316"/>
<path d="M64.8398 404.686H79.2399V426.314H64.8398V404.686Z" fill="#029316"/>
<path d="M72.0371 375.843H86.4407V404.686H72.0371V375.843Z" fill="#029316"/>
<path d="M64.8398 368.632H79.2399V375.843H64.8398V368.632Z" fill="#029316"/>
<path d="M64.8398 361.421H79.2399V368.632H64.8398V361.421Z" fill="#029316"/>
<path d="M57.6387 628.209H72.0388V642.627H57.6387V628.209Z" fill="#029316"/>
<path d="M64.8398 642.627H79.2399V657.049H64.8398V642.627Z" fill="#029316"/>
<path d="M72.0371 657.049H86.4407V671.47H72.0371V657.049Z" fill="#029316"/>
<path d="M64.8398 671.47H79.2399V685.892H64.8398V671.47Z" fill="#029316"/>
<path d="M57.6387 685.892H72.0388V700.313H57.6387V685.892Z" fill="#029316"/>
<path d="M64.8398 361.421H72.0399V375.843H64.8398V361.421Z" fill="#2E1B5B"/>
<path d="M72.0371 375.843H79.2372V404.686H72.0371V375.843Z" fill="#2E1B5B"/>
<path d="M64.8398 404.686H72.0399V426.314H64.8398V404.686Z" fill="#2E1B5B"/>
<path d="M57.6387 426.314H64.8387V440.735H57.6387V426.314Z" fill="#2E1B5B"/>
<path d="M50.4355 440.735H57.6391V455.157H50.4355V440.735Z" fill="#2E1B5B"/>
<path d="M43.2344 455.157H50.4344V491.21H43.2344V455.157Z" fill="#2E1B5B"/>
<path d="M50.4355 491.21H57.6391V505.631H50.4355V491.21Z" fill="#2E1B5B"/>
<path d="M57.6387 505.631H64.8387V520.053H57.6387V505.631Z" fill="#2E1B5B"/>
<path d="M64.8398 520.053H72.0399V534.471H64.8398V520.053Z" fill="#2E1B5B"/>
<path d="M72.0371 534.471H79.2372V563.313H72.0371V534.471Z" fill="#2E1B5B"/>
<path d="M64.8398 563.313H72.0399V577.735H64.8398V563.313Z" fill="#2E1B5B"/>
<path d="M57.6387 577.735H64.8387V592.156H57.6387V577.735Z" fill="#2E1B5B"/>
<path d="M50.4355 592.156H57.6391V628.21H50.4355V592.156Z" fill="#2E1B5B"/>
<path d="M57.6387 628.209H64.8387V642.627H57.6387V628.209Z" fill="#2E1B5B"/>
<path d="M64.8398 642.627H72.0399V657.049H64.8398V642.627Z" fill="#2E1B5B"/>
<path d="M72.0371 657.049H79.2372V671.47H72.0371V657.049Z" fill="#2E1B5B"/>
<path d="M64.8398 671.47H72.0399V685.892H64.8398V671.47Z" fill="#2E1B5B"/>
<path d="M57.6387 685.892H64.8387V700.313H57.6387V685.892Z" fill="#2E1B5B"/>
<path d="M72.0371 361.421H79.2372V368.632H72.0371V361.421Z" fill="#005B52"/>
<path d="M57.6387 354.21H72.0388V361.421H57.6387V354.21Z" fill="#029316"/>
<path d="M57.6387 347H72.0388V354.211H57.6387V347Z" fill="#029316"/>
<path d="M57.6387 347H64.8387V361.421H57.6387V347Z" fill="#2E1B5B"/>
<path d="M64.8398 347H72.0399V354.211H64.8398V347Z" fill="#005B52"/>
<path d="M79.2383 375.843H86.4419V383.053H79.2383V375.843Z" fill="#005B52"/>
<path d="M79.2383 390.264H86.4419V397.475H79.2383V390.264Z" fill="#005B52"/>
<path d="M72.0371 404.686H79.2372V411.893H72.0371V404.686Z" fill="#005B52"/>
<path d="M72.0371 419.104H79.2372V426.314H72.0371V419.104Z" fill="#005B52"/>
<path d="M64.8398 433.525H72.0399V440.736H64.8398V433.525Z" fill="#005B52"/>
<path d="M57.6387 447.946H64.8387V455.156H57.6387V447.946Z" fill="#005B52"/>
<path d="M50.4355 462.368H57.6391V469.578H50.4355V462.368Z" fill="#005B52"/>
<path d="M50.4355 476.789H57.6391V483.999H50.4355V476.789Z" fill="#005B52"/>
<path d="M57.6387 491.21H64.8387V498.421H57.6387V491.21Z" fill="#005B52"/>
<path d="M64.8398 505.631H72.0399V512.842H64.8398V505.631Z" fill="#005B52"/>
<path d="M72.0371 520.053H79.2372V527.26H72.0371V520.053Z" fill="#005B52"/>
<path d="M79.2383 534.471H86.4419V541.681H79.2383V534.471Z" fill="#005B52"/>
<path d="M79.2383 548.892H86.4419V556.103H79.2383V548.892Z" fill="#005B52"/>
<path d="M72.0371 563.313H79.2372V570.524H72.0371V563.313Z" fill="#005B52"/>
<path d="M64.8398 577.735H72.0399V584.946H64.8398V577.735Z" fill="#005B52"/>
<path d="M57.6387 592.156H64.8387V599.367H57.6387V592.156Z" fill="#005B52"/>
<path d="M57.6387 606.578H64.8387V613.788H57.6387V606.578Z" fill="#005B52"/>
<path d="M57.6387 620.999H64.8387V628.21H57.6387V620.999Z" fill="#005B52"/>
<path d="M64.8398 635.42H72.0399V642.628H64.8398V635.42Z" fill="#005B52"/>
<path d="M72.0371 649.838H79.2372V657.049H72.0371V649.838Z" fill="#005B52"/>
<path d="M79.2383 664.26H86.4419V671.47H79.2383V664.26Z" fill="#005B52"/>
<path d="M72.0371 678.681H79.2372V685.891H72.0371V678.681Z" fill="#005B52"/>
<path d="M64.8398 693.103H72.0399V700.313H64.8398V693.103Z" fill="#005B52"/>
<mask id="mask11_589_1619" style="mask-type:luminance" maskUnits="userSpaceOnUse" x="49" y="699" width="17" height="16">
<path d="M49.8164 699.472H65.2598V714.735H49.8164V699.472Z" fill="white"/>
</mask>
<g mask="url(#mask11_589_1619)">
<path d="M50.4336 700.313H64.8372V714.734H50.4336V700.313Z" fill="#029316"/>
</g>
<mask id="mask12_589_1619" style="mask-type:luminance" maskUnits="userSpaceOnUse" x="49" y="699" width="9" height="16">
<path d="M49.8164 699.472H57.9923V714.735H49.8164V699.472Z" fill="white"/>
</mask>
<g mask="url(#mask12_589_1619)">
<path d="M50.4336 700.313H57.6372V714.734H50.4336V700.313Z" fill="#2E1B5B"/>
</g>
<mask id="mask13_589_1619" style="mask-type:luminance" maskUnits="userSpaceOnUse" x="57" y="706" width="9" height="9">
<path d="M57.082 706.739H65.2579V714.734H57.082V706.739Z" fill="white"/>
</mask>
<g mask="url(#mask13_589_1619)">
<path d="M57.6367 707.523H64.8368V714.734H57.6367V707.523Z" fill="#005B52"/>
</g>
<path d="M57.6397 383.053V375.843H50.4361V368.632H28.8359V390.264H36.036V397.475H43.236V404.685H64.8397V383.053H57.6397Z" fill="#029316"/>
<path d="M50.4346 556.103V548.892H43.2345V541.681H21.6309V563.313H28.8344V570.524H36.0345V577.735H57.6382V556.103H50.4346Z" fill="#029316"/>
<path d="M108.042 592.156V584.946H100.842V577.735H79.2383V599.367H86.4419V606.578H93.6419V613.788H115.246V592.156H108.042Z" fill="#029316"/>
<path d="M93.6436 455.157H79.2399V462.367H72.0399V469.578H64.8398V491.21H86.4435V483.999H93.6436V476.789H100.844V455.157H93.6436Z" fill="#029316"/>
<path d="M43.2354 628.209H28.8353V635.42H21.6317V642.627H14.4316V664.259H36.0353V657.049H43.2354V649.838H50.4354V628.209H43.2354Z" fill="#029316"/>
<path d="M36.0342 491.21H21.6306V498.421H14.4305V505.631H7.23047V527.26H28.8341V520.053H36.0342V512.842H43.2342V491.21H36.0342Z" fill="#029316"/>
<path d="M50.4352 383.053V375.843H36.0352V390.264H43.2352V397.475H57.6388V383.053H50.4352Z" fill="#10D000"/>
<path d="M43.2344 433.525H50.4344V440.736H43.2344V433.525Z" fill="#029316"/>
<mask id="mask14_589_1619" style="mask-type:luminance" maskUnits="userSpaceOnUse" x="86" y="389" width="51" height="46">
<path d="M86.1543 389.696H136.878V434.21H86.1543V389.696Z" fill="white"/>
</mask>
<g mask="url(#mask14_589_1619)">
<path d="M129.645 411.893V404.686H122.445V397.475H115.245V390.264H100.841V397.475H93.6414V404.686H86.4414V419.103H93.6414V426.314H100.841V433.525H122.445V426.314H129.645V419.103H136.845V411.893H129.645Z" fill="#029316"/>
</g>
<mask id="mask15_589_1619" style="mask-type:luminance" maskUnits="userSpaceOnUse" x="0" y="418" width="44" height="39">
<path d="M0 418.766H43.4593V456.012H0V418.766Z" fill="white"/>
</mask>
<g mask="url(#mask15_589_1619)">
<path d="M36.0346 426.314V419.103H14.431V426.314H7.23093V433.524H0.0273438V440.735H7.23093V447.946H14.431V455.156H36.0346V447.946H43.2347V426.314H36.0346Z" fill="#029316"/>
</g>
<path d="M115.245 642.628V635.42H93.6414V642.628H86.4414V657.049H93.6414V664.26H115.245V657.049H122.445V642.628H115.245Z" fill="#029316"/>
<path d="M36.0352 375.843H43.2352V383.053H36.0352V375.843Z" fill="#A2F255"/>
<path d="M43.2344 383.053H50.4344V390.264H43.2344V383.053Z" fill="#A2F255"/>
<path d="M50.4355 390.264H57.6391V397.475H50.4355V390.264Z" fill="#A2F255"/>
<path d="M86.4407 476.789H93.6408V462.368H79.2372V469.578H72.0371V484H86.4407V476.789Z" fill="#10D000"/>
<path d="M93.6414 462.368V469.578H86.4414V462.368H93.6414Z" fill="#A2F255"/>
<path d="M86.4419 469.578V476.789H79.2383V469.578H86.4419Z" fill="#A2F255"/>
<path d="M79.2372 476.789V483.999H72.0371V476.789H79.2372Z" fill="#A2F255"/>
<path d="M28.8353 512.842H36.0353V498.421H21.6317V505.632H14.4316V520.053H28.8353V512.842Z" fill="#10D000"/>
<path d="M36.036 498.421V505.632H28.8359V498.421H36.036Z" fill="#A2F255"/>
<path d="M28.8344 505.631V512.842H21.6309V505.631H28.8344Z" fill="#A2F255"/>
<path d="M21.6317 512.842V520.053H14.4316V512.842H21.6317Z" fill="#A2F255"/>
<path d="M36.0345 649.838H43.2345V635.42H28.8344V642.628H21.6309V657.049H36.0345V649.838Z" fill="#10D000"/>
<path d="M43.2352 635.42V642.628H36.0352V635.42H43.2352Z" fill="#A2F255"/>
<path d="M36.036 642.627V649.838H28.8359V642.627H36.036Z" fill="#A2F255"/>
<path d="M28.8344 649.838V657.049H21.6309V649.838H28.8344Z" fill="#A2F255"/>
<path d="M100.841 592.156V584.945H86.4414V599.367H93.6414V606.577H108.042V592.156H100.841Z" fill="#10D000"/>
<path d="M86.4414 584.945H93.6414V592.156H86.4414V584.945Z" fill="#A2F255"/>
<path d="M93.6426 592.156H100.843V599.367H93.6426V592.156Z" fill="#A2F255"/>
<path d="M100.842 599.367H108.042V606.578H100.842V599.367Z" fill="#A2F255"/>
<path d="M43.236 556.103V548.892H28.8359V563.313H36.036V570.524H50.4361V556.103H43.236Z" fill="#10D000"/>
<path d="M28.8359 548.892H36.036V556.103H28.8359V548.892Z" fill="#A2F255"/>
<path d="M36.0352 556.103H43.2352V563.314H36.0352V556.103Z" fill="#A2F255"/>
<path d="M43.2344 563.313H50.4344V570.524H43.2344V563.313Z" fill="#A2F255"/>
<path d="M115.246 404.685V397.475H100.843V404.685H93.6426V419.103H100.843V426.314H122.446V404.685H115.246Z" fill="#10D000"/>
<path d="M43.2342 433.525H36.0342V426.314H14.4305V433.525H7.23047V440.735H14.4305V447.946H36.0342V440.735H43.2342V433.525Z" fill="#10D000"/>
<path d="M93.6426 642.627H115.246V657.049H93.6426V642.627Z" fill="#10D000"/>
<path d="M93.6426 404.686H100.843V411.893H93.6426V404.686Z" fill="#A2F255"/>
<path d="M100.842 411.893H122.445V419.103H100.842V411.893Z" fill="#A2F255"/>
<path d="M108.041 397.475H115.245V404.685H108.041V397.475Z" fill="#A2F255"/>
<path d="M115.246 419.104H122.446V426.314H115.246V419.104Z" fill="#A2F255"/>
<path d="M7.23047 433.525H43.2342V440.736H7.23047V433.525Z" fill="#A2F255"/>
<path d="M21.6309 426.314H28.8344V433.525H21.6309V426.314Z" fill="#A2F255"/>
<path d="M14.4316 440.735H21.6317V447.946H14.4316V440.735Z" fill="#A2F255"/>
<path d="M93.6426 642.627H100.843V649.838H93.6426V642.627Z" fill="#A2F255"/>
<path d="M108.041 642.627H115.245V649.838H108.041V642.627Z" fill="#A2F255"/>
<path d="M100.842 649.838H108.042V657.049H100.842V649.838Z" fill="#A2F255"/>
<path d="M43.2344 433.525H50.4344V440.736H43.2344V433.525Z" fill="#2E1B5B"/>
<path d="M36.0352 440.735H43.2352V447.946H36.0352V440.735Z" fill="#2E1B5B"/>
<path d="M86.4414 404.686H93.6414V419.103H86.4414V404.686Z" fill="#2E1B5B"/>
<path d="M93.6426 419.104H100.843V426.314H93.6426V419.104Z" fill="#2E1B5B"/>
<path d="M100.842 426.314H108.042V433.525H100.842V426.314Z" fill="#2E1B5B"/>
<path d="M57.6391 390.264V397.475H50.4355V404.686H64.8392V390.264H57.6391Z" fill="#2E1B5B"/>
<path d="M72.0399 483.999V476.789H64.8398V491.21H79.2399V483.999H72.0399Z" fill="#2E1B5B"/>
<path d="M36.036 498.421V505.631H43.236V491.21H28.8359V498.421H36.036Z" fill="#2E1B5B"/>
<path d="M50.4344 570.524H43.2344V577.735H57.638V563.313H50.4344V570.524Z" fill="#2E1B5B"/>
<path d="M86.4419 584.946H93.6419V577.735H79.2383V592.156H86.4419V584.946Z" fill="#2E1B5B"/>
<path d="M43.2352 635.42V642.627H50.4352V628.209H36.0352V635.42H43.2352Z" fill="#2E1B5B"/>
<path d="M86.4414 642.627H93.6414V657.049H86.4414V642.627Z" fill="#2E1B5B"/>
<path d="M36.0352 426.314H43.2352V433.525H36.0352V426.314Z" fill="#005B52"/>
<path d="M57.6387 383.053H64.8387V390.264H57.6387V383.053Z" fill="#005B52"/>
<path d="M43.2344 397.475H50.4344V404.685H43.2344V397.475Z" fill="#005B52"/>
<path d="M93.6426 397.475H100.843V404.685H93.6426V397.475Z" fill="#005B52"/>
<path d="M108.041 426.314H115.245V433.525H108.041V426.314Z" fill="#005B52"/>
<path d="M64.8398 469.578H72.0399V476.789H64.8398V469.578Z" fill="#005B52"/>
<path d="M79.2383 484H86.4419V491.21H79.2383V484Z" fill="#005B52"/>
<path d="M21.6309 491.21H28.8344V498.421H21.6309V491.21Z" fill="#005B52"/>
<path d="M36.0352 505.631H43.2352V512.842H36.0352V505.631Z" fill="#005B52"/>
<path d="M50.4355 556.103H57.6391V563.314H50.4355V556.103Z" fill="#005B52"/>
<path d="M36.0352 570.524H43.2352V577.735H36.0352V570.524Z" fill="#005B52"/>
<path d="M79.2383 592.156H86.4419V599.367H79.2383V592.156Z" fill="#005B52"/>
<path d="M93.6426 577.735H100.843V584.946H93.6426V577.735Z" fill="#005B52"/>
<path d="M28.8359 628.209H36.036V635.42H28.8359V628.209Z" fill="#005B52"/>
<path d="M43.2344 642.627H50.4344V649.838H43.2344V642.627Z" fill="#005B52"/>
<path d="M93.6426 635.42H100.843V642.628H93.6426V635.42Z" fill="#005B52"/>
<path d="M93.6426 657.049H100.843V664.26H93.6426V657.049Z" fill="#005B52"/>
</svg>
