<svg width="363" height="447" viewBox="0 0 363 447" fill="none" xmlns="http://www.w3.org/2000/svg">
<g clip-path="url(#clip0_47_259)">
<g clip-path="url(#clip1_47_259)">
<g clip-path="url(#clip2_47_259)">
<g clip-path="url(#clip3_47_259)">
<path d="M83.3838 357.425L70.1279 346.555L59.2578 359.811L72.5137 370.681L83.3838 357.425Z" fill="white"/>
<path d="M43.6162 324.815L30.3604 313.945L19.4902 327.201L32.7461 338.071L43.6162 324.815Z" fill="white"/>
<path d="M136.407 400.906L123.151 390.036L112.281 403.291L125.537 414.162L136.407 400.906Z" fill="white"/>
<path d="M23.2031 241.567L9.94727 230.697L-11.793 257.208L1.46289 268.078L23.2031 241.567Z" fill="white"/>
<path d="M169.018 361.138L155.762 350.268L134.021 376.78L147.277 387.65L169.018 361.138Z" fill="white"/>
<path d="M265.79 107.949L254.92 121.205L228.408 99.4651L239.278 86.2092L265.79 107.949Z" fill="white"/>
<path d="M204.282 101.851L215.152 88.595L228.408 99.4651L217.538 112.721L204.282 101.851Z" fill="white"/>
<path d="M180.156 104.237L191.026 90.9807L204.282 101.851L193.412 115.107L180.156 104.237Z" fill="white"/>
<path fill-rule="evenodd" clip-rule="evenodd" d="M259.691 169.457L172.73 275.504L93.1953 210.283L180.156 104.237L166.9 93.3664L112.55 159.646L99.2939 148.776L88.4238 162.031L75.1679 151.161L64.2978 164.417L51.042 153.547L18.4316 193.315L31.6875 204.185L20.8173 217.441L34.0732 228.311L44.9433 215.055L58.1992 225.925L69.0693 212.669L82.3252 223.539L60.5849 250.051L73.8408 260.921L62.9707 274.177L76.2265 285.047L65.3564 298.303L91.8681 320.043L102.738 306.787L115.994 317.658L126.864 304.402L140.12 315.272L161.86 288.76L175.116 299.63L164.246 312.886L177.502 323.756L166.632 337.012L179.888 347.882L190.758 334.626L204.014 345.496L236.624 305.729L223.368 294.859L234.238 281.603L220.982 270.733L231.853 257.477L218.597 246.607L272.947 180.327L259.691 169.457ZM220.982 270.733L210.112 283.989L223.368 294.859L190.758 334.626L177.502 323.756L188.372 310.5L175.116 299.63L207.727 259.863L220.982 270.733ZM126.864 304.402L113.608 293.532L102.738 306.787L76.2265 285.047L87.0967 271.791L73.8408 260.921L95.581 234.409L148.605 277.89L126.864 304.402ZM69.0693 212.669L55.8134 201.799L44.9433 215.055L31.6875 204.185L64.2978 164.417L77.5537 175.287L88.4238 162.031L101.68 172.902L69.0693 212.669Z" fill="white"/>
<path d="M257.306 145.331L270.562 156.201L259.691 169.457L246.436 158.587L257.306 145.331Z" fill="white"/>
<path d="M257.306 145.331L268.176 132.075L254.92 121.205L244.05 134.461L257.306 145.331Z" fill="white"/>
<path d="M195.798 139.233L174.058 165.744L160.802 154.874L182.542 128.363L195.798 139.233Z" fill="white"/>
<path d="M222.31 160.973L195.798 139.233L206.668 125.977L233.18 147.717L222.31 160.973Z" fill="white"/>
<path d="M200.569 187.485L222.31 160.973L235.565 171.843L213.825 198.355L200.569 187.485Z" fill="white"/>
<path d="M200.569 187.485L174.058 165.744L163.187 179L189.699 200.74L200.569 187.485Z" fill="white"/>
</g>
</g>
</g>
</g>
<defs>
<clipPath id="clip0_47_259">
<rect width="240" height="380" fill="white" transform="translate(176.954) rotate(39.3526)"/>
</clipPath>
<clipPath id="clip1_47_259">
<rect width="240" height="380" fill="white" transform="translate(176.954) rotate(39.3526)"/>
</clipPath>
<clipPath id="clip2_47_259">
<rect width="240" height="380" fill="white" transform="translate(176.954) rotate(39.3526)"/>
</clipPath>
<clipPath id="clip3_47_259">
<rect width="240" height="325.714" fill="white" transform="translate(159.743 20.9885) rotate(39.3526)"/>
</clipPath>
</defs>
</svg>
