<svg width="61" height="66" viewBox="0 0 61 66" fill="none" xmlns="http://www.w3.org/2000/svg">
<path d="M4.77148 56.1245H9.46074V60.8122H4.77148V56.1245Z" fill="#61C0F5"/>
<mask id="mask0_47_440" style="mask-type:luminance" maskUnits="userSpaceOnUse" x="9" y="60" width="43" height="6">
<path d="M9.23145 60.5706H51.8532V65.3285H9.23145V60.5706Z" fill="white"/>
</mask>
<g mask="url(#mask0_47_440)">
<path d="M9.46875 60.8044H51.672V65.4937H9.46875V60.8044Z" fill="#61C0F5"/>
</g>
<path d="M51.6641 56.1245H56.3533V60.8122H51.6641V56.1245Z" fill="#61C0F5"/>
<path d="M14.1504 32.6826H18.8396V37.3719H14.1504V32.6826Z" fill="#61C0F5"/>
<path d="M14.1504 46.7473H18.8396V51.435H14.1504V46.7473Z" fill="#61C0F5"/>
<path d="M28.1553 32.6826H32.8445V37.3719H28.1553V32.6826Z" fill="#61C0F5"/>
<path d="M28.1553 46.7473H32.8445V51.435H28.1553V46.7473Z" fill="#61C0F5"/>
<path d="M42.1592 32.6826H46.8484V37.3719H42.1592V32.6826Z" fill="#61C0F5"/>
<path d="M42.1592 46.7473H46.8484V51.435H42.1592V46.7473Z" fill="#61C0F5"/>
<mask id="mask1_47_440" style="mask-type:luminance" maskUnits="userSpaceOnUse" x="0" y="13" width="61" height="44">
<path d="M0 13.6477H61V56.2695H0V13.6477Z" fill="white"/>
</mask>
<g mask="url(#mask1_47_440)">
<path d="M61.0511 13.9014V56.1169H56.3619V23.2768H4.78007V56.1169H0.0908203V13.9014H4.78007V18.5891H56.3619V13.9014H61.0511Z" fill="#61C0F5"/>
</g>
<path d="M56.3611 9.21201V13.9013H51.6718V9.28228H46.9826V13.9013H42.2933V9.28228H18.8471V13.9013H14.1578V9.28228H9.46855V13.9013H4.7793V9.21201H9.46855V4.59455H14.1578V0H18.8471V4.59455H42.2933V0H46.9826V4.59455H51.6718V9.21201H56.3611Z" fill="#61C0F5"/>
</svg>
