<svg width="344" height="97" viewBox="0 0 344 97" fill="none" xmlns="http://www.w3.org/2000/svg">
<mask id="mask0_585_2335" style="mask-type:luminance" maskUnits="userSpaceOnUse" x="0" y="1" width="344" height="91">
<path d="M0 1H344V92H0V1Z" fill="white"/>
</mask>
<g mask="url(#mask0_585_2335)">
<path fill-rule="evenodd" clip-rule="evenodd" d="M294.748 92.0264H304.568V84.443H324.202V76.8545H334.022V61.6878H343.842V31.3493H334.022V16.1826H324.202V8.59408H304.568V1.01074H39.4352V8.59408H19.7948V16.1826H9.97453V31.3493H0.154297V61.6878H9.97453V76.8545H19.7948V84.443H39.4352V92.0264H294.748Z" fill="black"/>
</g>
<path fill-rule="evenodd" clip-rule="evenodd" d="M294.75 84.4427H304.57V76.8542H324.204V61.6875H334.024V31.349H324.204V16.1823H304.57V8.59375H39.4373V16.1823H19.7968V31.349H9.97656V61.6875H19.7968V76.8542H39.4373V84.4427H294.75Z" fill="#87CFA8"/>
<path fill-rule="evenodd" clip-rule="evenodd" d="M294.75 84.4427H304.57V76.8542H324.204V61.6875H334.024V38.9323H324.204V31.349H314.383V23.7656H29.617V31.349H19.7968V38.9323H9.97656V61.6875H19.7968V76.8594H39.4373V84.4427H294.75Z" fill="#4DC081"/>
<path fill-rule="evenodd" clip-rule="evenodd" d="M294.75 84.4424H304.57V76.8538H324.204V61.6872H334.024V46.5205H324.204V61.6872H314.383V69.2705H294.75V76.8538H49.2575V69.2705H29.617V61.6872H19.7968V46.5205H9.97656V61.6872H19.7968V76.8538H39.4373V84.4424H294.75Z" fill="#A6DABD"/>
<path fill-rule="evenodd" clip-rule="evenodd" d="M9.97656 38.9323H19.7968V31.349H29.617V23.7656H49.2575V16.1823H68.8912V8.59375H39.4373V16.1823H19.7968V31.349H9.97656V38.9323Z" fill="white"/>
<mask id="path-7-outside-1_585_2335" maskUnits="userSpaceOnUse" x="39" y="24" width="267" height="44" fill="black">
<rect fill="white" x="39" y="24" width="267" height="44"/>
<path d="M46.1869 65V60.8131H42V56.616H50.384V60.8131H58.7679V48.2321H46.1869V44.035H42V31.4642H46.1869V27.2671H62.965V31.4642H67.1519V35.651H58.7679V31.4642H50.384V44.035H62.965V48.2321H67.1519V60.8131H62.965V65H46.1869ZM92.3201 44.035V31.4642H83.9361V44.035H92.3201ZM75.5522 65V27.2671H96.5172V31.4642H100.704V44.035H96.5172V48.2321H83.9361V65H75.5522ZM125.872 60.8131V31.4642H117.488V60.8131H125.872ZM113.291 65V60.8131H109.104V31.4642H113.291V27.2671H130.069V31.4642H134.256V60.8131H130.069V65H113.291ZM142.657 65V27.2671H151.041V35.651H155.227V39.8481H159.424V27.2671H167.808V65H159.424V48.2321H155.227V44.035H151.041V65H142.657ZM180.396 65V60.8131H176.209V56.616H184.593V60.8131H192.977V48.2321H180.396V44.035H176.209V31.4642H180.396V27.2671H197.174V31.4642H201.361V35.651H192.977V31.4642H184.593V44.035H197.174V48.2321H201.361V60.8131H197.174V65H180.396ZM226.529 60.8131V31.4642H218.145V60.8131H226.529ZM213.948 65V60.8131H209.761V31.4642H213.948V27.2671H230.726V31.4642H234.913V60.8131H230.726V65H213.948ZM260.081 44.035V31.4642H251.697V44.035H260.081ZM243.313 65V27.2671H264.278V31.4642H268.465V44.035H264.278V48.2321H268.465V65H260.081V48.2321H251.697V65H243.313ZM281.052 65V60.8131H276.865V56.616H285.249V60.8131H293.633V48.2321H281.052V44.035H276.865V31.4642H281.052V27.2671H297.83V31.4642H302.017V35.651H293.633V31.4642H285.249V44.035H297.83V48.2321H302.017V60.8131H297.83V65H281.052Z"/>
</mask>
<path d="M46.1869 65V60.8131H42V56.616H50.384V60.8131H58.7679V48.2321H46.1869V44.035H42V31.4642H46.1869V27.2671H62.965V31.4642H67.1519V35.651H58.7679V31.4642H50.384V44.035H62.965V48.2321H67.1519V60.8131H62.965V65H46.1869ZM92.3201 44.035V31.4642H83.9361V44.035H92.3201ZM75.5522 65V27.2671H96.5172V31.4642H100.704V44.035H96.5172V48.2321H83.9361V65H75.5522ZM125.872 60.8131V31.4642H117.488V60.8131H125.872ZM113.291 65V60.8131H109.104V31.4642H113.291V27.2671H130.069V31.4642H134.256V60.8131H130.069V65H113.291ZM142.657 65V27.2671H151.041V35.651H155.227V39.8481H159.424V27.2671H167.808V65H159.424V48.2321H155.227V44.035H151.041V65H142.657ZM180.396 65V60.8131H176.209V56.616H184.593V60.8131H192.977V48.2321H180.396V44.035H176.209V31.4642H180.396V27.2671H197.174V31.4642H201.361V35.651H192.977V31.4642H184.593V44.035H197.174V48.2321H201.361V60.8131H197.174V65H180.396ZM226.529 60.8131V31.4642H218.145V60.8131H226.529ZM213.948 65V60.8131H209.761V31.4642H213.948V27.2671H230.726V31.4642H234.913V60.8131H230.726V65H213.948ZM260.081 44.035V31.4642H251.697V44.035H260.081ZM243.313 65V27.2671H264.278V31.4642H268.465V44.035H264.278V48.2321H268.465V65H260.081V48.2321H251.697V65H243.313ZM281.052 65V60.8131H276.865V56.616H285.249V60.8131H293.633V48.2321H281.052V44.035H276.865V31.4642H281.052V27.2671H297.83V31.4642H302.017V35.651H293.633V31.4642H285.249V44.035H297.83V48.2321H302.017V60.8131H297.83V65H281.052Z" fill="#A6DABD"/>
<path d="M46.1869 65H43.1869V68H46.1869V65ZM46.1869 60.8131H49.1869V57.8131H46.1869V60.8131ZM42 60.8131H39V63.8131H42V60.8131ZM42 56.616V53.616H39V56.616H42ZM50.384 56.616H53.384V53.616H50.384V56.616ZM50.384 60.8131H47.384V63.8131H50.384V60.8131ZM58.7679 60.8131V63.8131H61.7679V60.8131H58.7679ZM58.7679 48.2321H61.7679V45.2321H58.7679V48.2321ZM46.1869 48.2321H43.1869V51.2321H46.1869V48.2321ZM46.1869 44.035H49.1869V41.035H46.1869V44.035ZM42 44.035H39V47.035H42V44.035ZM42 31.4642V28.4642H39V31.4642H42ZM46.1869 31.4642V34.4642H49.1869V31.4642H46.1869ZM46.1869 27.2671V24.2671H43.1869V27.2671H46.1869ZM62.965 27.2671H65.965V24.2671H62.965V27.2671ZM62.965 31.4642H59.965V34.4642H62.965V31.4642ZM67.1519 31.4642H70.1519V28.4642H67.1519V31.4642ZM67.1519 35.651V38.651H70.1519V35.651H67.1519ZM58.7679 35.651H55.7679V38.651H58.7679V35.651ZM58.7679 31.4642H61.7679V28.4642H58.7679V31.4642ZM50.384 31.4642V28.4642H47.384V31.4642H50.384ZM50.384 44.035H47.384V47.035H50.384V44.035ZM62.965 44.035H65.965V41.035H62.965V44.035ZM62.965 48.2321H59.965V51.2321H62.965V48.2321ZM67.1519 48.2321H70.1519V45.2321H67.1519V48.2321ZM67.1519 60.8131V63.8131H70.1519V60.8131H67.1519ZM62.965 60.8131V57.8131H59.965V60.8131H62.965ZM62.965 65V68H65.965V65H62.965ZM49.1869 65V60.8131H43.1869V65H49.1869ZM46.1869 57.8131H42V63.8131H46.1869V57.8131ZM45 60.8131V56.616H39V60.8131H45ZM42 59.616H50.384V53.616H42V59.616ZM47.384 56.616V60.8131H53.384V56.616H47.384ZM50.384 63.8131H58.7679V57.8131H50.384V63.8131ZM61.7679 60.8131V48.2321H55.7679V60.8131H61.7679ZM58.7679 45.2321H46.1869V51.2321H58.7679V45.2321ZM49.1869 48.2321V44.035H43.1869V48.2321H49.1869ZM46.1869 41.035H42V47.035H46.1869V41.035ZM45 44.035V31.4642H39V44.035H45ZM42 34.4642H46.1869V28.4642H42V34.4642ZM49.1869 31.4642V27.2671H43.1869V31.4642H49.1869ZM46.1869 30.2671H62.965V24.2671H46.1869V30.2671ZM59.965 27.2671V31.4642H65.965V27.2671H59.965ZM62.965 34.4642H67.1519V28.4642H62.965V34.4642ZM64.1519 31.4642V35.651H70.1519V31.4642H64.1519ZM67.1519 32.651H58.7679V38.651H67.1519V32.651ZM61.7679 35.651V31.4642H55.7679V35.651H61.7679ZM58.7679 28.4642H50.384V34.4642H58.7679V28.4642ZM47.384 31.4642V44.035H53.384V31.4642H47.384ZM50.384 47.035H62.965V41.035H50.384V47.035ZM59.965 44.035V48.2321H65.965V44.035H59.965ZM62.965 51.2321H67.1519V45.2321H62.965V51.2321ZM64.1519 48.2321V60.8131H70.1519V48.2321H64.1519ZM67.1519 57.8131H62.965V63.8131H67.1519V57.8131ZM59.965 60.8131V65H65.965V60.8131H59.965ZM62.965 62H46.1869V68H62.965V62ZM92.3201 44.035V47.035H95.3201V44.035H92.3201ZM92.3201 31.4642H95.3201V28.4642H92.3201V31.4642ZM83.9361 31.4642V28.4642H80.9361V31.4642H83.9361ZM83.9361 44.035H80.9361V47.035H83.9361V44.035ZM75.5522 65H72.5522V68H75.5522V65ZM75.5522 27.2671V24.2671H72.5522V27.2671H75.5522ZM96.5172 27.2671H99.5172V24.2671H96.5172V27.2671ZM96.5172 31.4642H93.5172V34.4642H96.5172V31.4642ZM100.704 31.4642H103.704V28.4642H100.704V31.4642ZM100.704 44.035V47.035H103.704V44.035H100.704ZM96.5172 44.035V41.035H93.5172V44.035H96.5172ZM96.5172 48.2321V51.2321H99.5172V48.2321H96.5172ZM83.9361 48.2321V45.2321H80.9361V48.2321H83.9361ZM83.9361 65V68H86.9361V65H83.9361ZM95.3201 44.035V31.4642H89.3201V44.035H95.3201ZM92.3201 28.4642H83.9361V34.4642H92.3201V28.4642ZM80.9361 31.4642V44.035H86.9361V31.4642H80.9361ZM83.9361 47.035H92.3201V41.035H83.9361V47.035ZM78.5522 65V27.2671H72.5522V65H78.5522ZM75.5522 30.2671H96.5172V24.2671H75.5522V30.2671ZM93.5172 27.2671V31.4642H99.5172V27.2671H93.5172ZM96.5172 34.4642H100.704V28.4642H96.5172V34.4642ZM97.704 31.4642V44.035H103.704V31.4642H97.704ZM100.704 41.035H96.5172V47.035H100.704V41.035ZM93.5172 44.035V48.2321H99.5172V44.035H93.5172ZM96.5172 45.2321H83.9361V51.2321H96.5172V45.2321ZM80.9361 48.2321V65H86.9361V48.2321H80.9361ZM83.9361 62H75.5522V68H83.9361V62ZM125.872 60.8131V63.8131H128.872V60.8131H125.872ZM125.872 31.4642H128.872V28.4642H125.872V31.4642ZM117.488 31.4642V28.4642H114.488V31.4642H117.488ZM117.488 60.8131H114.488V63.8131H117.488V60.8131ZM113.291 65H110.291V68H113.291V65ZM113.291 60.8131H116.291V57.8131H113.291V60.8131ZM109.104 60.8131H106.104V63.8131H109.104V60.8131ZM109.104 31.4642V28.4642H106.104V31.4642H109.104ZM113.291 31.4642V34.4642H116.291V31.4642H113.291ZM113.291 27.2671V24.2671H110.291V27.2671H113.291ZM130.069 27.2671H133.069V24.2671H130.069V27.2671ZM130.069 31.4642H127.069V34.4642H130.069V31.4642ZM134.256 31.4642H137.256V28.4642H134.256V31.4642ZM134.256 60.8131V63.8131H137.256V60.8131H134.256ZM130.069 60.8131V57.8131H127.069V60.8131H130.069ZM130.069 65V68H133.069V65H130.069ZM128.872 60.8131V31.4642H122.872V60.8131H128.872ZM125.872 28.4642H117.488V34.4642H125.872V28.4642ZM114.488 31.4642V60.8131H120.488V31.4642H114.488ZM117.488 63.8131H125.872V57.8131H117.488V63.8131ZM116.291 65V60.8131H110.291V65H116.291ZM113.291 57.8131H109.104V63.8131H113.291V57.8131ZM112.104 60.8131V31.4642H106.104V60.8131H112.104ZM109.104 34.4642H113.291V28.4642H109.104V34.4642ZM116.291 31.4642V27.2671H110.291V31.4642H116.291ZM113.291 30.2671H130.069V24.2671H113.291V30.2671ZM127.069 27.2671V31.4642H133.069V27.2671H127.069ZM130.069 34.4642H134.256V28.4642H130.069V34.4642ZM131.256 31.4642V60.8131H137.256V31.4642H131.256ZM134.256 57.8131H130.069V63.8131H134.256V57.8131ZM127.069 60.8131V65H133.069V60.8131H127.069ZM130.069 62H113.291V68H130.069V62ZM142.657 65H139.657V68H142.657V65ZM142.657 27.2671V24.2671H139.657V27.2671H142.657ZM151.041 27.2671H154.041V24.2671H151.041V27.2671ZM151.041 35.651H148.041V38.651H151.041V35.651ZM155.227 35.651H158.227V32.651H155.227V35.651ZM155.227 39.8481H152.227V42.8481H155.227V39.8481ZM159.424 39.8481V42.8481H162.424V39.8481H159.424ZM159.424 27.2671V24.2671H156.424V27.2671H159.424ZM167.808 27.2671H170.808V24.2671H167.808V27.2671ZM167.808 65V68H170.808V65H167.808ZM159.424 65H156.424V68H159.424V65ZM159.424 48.2321H162.424V45.2321H159.424V48.2321ZM155.227 48.2321H152.227V51.2321H155.227V48.2321ZM155.227 44.035H158.227V41.035H155.227V44.035ZM151.041 44.035V41.035H148.041V44.035H151.041ZM151.041 65V68H154.041V65H151.041ZM145.657 65V27.2671H139.657V65H145.657ZM142.657 30.2671H151.041V24.2671H142.657V30.2671ZM148.041 27.2671V35.651H154.041V27.2671H148.041ZM151.041 38.651H155.227V32.651H151.041V38.651ZM152.227 35.651V39.8481H158.227V35.651H152.227ZM155.227 42.8481H159.424V36.8481H155.227V42.8481ZM162.424 39.8481V27.2671H156.424V39.8481H162.424ZM159.424 30.2671H167.808V24.2671H159.424V30.2671ZM164.808 27.2671V65H170.808V27.2671H164.808ZM167.808 62H159.424V68H167.808V62ZM162.424 65V48.2321H156.424V65H162.424ZM159.424 45.2321H155.227V51.2321H159.424V45.2321ZM158.227 48.2321V44.035H152.227V48.2321H158.227ZM155.227 41.035H151.041V47.035H155.227V41.035ZM148.041 44.035V65H154.041V44.035H148.041ZM151.041 62H142.657V68H151.041V62ZM180.396 65H177.396V68H180.396V65ZM180.396 60.8131H183.396V57.8131H180.396V60.8131ZM176.209 60.8131H173.209V63.8131H176.209V60.8131ZM176.209 56.616V53.616H173.209V56.616H176.209ZM184.593 56.616H187.593V53.616H184.593V56.616ZM184.593 60.8131H181.593V63.8131H184.593V60.8131ZM192.977 60.8131V63.8131H195.977V60.8131H192.977ZM192.977 48.2321H195.977V45.2321H192.977V48.2321ZM180.396 48.2321H177.396V51.2321H180.396V48.2321ZM180.396 44.035H183.396V41.035H180.396V44.035ZM176.209 44.035H173.209V47.035H176.209V44.035ZM176.209 31.4642V28.4642H173.209V31.4642H176.209ZM180.396 31.4642V34.4642H183.396V31.4642H180.396ZM180.396 27.2671V24.2671H177.396V27.2671H180.396ZM197.174 27.2671H200.174V24.2671H197.174V27.2671ZM197.174 31.4642H194.174V34.4642H197.174V31.4642ZM201.361 31.4642H204.361V28.4642H201.361V31.4642ZM201.361 35.651V38.651H204.361V35.651H201.361ZM192.977 35.651H189.977V38.651H192.977V35.651ZM192.977 31.4642H195.977V28.4642H192.977V31.4642ZM184.593 31.4642V28.4642H181.593V31.4642H184.593ZM184.593 44.035H181.593V47.035H184.593V44.035ZM197.174 44.035H200.174V41.035H197.174V44.035ZM197.174 48.2321H194.174V51.2321H197.174V48.2321ZM201.361 48.2321H204.361V45.2321H201.361V48.2321ZM201.361 60.8131V63.8131H204.361V60.8131H201.361ZM197.174 60.8131V57.8131H194.174V60.8131H197.174ZM197.174 65V68H200.174V65H197.174ZM183.396 65V60.8131H177.396V65H183.396ZM180.396 57.8131H176.209V63.8131H180.396V57.8131ZM179.209 60.8131V56.616H173.209V60.8131H179.209ZM176.209 59.616H184.593V53.616H176.209V59.616ZM181.593 56.616V60.8131H187.593V56.616H181.593ZM184.593 63.8131H192.977V57.8131H184.593V63.8131ZM195.977 60.8131V48.2321H189.977V60.8131H195.977ZM192.977 45.2321H180.396V51.2321H192.977V45.2321ZM183.396 48.2321V44.035H177.396V48.2321H183.396ZM180.396 41.035H176.209V47.035H180.396V41.035ZM179.209 44.035V31.4642H173.209V44.035H179.209ZM176.209 34.4642H180.396V28.4642H176.209V34.4642ZM183.396 31.4642V27.2671H177.396V31.4642H183.396ZM180.396 30.2671H197.174V24.2671H180.396V30.2671ZM194.174 27.2671V31.4642H200.174V27.2671H194.174ZM197.174 34.4642H201.361V28.4642H197.174V34.4642ZM198.361 31.4642V35.651H204.361V31.4642H198.361ZM201.361 32.651H192.977V38.651H201.361V32.651ZM195.977 35.651V31.4642H189.977V35.651H195.977ZM192.977 28.4642H184.593V34.4642H192.977V28.4642ZM181.593 31.4642V44.035H187.593V31.4642H181.593ZM184.593 47.035H197.174V41.035H184.593V47.035ZM194.174 44.035V48.2321H200.174V44.035H194.174ZM197.174 51.2321H201.361V45.2321H197.174V51.2321ZM198.361 48.2321V60.8131H204.361V48.2321H198.361ZM201.361 57.8131H197.174V63.8131H201.361V57.8131ZM194.174 60.8131V65H200.174V60.8131H194.174ZM197.174 62H180.396V68H197.174V62ZM226.529 60.8131V63.8131H229.529V60.8131H226.529ZM226.529 31.4642H229.529V28.4642H226.529V31.4642ZM218.145 31.4642V28.4642H215.145V31.4642H218.145ZM218.145 60.8131H215.145V63.8131H218.145V60.8131ZM213.948 65H210.948V68H213.948V65ZM213.948 60.8131H216.948V57.8131H213.948V60.8131ZM209.761 60.8131H206.761V63.8131H209.761V60.8131ZM209.761 31.4642V28.4642H206.761V31.4642H209.761ZM213.948 31.4642V34.4642H216.948V31.4642H213.948ZM213.948 27.2671V24.2671H210.948V27.2671H213.948ZM230.726 27.2671H233.726V24.2671H230.726V27.2671ZM230.726 31.4642H227.726V34.4642H230.726V31.4642ZM234.913 31.4642H237.913V28.4642H234.913V31.4642ZM234.913 60.8131V63.8131H237.913V60.8131H234.913ZM230.726 60.8131V57.8131H227.726V60.8131H230.726ZM230.726 65V68H233.726V65H230.726ZM229.529 60.8131V31.4642H223.529V60.8131H229.529ZM226.529 28.4642H218.145V34.4642H226.529V28.4642ZM215.145 31.4642V60.8131H221.145V31.4642H215.145ZM218.145 63.8131H226.529V57.8131H218.145V63.8131ZM216.948 65V60.8131H210.948V65H216.948ZM213.948 57.8131H209.761V63.8131H213.948V57.8131ZM212.761 60.8131V31.4642H206.761V60.8131H212.761ZM209.761 34.4642H213.948V28.4642H209.761V34.4642ZM216.948 31.4642V27.2671H210.948V31.4642H216.948ZM213.948 30.2671H230.726V24.2671H213.948V30.2671ZM227.726 27.2671V31.4642H233.726V27.2671H227.726ZM230.726 34.4642H234.913V28.4642H230.726V34.4642ZM231.913 31.4642V60.8131H237.913V31.4642H231.913ZM234.913 57.8131H230.726V63.8131H234.913V57.8131ZM227.726 60.8131V65H233.726V60.8131H227.726ZM230.726 62H213.948V68H230.726V62ZM260.081 44.035V47.035H263.081V44.035H260.081ZM260.081 31.4642H263.081V28.4642H260.081V31.4642ZM251.697 31.4642V28.4642H248.697V31.4642H251.697ZM251.697 44.035H248.697V47.035H251.697V44.035ZM243.313 65H240.313V68H243.313V65ZM243.313 27.2671V24.2671H240.313V27.2671H243.313ZM264.278 27.2671H267.278V24.2671H264.278V27.2671ZM264.278 31.4642H261.278V34.4642H264.278V31.4642ZM268.465 31.4642H271.465V28.4642H268.465V31.4642ZM268.465 44.035V47.035H271.465V44.035H268.465ZM264.278 44.035V41.035H261.278V44.035H264.278ZM264.278 48.2321H261.278V51.2321H264.278V48.2321ZM268.465 48.2321H271.465V45.2321H268.465V48.2321ZM268.465 65V68H271.465V65H268.465ZM260.081 65H257.081V68H260.081V65ZM260.081 48.2321H263.081V45.2321H260.081V48.2321ZM251.697 48.2321V45.2321H248.697V48.2321H251.697ZM251.697 65V68H254.697V65H251.697ZM263.081 44.035V31.4642H257.081V44.035H263.081ZM260.081 28.4642H251.697V34.4642H260.081V28.4642ZM248.697 31.4642V44.035H254.697V31.4642H248.697ZM251.697 47.035H260.081V41.035H251.697V47.035ZM246.313 65V27.2671H240.313V65H246.313ZM243.313 30.2671H264.278V24.2671H243.313V30.2671ZM261.278 27.2671V31.4642H267.278V27.2671H261.278ZM264.278 34.4642H268.465V28.4642H264.278V34.4642ZM265.465 31.4642V44.035H271.465V31.4642H265.465ZM268.465 41.035H264.278V47.035H268.465V41.035ZM261.278 44.035V48.2321H267.278V44.035H261.278ZM264.278 51.2321H268.465V45.2321H264.278V51.2321ZM265.465 48.2321V65H271.465V48.2321H265.465ZM268.465 62H260.081V68H268.465V62ZM263.081 65V48.2321H257.081V65H263.081ZM260.081 45.2321H251.697V51.2321H260.081V45.2321ZM248.697 48.2321V65H254.697V48.2321H248.697ZM251.697 62H243.313V68H251.697V62ZM281.052 65H278.052V68H281.052V65ZM281.052 60.8131H284.052V57.8131H281.052V60.8131ZM276.865 60.8131H273.865V63.8131H276.865V60.8131ZM276.865 56.616V53.616H273.865V56.616H276.865ZM285.249 56.616H288.249V53.616H285.249V56.616ZM285.249 60.8131H282.249V63.8131H285.249V60.8131ZM293.633 60.8131V63.8131H296.633V60.8131H293.633ZM293.633 48.2321H296.633V45.2321H293.633V48.2321ZM281.052 48.2321H278.052V51.2321H281.052V48.2321ZM281.052 44.035H284.052V41.035H281.052V44.035ZM276.865 44.035H273.865V47.035H276.865V44.035ZM276.865 31.4642V28.4642H273.865V31.4642H276.865ZM281.052 31.4642V34.4642H284.052V31.4642H281.052ZM281.052 27.2671V24.2671H278.052V27.2671H281.052ZM297.83 27.2671H300.83V24.2671H297.83V27.2671ZM297.83 31.4642H294.83V34.4642H297.83V31.4642ZM302.017 31.4642H305.017V28.4642H302.017V31.4642ZM302.017 35.651V38.651H305.017V35.651H302.017ZM293.633 35.651H290.633V38.651H293.633V35.651ZM293.633 31.4642H296.633V28.4642H293.633V31.4642ZM285.249 31.4642V28.4642H282.249V31.4642H285.249ZM285.249 44.035H282.249V47.035H285.249V44.035ZM297.83 44.035H300.83V41.035H297.83V44.035ZM297.83 48.2321H294.83V51.2321H297.83V48.2321ZM302.017 48.2321H305.017V45.2321H302.017V48.2321ZM302.017 60.8131V63.8131H305.017V60.8131H302.017ZM297.83 60.8131V57.8131H294.83V60.8131H297.83ZM297.83 65V68H300.83V65H297.83ZM284.052 65V60.8131H278.052V65H284.052ZM281.052 57.8131H276.865V63.8131H281.052V57.8131ZM279.865 60.8131V56.616H273.865V60.8131H279.865ZM276.865 59.616H285.249V53.616H276.865V59.616ZM282.249 56.616V60.8131H288.249V56.616H282.249ZM285.249 63.8131H293.633V57.8131H285.249V63.8131ZM296.633 60.8131V48.2321H290.633V60.8131H296.633ZM293.633 45.2321H281.052V51.2321H293.633V45.2321ZM284.052 48.2321V44.035H278.052V48.2321H284.052ZM281.052 41.035H276.865V47.035H281.052V41.035ZM279.865 44.035V31.4642H273.865V44.035H279.865ZM276.865 34.4642H281.052V28.4642H276.865V34.4642ZM284.052 31.4642V27.2671H278.052V31.4642H284.052ZM281.052 30.2671H297.83V24.2671H281.052V30.2671ZM294.83 27.2671V31.4642H300.83V27.2671H294.83ZM297.83 34.4642H302.017V28.4642H297.83V34.4642ZM299.017 31.4642V35.651H305.017V31.4642H299.017ZM302.017 32.651H293.633V38.651H302.017V32.651ZM296.633 35.651V31.4642H290.633V35.651H296.633ZM293.633 28.4642H285.249V34.4642H293.633V28.4642ZM282.249 31.4642V44.035H288.249V31.4642H282.249ZM285.249 47.035H297.83V41.035H285.249V47.035ZM294.83 44.035V48.2321H300.83V44.035H294.83ZM297.83 51.2321H302.017V45.2321H297.83V51.2321ZM299.017 48.2321V60.8131H305.017V48.2321H299.017ZM302.017 57.8131H297.83V63.8131H302.017V57.8131ZM294.83 60.8131V65H300.83V60.8131H294.83ZM297.83 62H281.052V68H297.83V62Z" fill="black" mask="url(#path-7-outside-1_585_2335)"/>
</svg>
