<svg width="64" height="67" viewBox="0 0 64 67" fill="none" xmlns="http://www.w3.org/2000/svg">
<mask id="mask0_151_431" style="mask-type:luminance" maskUnits="userSpaceOnUse" x="0" y="0" width="64" height="67">
<path d="M0 0H64V66.4242H0V0Z" fill="white"/>
</mask>
<g mask="url(#mask0_151_431)">
<path d="M64.0492 9.51635V19.005H61.6768V21.3775H54.5593V23.7487H52.1881V26.1211H49.8157V30.8661H47.4432V33.2373H45.0707V40.3547H47.4432V49.8434H45.0707V54.5871H42.6995V56.9595H37.9545V54.5871H35.5821V52.2158H33.2096V49.8434H30.8384V47.4709H28.4659V45.0984H26.0934V47.4709H23.721V49.8434H21.3497V52.2158H18.9773V54.5871H16.6048V56.9595H14.2323V59.332H11.8598V61.7045H9.48864V64.077H4.74369V66.4482H0V64.077H2.37121V59.332H4.74369V54.5871H7.11616V52.2158H11.8598V47.4709H14.2323V45.0984H16.6048V42.7272H18.9773V40.3547H21.3497V37.9823H18.9773V35.6098H16.6048V33.2373H14.2323V30.8661H11.8598V28.4936H9.48864V26.1211H11.8598V21.3775H16.6048V19.005H26.0934V21.3775H30.8384V16.6325H35.5821V14.26H37.9545V11.8876H40.327V9.51635H42.6995V2.39892H45.0707V0.02771H54.5593V2.39892H56.9318V4.7714H59.3043V7.14387H61.6768V9.51635H64.0492Z" fill="#FF5757"/>
</g>
<path d="M59.3039 11.8877H61.6764V16.6326H59.3039V19.0051H54.559V16.6326H52.1877V14.2602H49.8153V11.8877H47.4428V9.51647H45.0703V4.77152H47.4428V7.144H49.8153V4.77152H47.4428V2.39905H52.1877V4.77152H54.559V7.144H56.9314V9.51647H59.3039V11.8877ZM49.8153 21.3776H52.1877V19.0051H49.8153V16.6326H47.4428V14.2602H45.0703V16.6326H42.6991V19.0051H40.3266V21.3776H37.9542V16.6326H35.5817V19.0051H33.2092V21.3776H30.838V23.7488H33.2092V26.1213H35.5817V28.4937H37.9542V30.8662H40.3266V33.2374H45.0703V28.4937H47.4428V26.1213H49.8153V21.3776ZM45.0703 11.8877H42.6991V14.2602H45.0703V11.8877ZM42.6991 37.9824H40.3266V35.6099H37.9542V33.2374H35.5817V30.8662H33.2092V28.4937H30.838V26.1213H28.4655V23.7488H26.093V26.1213H21.3494V28.4937H18.9769V26.1213H21.3494V23.7488H26.093V21.3776H18.9769V23.7488H14.2319V28.4937H16.6044V30.8662H18.9769V33.2374H21.3494V35.6099H23.7206V37.9824H26.093V40.3549H28.4655V42.7273H30.838V45.0985H33.2092V47.471H35.5817V49.8435H37.9542V52.216H42.6991V47.471H45.0703V40.3549H42.6991V37.9824ZM40.3266 16.6326V14.2602H37.9542V16.6326H40.3266Z" fill="#FF5757"/>
<path d="M47.4427 7.14408V4.77161H49.8152V7.14408H47.4427ZM37.9541 16.6327V21.3777H40.3266V19.0052H42.6991V16.6327H45.0703V14.2602H40.3266V16.6327H37.9541ZM23.7205 42.7274H21.3493V45.0986H23.7205V42.7274ZM21.3493 23.7489V26.1214H26.093V23.7489H21.3493ZM21.3493 45.0986H18.9768V47.4711H21.3493V45.0986ZM18.9768 28.4938H21.3493V26.1214H18.9768V28.4938ZM18.9768 47.4711H16.6044V49.8436H18.9768V47.4711ZM16.6044 49.8436H14.2319V52.216H16.6044V49.8436ZM14.2319 54.5873V52.216H11.8594V54.5873H14.2319ZM9.4882 56.9597H11.8594V54.5873H9.4882V56.9597ZM7.11572 59.3322H9.4882V56.9597H7.11572V59.3322Z" fill="#F7F7F0"/>
<mask id="mask1_151_431" style="mask-type:luminance" maskUnits="userSpaceOnUse" x="0" y="0" width="64" height="67">
<path d="M0 0H64V66.4242H0V0Z" fill="white"/>
</mask>
<g mask="url(#mask1_151_431)">
<path d="M61.6768 9.51635V7.14387H59.3043V4.7714H56.9318V2.39892H54.5593V0.02771H45.0707V2.39892H42.6995V9.51635H40.327V11.8876H37.9545V14.26H42.6995V11.8876H45.0707V14.26H47.4432V16.6325H49.8157V19.005H52.1881V21.3775H49.8157V26.1211H52.1881V23.7487H54.5593V21.3775H61.6768V19.005H64.0492V9.51635H61.6768ZM61.6768 14.26V16.6325H59.3043V19.005H54.5593V16.6325H52.1881V14.26H49.8157V11.8876H47.4432V9.51635H45.0707V4.7714H47.4432V2.39892H52.1881V4.7714H54.5593V7.14387H56.9318V9.51635H59.3043V11.8876H61.6768V14.26ZM47.4432 26.1211H49.8157V30.8661H47.4432V33.2373H45.0707V28.4936H47.4432V26.1211ZM45.0707 42.7272V40.3547H47.4432V49.8434H45.0707V54.5871H42.6995V56.9595H37.9545V54.5871H35.5821V52.2158H33.2096V49.8434H30.8384V47.4709H28.4659V45.0984H26.0934V47.4709H23.721V49.8434H21.3497V52.2158H18.9773V54.5871H16.6048V56.9595H14.2323V59.332H11.8598V61.7045H9.48864V64.077H4.74369V66.4482H0V64.077H2.37121V59.332H4.74369V54.5871H7.11616V52.2158H11.8598V54.5871H9.48864V56.9595H7.11616V59.332H9.48864V56.9595H11.8598V54.5871H14.2323V52.2158H16.6048V49.8434H18.9773V47.4709H21.3497V45.0984H23.721V42.7272H21.3497V45.0984H18.9773V47.4709H16.6048V49.8434H14.2323V52.2158H11.8598V47.4709H14.2323V45.0984H16.6048V42.7272H18.9773V40.3547H21.3497V37.9823H18.9773V35.6098H16.6048V33.2373H14.2323V30.8661H11.8598V28.4936H9.48864V26.1211H11.8598V21.3775H16.6048V19.005H26.0934V21.3775H18.9773V23.7487H14.2323V28.4936H16.6048V30.8661H18.9773V33.2373H21.3497V35.6098H23.721V37.9823H26.0934V40.3547H28.4659V42.7272H30.8384V45.0984H33.2096V47.4709H35.5821V49.8434H37.9545V52.2158H42.6995V47.4709H45.0707V42.7272ZM42.6995 33.2373H45.0707V40.3547H42.6995V37.9823H40.327V35.6098H37.9545V33.2373H35.5821V30.8661H33.2096V28.4936H30.8384V26.1211H28.4659V23.7487H26.0934V21.3775H30.8384V23.7487H33.2096V26.1211H35.5821V28.4936H37.9545V30.8661H40.327V33.2373H42.6995ZM37.9545 16.6325H35.5821V14.26H37.9545V16.6325ZM33.2096 21.3775H30.8384V16.6325H35.5821V19.005H33.2096V21.3775Z" fill="black"/>
</g>
</svg>
